<mxfile host="app.diagrams.net" agent="Mozilla/5.0 (Windows NT 10.0; Win64; x64) AppleWebKit/537.36 (KHTML, like Gecko) Chrome/141.0.0.0 Safari/537.36 Edg/141.0.0.0" version="28.2.5">
  <diagram name="Page-1" id="n6DfhPhuOBznMvcR-2dj">
    <mxGraphModel dx="1471" dy="800" grid="1" gridSize="10" guides="1" tooltips="1" connect="1" arrows="1" fold="1" page="1" pageScale="1" pageWidth="827" pageHeight="1169" math="0" shadow="0">
      <root>
        <mxCell id="0" />
        <mxCell id="1" parent="0" />
        <UserObject label="" tags="Background" id="jLg2OHhgH8_k0mDhG_3J-1">
          <mxCell style="vsdxID=1;fillColor=#FFFFFF;gradientColor=none;shape=stencil(nZBRDoQgDERP03+WHsHFe5iISyOCQdT19kIaIxq//Jtp3zTpAFaTaUYNUkwx+F6v1EYD+AUpyRkdKCYFqACrzgf9C352LfuxyWRWg1/yhT/nRE5IsZWuZtCSK8CPeI0e/hF+jV7AJM4PO7KWCyr390bSiNtEtQM=);dashed=1;dashPattern=1.00 4.00;strokeColor=#000000;strokeWidth=2;spacingTop=-3;spacingBottom=-3;spacingLeft=-3;spacingRight=-3;points=[];labelBackgroundColor=none;rounded=0;html=1;whiteSpace=wrap;" vertex="1" parent="1">
            <mxGeometry x="454" y="700" width="888" height="383" as="geometry" />
          </mxCell>
        </UserObject>
        <UserObject label="" tags="Background" id="jLg2OHhgH8_k0mDhG_3J-2">
          <mxCell style="vsdxID=2;fillColor=#FFFFFF;gradientColor=none;shape=stencil(nZBRDoQgDERP03+WHsHFe5iISyOCQdT19kIaIxq//Jtp3zTpAFaTaUYNUkwx+F6v1EYD+AUpyRkdKCYFqACrzgf9C352LfuxyWRWg1/yhT/nRE5IsZWuZtCSK8CPeI0e/hF+jV7AJM4PO7KWCyr390bSiNtEtQM=);dashed=1;dashPattern=1.00 4.00;strokeColor=#000000;strokeWidth=2;spacingTop=-3;spacingBottom=-3;spacingLeft=-3;spacingRight=-3;points=[];labelBackgroundColor=none;rounded=0;html=1;whiteSpace=wrap;" vertex="1" parent="1">
            <mxGeometry x="470" y="1136" width="1044" height="117" as="geometry" />
          </mxCell>
        </UserObject>
        <UserObject label="" tags="Background" id="jLg2OHhgH8_k0mDhG_3J-3">
          <mxCell style="vsdxID=3;fillColor=#FFFFFF;gradientColor=none;shape=stencil(nZBRDoQgDERP03+WHsHFe5iISyOCQdT19kIaIxq//Jtp3zTpAFaTaUYNUkwx+F6v1EYD+AUpyRkdKCYFqACrzgf9C352LfuxyWRWg1/yhT/nRE5IsZWuZtCSK8CPeI0e/hF+jV7AJM4PO7KWCyr390bSiNtEtQM=);dashed=1;dashPattern=1.00 4.00;strokeColor=#000000;strokeWidth=2;spacingTop=-3;spacingBottom=-3;spacingLeft=-3;spacingRight=-3;points=[];labelBackgroundColor=none;rounded=0;html=1;whiteSpace=wrap;" vertex="1" parent="1">
            <mxGeometry x="543" y="1473" width="206" height="140" as="geometry" />
          </mxCell>
        </UserObject>
        <UserObject label="" tags="Background" id="jLg2OHhgH8_k0mDhG_3J-4">
          <mxCell style="vsdxID=4;fillColor=#FFFFFF;gradientColor=none;shape=stencil(nZBRDoQgDERP03+WHsHFe5iISyOCQdT19kIaIxq//Jtp3zTpAFaTaUYNUkwx+F6v1EYD+AUpyRkdKCYFqACrzgf9C352LfuxyWRWg1/yhT/nRE5IsZWuZtCSK8CPeI0e/hF+jV7AJM4PO7KWCyr390bSiNtEtQM=);dashed=1;dashPattern=1.00 4.00;strokeColor=#000000;strokeWidth=2;spacingTop=-3;spacingBottom=-3;spacingLeft=-3;spacingRight=-3;points=[];labelBackgroundColor=none;rounded=0;html=1;whiteSpace=wrap;" vertex="1" parent="1">
            <mxGeometry x="999" y="1473" width="194" height="140" as="geometry" />
          </mxCell>
        </UserObject>
        <UserObject label="" tags="Background" id="jLg2OHhgH8_k0mDhG_3J-5">
          <mxCell style="vsdxID=5;fillColor=none;gradientColor=none;shape=stencil(hU85DoAwDHtNVlQSIbFz/AOJQiugRaVcv6clA4iFzXbsxAEqFtXMElAs3tlB7rr1CqgERG2UdNoHBFQBFZ11snd2NS3zuYnOiCa7xQ0H50RMoDiZZZhQfis1m0dtXuZU/NgDeA5xx/fsWypI/BBVFw==);dashed=1;strokeColor=#cfcfcf;strokeWidth=2;spacingTop=-3;spacingBottom=-3;spacingLeft=-3;spacingRight=-3;points=[];labelBackgroundColor=none;rounded=0;html=1;whiteSpace=wrap;" vertex="1" parent="1">
            <mxGeometry x="238" y="421" width="1293" height="21" as="geometry" />
          </mxCell>
        </UserObject>
        <UserObject label="&lt;div style=&quot;font-size: 1px&quot;&gt;&lt;p style=&quot;text-align:right;margin-left:0;margin-right:0;margin-top:0px;margin-bottom:0px;text-indent:0;vertical-align:middle;direction:ltr;&quot;&gt;&lt;font style=&quot;font-size:16px;font-family:0;color:#000000;direction:ltr;letter-spacing:0px;line-height:120%;opacity:1&quot;&gt;&lt;b&gt;客户侧&lt;/b&gt;&lt;/font&gt;&lt;/p&gt;&lt;/div&gt;" tags="Background" id="jLg2OHhgH8_k0mDhG_3J-6">
          <mxCell style="verticalAlign=middle;align=right;overflow=width;vsdxID=6;fillColor=none;gradientColor=none;strokeColor=none;strokeWidth=2;spacingTop=-3;spacingBottom=-3;spacingLeft=-3;spacingRight=-3;points=[];labelBackgroundColor=none;rounded=0;html=1;whiteSpace=wrap;" vertex="1" parent="1">
            <mxGeometry x="137" y="372" width="161" height="44" as="geometry" />
          </mxCell>
        </UserObject>
        <UserObject label="&lt;div style=&quot;font-size: 1px&quot;&gt;&lt;p style=&quot;text-align:center;margin-left:0;margin-right:0;margin-top:0px;margin-bottom:0px;text-indent:0;vertical-align:middle;direction:ltr;&quot;&gt;&lt;font style=&quot;font-size:18px;font-family:0;color:#ffffff;direction:ltr;letter-spacing:0px;line-height:120%;opacity:1&quot;&gt;&lt;b&gt;内部工作门户（PC）&lt;/b&gt;&lt;/font&gt;&lt;/p&gt;&lt;/div&gt;" tags="Background" id="jLg2OHhgH8_k0mDhG_3J-7">
          <mxCell style="verticalAlign=middle;align=center;overflow=width;vsdxID=7;fillColor=#0070c0;gradientColor=none;shape=stencil(lZLbEoIgEIafhlsGFmvi2uw9nBGTycQQy94+CVMgx6a7PXzLv7ssYmlX5a1AQDqj1UU8ZGEqxI4IQDaV0NKMFmIZYmmptDhr1TeF89vckta6qrt9YXB1xFYAeTqPY8LfgZNjb31eWJaGcOgO4FyKd8kEgA9Mb9Wy8XT5ASf7QJtsCFPyQ3rOw/ogofiCTzTBnP4jPwc+DfjjRD2td7DsapXeXvyXfDx9PE8ovv3no7EcSynr2s/EZzWG3Emy7AU=);strokeColor=none;strokeWidth=0;spacingTop=-3;spacingBottom=-3;spacingLeft=-3;spacingRight=-3;points=[];labelBackgroundColor=none;rounded=0;html=1;whiteSpace=wrap;" vertex="1" parent="1">
            <mxGeometry x="712" y="372" width="260" height="44" as="geometry" />
          </mxCell>
        </UserObject>
        <UserObject label="" tags="Background" id="jLg2OHhgH8_k0mDhG_3J-8">
          <mxCell style="vsdxID=8;fillColor=none;gradientColor=none;shape=stencil(hU85DoAwDHtNVlQSIbFz/AOJQiugRaVcv6clA4iFzXbsxAEqFtXMElAs3tlB7rr1CqgERG2UdNoHBFQBFZ11snd2NS3zuYnOiCa7xQ0H50RMoDiZZZhQfis1m0dtXuZU/NgDeA5xx/fsWypI/BBVFw==);dashed=1;strokeColor=#cfcfcf;strokeWidth=2;spacingTop=-3;spacingBottom=-3;spacingLeft=-3;spacingRight=-3;points=[];labelBackgroundColor=none;rounded=0;html=1;whiteSpace=wrap;" vertex="1" parent="1">
            <mxGeometry x="238" y="1254" width="1293" height="21" as="geometry" />
          </mxCell>
        </UserObject>
        <UserObject label="&lt;div style=&quot;font-size: 1px&quot;&gt;&lt;p style=&quot;text-align:right;margin-left:0;margin-right:0;margin-top:0px;margin-bottom:0px;text-indent:0;vertical-align:middle;direction:ltr;&quot;&gt;&lt;font style=&quot;font-size:16px;font-family:0;color:#000000;direction:ltr;letter-spacing:0px;line-height:120%;opacity:1&quot;&gt;&lt;b&gt;系统侧&lt;/b&gt;&lt;/font&gt;&lt;/p&gt;&lt;/div&gt;" tags="Background" id="jLg2OHhgH8_k0mDhG_3J-9">
          <mxCell style="verticalAlign=middle;align=right;overflow=width;vsdxID=9;fillColor=none;gradientColor=none;strokeColor=none;strokeWidth=2;spacingTop=-3;spacingBottom=-3;spacingLeft=-3;spacingRight=-3;points=[];labelBackgroundColor=none;rounded=0;html=1;whiteSpace=wrap;" vertex="1" parent="1">
            <mxGeometry x="137" y="480" width="161" height="44" as="geometry" />
          </mxCell>
        </UserObject>
        <UserObject label="&lt;div style=&quot;font-size: 1px&quot;&gt;&lt;p style=&quot;text-align:center;margin-left:0;margin-right:0;margin-top:0px;margin-bottom:0px;text-indent:0;vertical-align:middle;direction:ltr;&quot;&gt;&lt;font style=&quot;font-size:12px;font-family:0;color:#000000;direction:ltr;letter-spacing:0px;line-height:120%;opacity:1&quot;&gt;负载均衡&lt;/font&gt;&lt;/p&gt;&lt;/div&gt;" tags="Background" id="jLg2OHhgH8_k0mDhG_3J-10">
          <mxCell style="verticalAlign=middle;align=center;overflow=width;vsdxID=10;fillColor=none;gradientColor=none;image;aspect=fixed;image=data:image/png,iVBORw0KGgoAAAANSUhEUgAAADkAAABNCAYAAAAcq8xSAAAEiklEQVR4AeybUXLaMBCG15DXptMTlJ6kME3OUThJkpMkPUfoQE8CN8iEvgbc/S1UiCzZkrXrkAwerYUsaXc/rzGyLAbUx/Z7M6X55p5lxVKyLOjx+ZYWT6M+zOtCAmK+WVBJ9wwzZbFQYyqKG9oOVxUsV2gmPUgAAoJoTE0bYBHVpjaZdXqQ2yGiF+eeMqgOpIlMcwRd/KL46R6SKutAFsX3Dg6OtG5EOpBt38PQGdgN06If0uMc14J0zEQWd+UosmVSMy3IdZIXtvGg6NbP9g/kWpDLgL3mw4Ntt37NWkkHsqA/LXZ91UuafFn7KnKP6UD+uHxgx9KiMtzOuI9K0oGEq1eXE87iIlMWE60osg9Klys0Q64uv3GGqIZg1wTA609pUWelKUkvktaLq8sZFXRni0f5knASlAFhTx+ysuK9a4aiix6i0g+kqMvpyj4QZBj+DBk+N++r5hzJ9xWvsLfnSIbPzfuqOUdSLF4vF/4nfkxbihkJK9KP5OPfMRXlwuPClF4GU63Jq2N7g+OC+OcwoDGF+dYeQPUg2wANJlEPoDqQsYC035RB5SFTAfecmhGVhewKqAwqB9kEWJb+mQGi+oOzwqUrA9kEWNCMLnaY5yFnW9NwO+Fj6qD5kG2AZnqSWTwJ86w9gOZB5gBa5kRQ2y0lN5B4p493inA6tjfa+kcyRLhEmyJIziYNiuHiEc+AsGAB7/TxhYfTcN7xoVZEG7StVfCBVEDuUiUpUPiG1/j/eZ5vEUksWKjsmN1ubPLAHkqkAa0pEVDHf4YFpDVh8qL4aj549pqA1lwuqMf/OqQ15uZ9AFqbuaBWzz6Pg+wTcO9Y9QJI6OelHfItAIVBmyHfErA7aG0WIgx5CoDdQW3PKvdDnhJg5SbvMm5GPshRYE6GkkcyJLzFgBKNyNl8kP7BQNeRjGMwu9gGGglZ9+NUAK1nTaC2zVHui+RRNX/EAy/W12DQy8WTSQAti1mMP+2QPParFt9i0DvfYNWxKwvCjSrGWmob6J1vVvwQ4do05dAY2rHTDul08BTH1Y1KOtLQZyBqNxKPD02H1hKQxkDoVYCpTd8L6pOCXJPoUhU+J0Zfff6Hq1ITILFQKEceKPIGkOrcfqILk2A5/i0HhOVheTITj6I9G7iDYrFTpn+IpFX5YfMz5EcJ7TmS50i6ZwAjFIh7vEsZeiBd+nr65F+ucAbjS4xtt8NF9hoA/IHN6FoRZvY9TqceyofcDm/Y6IgFaVQN5gGOUqoAkGhMdsPMflddVgfn+ZDHTrHCKiESKc6hrQtYKeIdBgSc5aR8yILu2IE1y+sUCwpA8w+9QwQPmjCkO5Q6fsqHxNursvzF9tNBF0+4vO+5rw9wyUPOqIdi7t+Y8iGh/vrzLZUNoP7HpjbACVRLiAwkPDmAovRazMPv62PmuxyKoBggjMpBQpsBxXcUpS6CS1QUEE7IQkJjd1AVQLgkDwmtkaBouhc1QOjXgYTmeFBVQLiiBwnt7aDqgHBDFxIWwqC9AMIFfUhYqYP2Bgjz/UDC0gH0gUcy4j8TMBGSfwAAAP//jUZ1dwAAAAZJREFUAwDgKUMyRAIafwAAAABJRU5ErkJggg==;strokeColor=none;strokeWidth=0;points=[];labelBackgroundColor=none;rounded=0;html=1;whiteSpace=wrap;" vertex="1" parent="1">
            <mxGeometry x="813" y="464" width="57" height="76" as="geometry" />
          </mxCell>
        </UserObject>
        <UserObject label="" tags="Background" id="jLg2OHhgH8_k0mDhG_3J-11">
          <mxCell style="vsdxID=11;fillColor=none;gradientColor=none;shape=stencil(hU85DoAwDHtNVlQSIbFz/AOJQiugRaVcv6clA4iFzXbsxAEqFtXMElAs3tlB7rr1CqgERG2UdNoHBFQBFZ11snd2NS3zuYnOiCa7xQ0H50RMoDiZZZhQfis1m0dtXuZU/NgDeA5xx/fsWypI/BBVFw==);dashed=1;strokeColor=#cfcfcf;strokeWidth=2;spacingTop=-3;spacingBottom=-3;spacingLeft=-3;spacingRight=-3;points=[];labelBackgroundColor=none;rounded=0;html=1;whiteSpace=wrap;" vertex="1" parent="1">
            <mxGeometry x="238" y="679" width="1293" height="21" as="geometry" />
          </mxCell>
        </UserObject>
        <UserObject label="&lt;div style=&quot;font-size: 1px&quot;&gt;&lt;p style=&quot;text-align:right;margin-left:0;margin-right:0;margin-top:0px;margin-bottom:0px;text-indent:0;vertical-align:middle;direction:ltr;&quot;&gt;&lt;font style=&quot;font-size:16px;font-family:0;color:#000000;direction:ltr;letter-spacing:0px;line-height:120%;opacity:1&quot;&gt;&lt;b&gt;应用层&lt;/b&gt;&lt;/font&gt;&lt;/p&gt;&lt;/div&gt;" tags="Background" id="jLg2OHhgH8_k0mDhG_3J-12">
          <mxCell style="verticalAlign=middle;align=right;overflow=width;vsdxID=12;fillColor=none;gradientColor=none;strokeColor=none;strokeWidth=2;spacingTop=-3;spacingBottom=-3;spacingLeft=-3;spacingRight=-3;points=[];labelBackgroundColor=none;rounded=0;html=1;whiteSpace=wrap;" vertex="1" parent="1">
            <mxGeometry x="246" y="694" width="161" height="44" as="geometry" />
          </mxCell>
        </UserObject>
        <UserObject label="&lt;div style=&quot;font-size: 1px&quot;&gt;&lt;p style=&quot;text-align:center;margin-left:0;margin-right:0;margin-top:0px;margin-bottom:0px;text-indent:0;vertical-align:middle;direction:ltr;&quot;&gt;&lt;font style=&quot;font-size:12px;font-family:0;color:#000000;direction:ltr;letter-spacing:0px;line-height:120%;opacity:1&quot;&gt;服务网关&lt;/font&gt;&lt;/p&gt;&lt;/div&gt;" tags="Background" id="jLg2OHhgH8_k0mDhG_3J-13">
          <mxCell style="verticalAlign=middle;align=center;overflow=width;vsdxID=13;fillColor=none;gradientColor=none;image;aspect=fixed;image=data:image/png,iVBORw0KGgoAAAANSUhEUgAAAE4AAABECAYAAAAvMQN7AAAIQ0lEQVR4AeyaYXbbNgzHISdfl76dYPZJar+l55hzkjQniXOOZk/eSaydYG/Z1zocfoRgyrJsy0rqyq30BFIEQIr8CwApSiN5flkphZ+a5PRjdHqVoQYIDMCBQgcagOsAGlUG4EChAw3AdQCNKgNwoNCBBuA6gEaVAThQ6EADcB1Ao8oAHCh0oAG4DqBRBeDGXAx0GgIAZzVCNpOr9STRT3BtI++UJuCuvxYy+/Xnok6QWaUEnJWHtCUCA3AtgaqrnQe4t26W5v+M6x3/3uXzAPe9R/kN7j8A1xHUAbgBuI4IdKw2WNwAXEcEOlYbLG4ArhMCRadaWqmbxWnFH+K8vZkImxsdBvNjAvfny1yeXx5L4hcPKNcy9Chf/v0sX/6bRrw+/bKM+YnJeYDjyd7eZNJE3mG2tJrk8Ni1cb2mnFcyAwqAggR5VLV5SbyuQQAFzSXL7iULgIi+AlmCqBXanucBrm1vuugB2PpqpVXnSgCkWeUM4UFwx0zulFuPaejPSxBz4QGoUpvzcoHD3Z5fgg5yrsS5iAABFCUIwD59+Cy44+83C92knSm7UOJcRn2RhYjAmwoPgAfRAsDLBO75JRfcTeIBIBMNA3fCZqzzsTAAiyplgstfrR28qYzCONYjlCQA5wpgfsz6RmWTl5FhCYAmQqwqosXc3tzFnWvR4+vIra8QLExZOyfghfAU+UH+iDkJ7SRQxwreajOBIK/RqFZuX8RN3oP8juYmQWe+Kq1cHC0AHQNtqZYyiS7oCrnu2bm1hYx45pLdHPd19/TZFS1ATdYnMfYxQ8vu0R243bben1MFYH31WN4A0Gbldcqq1lZ30aSVrkJpdVlIVudSrM9jJTN0rg/FZWX+duAIwCwlulLZEam3wzLEAWAiMEszbaykPpgsMwBCCYhp7k+vX5kUkM+jNXPlRPtZ9psX1W0f6zpvB46AjIl3Je9dvR3n2yDuvaj5NLoQFsgMiNzcaayyQswN9fLISX/NXUWwVtqgPbb5WeOJeLwUPaZRRy/8fDtw3tK3yHN1ERuERIvEKtPsN9VbziOIuJMW4ol1QgABAawTZQg5IMUKmhAbrY25lngAmski3hNPAmB06I/Y0W/gsAT6SbzBbSHiz+3NJA4KPoNCx2gclykMEiAggHeiDCE3ixpbtU26EJYxhAnuw/2wzFC6//oqd812wOX65OvkLZBXZPVYgHhDdT3KG6Fe1Ms2QGl0PwaFWwKiVi3PpRiYCy0vK1RUrpEZmS4y0cXxRGfqu8ZlDPexBzT28bUDjmVAnbQn8azzKUdBQ4KsTq7mfNwKHu5EboPj6jjd3swiyFgL14kAZabAQHeaGxkg1u7X67r1Gd/TTB7iZekF7YCLNc6SaHAvdyuycla73sx+zR1IVmqW06x1iItlSnyLOKRlC+pCytm7b8BZ1w0MAnWxeSswyW56zFJ2azRzXvX1q1lS5S61EN21X8CFMgiX7qDx6kk7evjkfdM0GJRdnZJm8ldUdwuPhT2J62r/+gXcKCu2uzw6DkY7S9lutrl0OMZR57XsX5Z9HFHuDXnHvEMsivOGGb3Kc0sJ4e8441Vlba79XuTH9NExmvYLOOuUiD5R4fCZ9lBu6zHROvf6arQ6mVjXSTymR+uyHoyqIv0CDgsrO9b3rF/AJbQs1rGK55VnH6VXMNGJ5CEuYvfp7uNzD7tvcbS+3S9qtwNu30338WPTDck+fefzelOvBm8f8fZAbKMOsW6f3iF+iqtFXPoc0k0eUbQD7lBjTTIG0kRNulWe13Ewgnx01t58Zybeq9ksSMuZolmhwq2sGdsBV6l7lssExvElQurQKbqpli9n/GElScPV6zQyQ3g6J3Dxnq2S0XpZ6k3jEqMsNGbJ1RrF78r02V5GywQcU/57fEN4axu5rttwXxED7/XKnrIcPbpZHLHxaNOqQL9E6Et8n07ASc+OTJ5ij6pfoiKjljBBGGu8ZZ0MlJ2WKsFzsjqkYxJJ4SEWdxJ9zYq8EGK/RrrF0vxrgm3mnV9m1iblvhgB+7C7sqMbR6QJG41u8XgQC9YqwXMyvZXWwopEiHW5WrsyGs9yV8Rl/bU466G56/rq3oplClh8X2XwaeWPcExSIYCHaIfcyVWSPpumgEq77AVWQcRqRdBVN/3wWfToN3BXazYPGexcdsEyS7FYCDA6HLFFbPKWiXoUxAYmuVMWF7v2/UL04B60QT6VOohYrSpJ5XNlv4HDbYPFFDHLmtJ/pYWw4mfhzC5vyABY2YJVSKuDts2KRN86nhRgA9feDhbaRgJRC6rzUP0A3m/g6LBtb2MNlJbRUtgaZ0fWBq/fJOKuMQMVaTsL5zGe2YOo7jIz2dD+7c1EbwiAmsnGRaU8+g8cHcWq7GPJNH7ftEEjSRQ2lmkfppOk+cpnSdr1B1DVtLg2j6yKi8ayJpcBnHZUrPOFWPx53Fp6IL9+xToKvTw8C6tCPGmHC/8Iw7UT31xTXJtVXdRVLgc4XMjBE5nq3lm+BZ5ZzVI4kjVR2iVmTeMW5bLHSqTMqr7HR7zjvvBrdDnA0XEGUf8VC+vIY7wSjX9MEkW0SnM1am0Tum5toXRvNACT5Q0PBfc9ABrqlwUcPcaybrcCNz8CrgQAkTsYWXjcskhkEP+ckAMOE48tc1YRbOPrR+3srsk9TWxpT4CzzpyUMvNhFQBgFQ3AzYu4jNWdV5s/zA2gXMyiNJOxgh3EljljEVkK7TERYdly+Lhc4BgXA8T6GDADNxBtiYEcwi0J9AbQtgw5i2DqtwTMqohcNnA+CgNwpovYSbQa+21iqeKigRbC4hmyN4yjbqlt7Jz/AwAA///sMUC9AAAABklEQVQDABTeW5auLQFyAAAAAElFTkSuQmCC;strokeColor=none;strokeWidth=0;points=[];labelBackgroundColor=none;rounded=0;html=1;whiteSpace=wrap;" vertex="1" parent="1">
            <mxGeometry x="803" y="588" width="78" height="68" as="geometry" />
          </mxCell>
        </UserObject>
        <UserObject label="" tags="Background" id="jLg2OHhgH8_k0mDhG_3J-14">
          <mxCell style="vsdxID=14;fillColor=none;gradientColor=none;shape=stencil(hU85DoAwDHtNVlQSIbFz/AOJQiugRaVcv6clA4iFzXbsxAEqFtXMElAs3tlB7rr1CqgERG2UdNoHBFQBFZ11snd2NS3zuYnOiCa7xQ0H50RMoDiZZZhQfis1m0dtXuZU/NgDeA5xx/fsWypI/BBVFw==);dashed=1;strokeColor=#cfcfcf;strokeWidth=2;spacingTop=-3;spacingBottom=-3;spacingLeft=-3;spacingRight=-3;points=[];labelBackgroundColor=none;rounded=0;html=1;whiteSpace=wrap;" vertex="1" parent="1">
            <mxGeometry x="238" y="1421" width="1293" height="21" as="geometry" />
          </mxCell>
        </UserObject>
        <UserObject label="" tags="Background" id="jLg2OHhgH8_k0mDhG_3J-15">
          <mxCell style="vsdxID=15;fillColor=none;gradientColor=none;shape=stencil(hU85DoAwDHtNVlQSIbFz/AOJQiugRaVcv6clA4iFzXbsxAEqFtXMElAs3tlB7rr1CqgERG2UdNoHBFQBFZ11snd2NS3zuYnOiCa7xQ0H50RMoDiZZZhQfis1m0dtXuZU/NgDeA5xx/fsWypI/BBVFw==);dashed=1;strokeColor=#cfcfcf;strokeWidth=2;spacingTop=-3;spacingBottom=-3;spacingLeft=-3;spacingRight=-3;points=[];labelBackgroundColor=none;rounded=0;html=1;whiteSpace=wrap;" vertex="1" parent="1">
            <mxGeometry x="246" y="1616" width="1293" height="21" as="geometry" />
          </mxCell>
        </UserObject>
        <UserObject label="&lt;div style=&quot;font-size: 1px&quot;&gt;&lt;p style=&quot;text-align:right;margin-left:0;margin-right:0;margin-top:0px;margin-bottom:0px;text-indent:0;vertical-align:middle;direction:ltr;&quot;&gt;&lt;font style=&quot;font-size:16px;font-family:0;color:#000000;direction:ltr;letter-spacing:0px;line-height:120%;opacity:1&quot;&gt;&lt;b&gt;中间件层&lt;/b&gt;&lt;/font&gt;&lt;/p&gt;&lt;/div&gt;" tags="Background" id="jLg2OHhgH8_k0mDhG_3J-16">
          <mxCell style="verticalAlign=middle;align=right;overflow=width;vsdxID=16;fillColor=none;gradientColor=none;strokeColor=none;strokeWidth=2;spacingTop=-3;spacingBottom=-3;spacingLeft=-3;spacingRight=-3;points=[];labelBackgroundColor=none;rounded=0;html=1;whiteSpace=wrap;" vertex="1" parent="1">
            <mxGeometry x="246" y="1266" width="161" height="44" as="geometry" />
          </mxCell>
        </UserObject>
        <UserObject label="&lt;div style=&quot;font-size: 1px&quot;&gt;&lt;p style=&quot;text-align:right;margin-left:0;margin-right:0;margin-top:0px;margin-bottom:0px;text-indent:0;vertical-align:middle;direction:ltr;&quot;&gt;&lt;font style=&quot;font-size:16px;font-family:0;color:#000000;direction:ltr;letter-spacing:0px;line-height:120%;opacity:1&quot;&gt;&lt;b&gt;数据存储层&lt;/b&gt;&lt;/font&gt;&lt;/p&gt;&lt;/div&gt;" tags="Background" id="jLg2OHhgH8_k0mDhG_3J-17">
          <mxCell style="verticalAlign=middle;align=right;overflow=width;vsdxID=17;fillColor=none;gradientColor=none;strokeColor=none;strokeWidth=2;spacingTop=-3;spacingBottom=-3;spacingLeft=-3;spacingRight=-3;points=[];labelBackgroundColor=none;rounded=0;html=1;whiteSpace=wrap;" vertex="1" parent="1">
            <mxGeometry x="246" y="1431" width="161" height="44" as="geometry" />
          </mxCell>
        </UserObject>
        <UserObject label="&lt;div style=&quot;font-size: 1px&quot;&gt;&lt;p style=&quot;text-align:right;margin-left:0;margin-right:0;margin-top:0px;margin-bottom:0px;text-indent:0;vertical-align:middle;direction:ltr;&quot;&gt;&lt;font style=&quot;font-size:16px;font-family:0;color:#000000;direction:ltr;letter-spacing:0px;line-height:120%;opacity:1&quot;&gt;&lt;b&gt;基础应用层&lt;/b&gt;&lt;/font&gt;&lt;/p&gt;&lt;/div&gt;" tags="Background" id="jLg2OHhgH8_k0mDhG_3J-18">
          <mxCell style="verticalAlign=middle;align=right;overflow=width;vsdxID=18;fillColor=none;gradientColor=none;strokeColor=none;strokeWidth=2;spacingTop=-3;spacingBottom=-3;spacingLeft=-3;spacingRight=-3;points=[];labelBackgroundColor=none;rounded=0;html=1;whiteSpace=wrap;" vertex="1" parent="1">
            <mxGeometry x="407" y="1094" width="161" height="44" as="geometry" />
          </mxCell>
        </UserObject>
        <UserObject label="" tags="Background" id="jLg2OHhgH8_k0mDhG_3J-19">
          <mxCell style="vsdxID=19;fillColor=none;gradientColor=none;shape=stencil(hU85DoAwDHtNVlQSIbFz/AOJQiugRaVcv6clA4iFzXbsxAEqFtXMElAs3tlB7rr1CqgERG2UdNoHBFQBFZ11snd2NS3zuYnOiCa7xQ0H50RMoDiZZZhQfis1m0dtXuZU/NgDeA5xx/fsWypI/BBVFw==);dashed=1;strokeColor=#cfcfcf;strokeWidth=2;spacingTop=-3;spacingBottom=-3;spacingLeft=-3;spacingRight=-3;points=[];labelBackgroundColor=none;rounded=0;html=1;whiteSpace=wrap;" vertex="1" parent="1">
            <mxGeometry x="420" y="1081" width="1113" height="21" as="geometry" />
          </mxCell>
        </UserObject>
        <UserObject label="&lt;div style=&quot;font-size: 1px&quot;&gt;&lt;p style=&quot;text-align:center;margin-left:0;margin-right:0;margin-top:0px;margin-bottom:0px;text-indent:0;vertical-align:middle;direction:ltr;&quot;&gt;&lt;font style=&quot;font-size:12px;font-family:0;color:#000000;direction:ltr;letter-spacing:0px;line-height:120%;opacity:1&quot;&gt;数据应用服务&lt;/font&gt;&lt;/p&gt;&lt;/div&gt;" tags="Background" id="jLg2OHhgH8_k0mDhG_3J-20">
          <mxCell style="verticalAlign=middle;align=center;overflow=width;vsdxID=20;fillColor=none;gradientColor=none;image;aspect=fixed;image=data:image/svg+xml,PHN2ZyB4bWxucz0iaHR0cDovL3d3dy53My5vcmcvMjAwMC9zdmciIGhlaWdodD0iODAuMDAwMTk4MzY0MjU3ODEiIHdpZHRoPSIzNi4wMDAyMDk4MDgzNDk2MSIgeG1sOnNwYWNlPSJwcmVzZXJ2ZSIgdmlld0JveD0iLTAuMDAwMTQ3MDQ5Nzk1NDg2OTY0MjkgLTAuMDAwMTI3MzU0MjAwMjMwOTExMzcgMzYuMDAwMjA5ODA4MzQ5NjEgODAuMDAwMTk4MzY0MjU3ODEiPjxwYXRoIGQ9Ik0zMy4yNzkgODBIMi43MTZBMi42OTcgMi42OTcgMCAwIDEgMCA3Ny4yODNWMi43MThBMi42OSAyLjY5IDAgMCAxIDIuNzE2IDBoMzAuNTYzQTIuNyAyLjcgMCAwIDEgMzYgMi43MTh2NzQuNTY1QzM2IDc4LjcwNSAzNC43OTMgODAgMzMuMjc5IDgwIiBmaWxsPSIjMUUzOTQ3Ii8+PHBhdGggZD0iTS4wODEgNi4zOThIMzZ2Ljg4NEguMDgxek0uMDgxIDY5LjUxOGgzNS45MTh2Ljg4NEguMDgxeiIgZmlsbD0iI0RDRTlGNyIvPjxwYXRoIGQ9Ik0wIDUxLjEyNmgzNnYuNDgxSDB6IiBmaWxsPSIjMUE2Njg0Ii8+PHBhdGggZD0iTTUuMiAxMS42OGgyNS43NTF2My4xMTlINS4yek01LjIgMTUuNjA4aDI1Ljc1MXYzLjExNEg1LjJ6IiBmaWxsPSIjMjM2QThFIi8+PHBhdGggZD0iTTUuODMzIDEyLjg3N2g0LjY0OHYuOTY2SDUuODMzek01LjgzMyAxNi43Mmg0LjY0OHYuOTUzSDUuODMzeiIgZmlsbD0iI0RDRTlGNyIvPjxwYXRoIGQ9Ik01LjIgMjAuNjQyaDI1Ljc1MXYzLjEyMUg1LjJ6TTUuMiAyNC41NTdoMjUuNzUxdjMuMTE2SDUuMnoiIGZpbGw9IiMyMzZBOEUiLz48cGF0aCBkPSJNNS44MzMgMjEuODQxaDQuNjQ4di45NTZINS44MzN6TTUuODMzIDI1LjY4N2g0LjY0OHYuOTUzSDUuODMzeiIgZmlsbD0iI0RDRTlGNyIvPjxwYXRoIGQ9Ik01LjIgMzEuMjc3aDI1Ljc1MXYzLjExNEg1LjJ6TTUuMiAzNS4yMDFoMjUuNzUxdjMuMTE5SDUuMnoiIGZpbGw9IiMyMzZBOEUiLz48cGF0aCBkPSJNNS44MzMgMzIuNDgzaDQuNjQ4di45NTdINS44MzN6TTUuODMzIDM2LjMxOGg0LjY0OHYuOTY0SDUuODMzeiIgZmlsbD0iI0RDRTlGNyIvPjxwYXRoIG9wYWNpdHk9Ii42MiIgZD0iTTMxLjY3NSA3Mi45NThjLjczNCAwIDEuMzU4LjYwNCAxLjM1OCAxLjM2NyAwIC43NDQtLjYyNCAxLjM0OS0xLjM1OCAxLjM0OS0uNzM4IDAtMS4zNjMtLjYwNC0xLjM2My0xLjM0OWExLjM3IDEuMzcgMCAwIDEgMS4zNjMtMS4zNjciIGZpbGw9IiNGRjQ2NkEiLz48cGF0aCBvcGFjaXR5PSIuNjIiIGQ9Ik0yNi42MjkgNzIuOTU4Yy43NTkgMCAxLjM2NC42MDQgMS4zNjQgMS4zNjcgMCAuNzQ0LS42MDUgMS4zNDktMS4zNjQgMS4zNDlhMS4zNSAxLjM1IDAgMCAxLTEuMzUyLTEuMzQ5YzAtLjc2Mi42MDYtMS4zNjcgMS4zNTItMS4zNjciIGZpbGw9IiM0M0QxOTAiLz48ZyBmaWxsPSIjMDQxMzIzIj48cGF0aCBkPSJNMi43MTYgNTIuMjMzaDEuMzZ2MTYuNDA1aC0xLjM2ek00Ljk1OSA1Mi4yMzNoMS4zNTh2MTYuNDA1SDQuOTU5ek03LjEyMiA1Mi4yMzNIOC40OHYxNi40MDVINy4xMjJ6TTkuMzUzIDUyLjIzM2gxLjM2M3YxNi40MDVIOS4zNTN6TTExLjUxNyA1Mi4yMzNoMS4zNTh2MTYuNDA1aC0xLjM1OHpNMTMuNzYgNTIuMjMzaDEuMzU4djE2LjQwNUgxMy43NnpNMTUuOTExIDUyLjIzM2gxLjM2NnYxNi40MDVoLTEuMzY2ek0xOC4xNTYgNTIuMjMzaDEuMzc2djE2LjQwNWgtMS4zNzZ6TTIwLjM4IDUyLjIzM2gxLjM3N3YxNi40MDVIMjAuMzh6TTIyLjU2MiA1Mi4yMzNoMS4zNDl2MTYuNDA1aC0xLjM0OXpNMjQuNzk1IDUyLjIzM2gxLjM2NXYxNi40MDVoLTEuMzY1ek0yNi45NDEgNTIuMjMzaDEuMzc0djE2LjQwNWgtMS4zNzR6TTI5LjIgNTIuMjMzaDEuMzQ5djE2LjQwNUgyOS4yek0zMS40MzQgNTIuMjMzaDEuMzc4djE2LjQwNWgtMS4zNzh6Ii8+PC9nPjwvc3ZnPg==;strokeColor=none;strokeWidth=0;points=[];labelBackgroundColor=none;rounded=0;html=1;whiteSpace=wrap;" vertex="1" parent="1">
            <mxGeometry x="653" y="703" width="36" height="80" as="geometry" />
          </mxCell>
        </UserObject>
        <UserObject label="&lt;div style=&quot;font-size: 1px&quot;&gt;&lt;p style=&quot;text-align:center;margin-left:0;margin-right:0;margin-top:0px;margin-bottom:0px;text-indent:0;vertical-align:middle;direction:ltr;&quot;&gt;&lt;font style=&quot;font-size:12px;font-family:0;color:#000000;direction:ltr;letter-spacing:0px;line-height:120%;opacity:1&quot;&gt;系统管理服务&lt;/font&gt;&lt;/p&gt;&lt;/div&gt;" tags="Background" id="jLg2OHhgH8_k0mDhG_3J-21">
          <mxCell style="verticalAlign=middle;align=center;overflow=width;vsdxID=21;fillColor=none;gradientColor=none;image;aspect=fixed;image=data:image/svg+xml,PHN2ZyB4bWxucz0iaHR0cDovL3d3dy53My5vcmcvMjAwMC9zdmciIGhlaWdodD0iODAuMDAwMTk4MzY0MjU3ODEiIHdpZHRoPSIzNi4wMDAyMDk4MDgzNDk2MSIgeG1sOnNwYWNlPSJwcmVzZXJ2ZSIgdmlld0JveD0iLTAuMDAwMTQ3MDQ5Nzk1NDg2OTY0MjkgLTAuMDAwMTI3MzU0MjAwMjMwOTExMzcgMzYuMDAwMjA5ODA4MzQ5NjEgODAuMDAwMTk4MzY0MjU3ODEiPjxwYXRoIGQ9Ik0zMy4yNzkgODBIMi43MTZBMi42OTcgMi42OTcgMCAwIDEgMCA3Ny4yODNWMi43MThBMi42OSAyLjY5IDAgMCAxIDIuNzE2IDBoMzAuNTYzQTIuNyAyLjcgMCAwIDEgMzYgMi43MTh2NzQuNTY1QzM2IDc4LjcwNSAzNC43OTMgODAgMzMuMjc5IDgwIiBmaWxsPSIjMUUzOTQ3Ii8+PHBhdGggZD0iTS4wODEgNi4zOThIMzZ2Ljg4NEguMDgxek0uMDgxIDY5LjUxOGgzNS45MTh2Ljg4NEguMDgxeiIgZmlsbD0iI0RDRTlGNyIvPjxwYXRoIGQ9Ik0wIDUxLjEyNmgzNnYuNDgxSDB6IiBmaWxsPSIjMUE2Njg0Ii8+PHBhdGggZD0iTTUuMiAxMS42OGgyNS43NTF2My4xMTlINS4yek01LjIgMTUuNjA4aDI1Ljc1MXYzLjExNEg1LjJ6IiBmaWxsPSIjMjM2QThFIi8+PHBhdGggZD0iTTUuODMzIDEyLjg3N2g0LjY0OHYuOTY2SDUuODMzek01LjgzMyAxNi43Mmg0LjY0OHYuOTUzSDUuODMzeiIgZmlsbD0iI0RDRTlGNyIvPjxwYXRoIGQ9Ik01LjIgMjAuNjQyaDI1Ljc1MXYzLjEyMUg1LjJ6TTUuMiAyNC41NTdoMjUuNzUxdjMuMTE2SDUuMnoiIGZpbGw9IiMyMzZBOEUiLz48cGF0aCBkPSJNNS44MzMgMjEuODQxaDQuNjQ4di45NTZINS44MzN6TTUuODMzIDI1LjY4N2g0LjY0OHYuOTUzSDUuODMzeiIgZmlsbD0iI0RDRTlGNyIvPjxwYXRoIGQ9Ik01LjIgMzEuMjc3aDI1Ljc1MXYzLjExNEg1LjJ6TTUuMiAzNS4yMDFoMjUuNzUxdjMuMTE5SDUuMnoiIGZpbGw9IiMyMzZBOEUiLz48cGF0aCBkPSJNNS44MzMgMzIuNDgzaDQuNjQ4di45NTdINS44MzN6TTUuODMzIDM2LjMxOGg0LjY0OHYuOTY0SDUuODMzeiIgZmlsbD0iI0RDRTlGNyIvPjxwYXRoIG9wYWNpdHk9Ii42MiIgZD0iTTMxLjY3NSA3Mi45NThjLjczNCAwIDEuMzU4LjYwNCAxLjM1OCAxLjM2NyAwIC43NDQtLjYyNCAxLjM0OS0xLjM1OCAxLjM0OS0uNzM4IDAtMS4zNjMtLjYwNC0xLjM2My0xLjM0OWExLjM3IDEuMzcgMCAwIDEgMS4zNjMtMS4zNjciIGZpbGw9IiNGRjQ2NkEiLz48cGF0aCBvcGFjaXR5PSIuNjIiIGQ9Ik0yNi42MjkgNzIuOTU4Yy43NTkgMCAxLjM2NC42MDQgMS4zNjQgMS4zNjcgMCAuNzQ0LS42MDUgMS4zNDktMS4zNjQgMS4zNDlhMS4zNSAxLjM1IDAgMCAxLTEuMzUyLTEuMzQ5YzAtLjc2Mi42MDYtMS4zNjcgMS4zNTItMS4zNjciIGZpbGw9IiM0M0QxOTAiLz48ZyBmaWxsPSIjMDQxMzIzIj48cGF0aCBkPSJNMi43MTYgNTIuMjMzaDEuMzZ2MTYuNDA1aC0xLjM2ek00Ljk1OSA1Mi4yMzNoMS4zNTh2MTYuNDA1SDQuOTU5ek03LjEyMiA1Mi4yMzNIOC40OHYxNi40MDVINy4xMjJ6TTkuMzUzIDUyLjIzM2gxLjM2M3YxNi40MDVIOS4zNTN6TTExLjUxNyA1Mi4yMzNoMS4zNTh2MTYuNDA1aC0xLjM1OHpNMTMuNzYgNTIuMjMzaDEuMzU4djE2LjQwNUgxMy43NnpNMTUuOTExIDUyLjIzM2gxLjM2NnYxNi40MDVoLTEuMzY2ek0xOC4xNTYgNTIuMjMzaDEuMzc2djE2LjQwNWgtMS4zNzZ6TTIwLjM4IDUyLjIzM2gxLjM3N3YxNi40MDVIMjAuMzh6TTIyLjU2MiA1Mi4yMzNoMS4zNDl2MTYuNDA1aC0xLjM0OXpNMjQuNzk1IDUyLjIzM2gxLjM2NXYxNi40MDVoLTEuMzY1ek0yNi45NDEgNTIuMjMzaDEuMzc0djE2LjQwNWgtMS4zNzR6TTI5LjIgNTIuMjMzaDEuMzQ5djE2LjQwNUgyOS4yek0zMS40MzQgNTIuMjMzaDEuMzc4djE2LjQwNWgtMS4zNzh6Ii8+PC9nPjwvc3ZnPg==;strokeColor=none;strokeWidth=0;points=[];labelBackgroundColor=none;rounded=0;html=1;whiteSpace=wrap;" vertex="1" parent="1">
            <mxGeometry x="1214" y="704" width="36" height="80" as="geometry" />
          </mxCell>
        </UserObject>
        <UserObject label="&lt;div style=&quot;font-size: 1px&quot;&gt;&lt;p style=&quot;text-align:center;margin-left:0;margin-right:0;margin-top:0px;margin-bottom:0px;text-indent:0;vertical-align:middle;direction:ltr;&quot;&gt;&lt;font style=&quot;font-size:12px;font-family:0;color:#323232;direction:ltr;letter-spacing:0px;line-height:120%;opacity:1&quot;&gt;敏捷分析&lt;/font&gt;&lt;font style=&quot;font-size:12px;font-family:0;color:#000000;direction:ltr;letter-spacing:0px;line-height:120%;opacity:1&quot;&gt;服务&lt;/font&gt;&lt;/p&gt;&lt;/div&gt;" tags="Background" id="jLg2OHhgH8_k0mDhG_3J-22">
          <mxCell style="verticalAlign=middle;align=center;overflow=width;vsdxID=22;fillColor=none;gradientColor=none;image;aspect=fixed;image=data:image/svg+xml,PHN2ZyB4bWxucz0iaHR0cDovL3d3dy53My5vcmcvMjAwMC9zdmciIGhlaWdodD0iODAuMDAwMTk4MzY0MjU3ODEiIHdpZHRoPSIzNi4wMDAyMDk4MDgzNDk2MSIgeG1sOnNwYWNlPSJwcmVzZXJ2ZSIgdmlld0JveD0iLTAuMDAwMTQ3MDQ5Nzk1NDg2OTY0MjkgLTAuMDAwMTI3MzU0MjAwMjMwOTExMzcgMzYuMDAwMjA5ODA4MzQ5NjEgODAuMDAwMTk4MzY0MjU3ODEiPjxwYXRoIGQ9Ik0zMy4yNzkgODBIMi43MTZBMi42OTcgMi42OTcgMCAwIDEgMCA3Ny4yODNWMi43MThBMi42OSAyLjY5IDAgMCAxIDIuNzE2IDBoMzAuNTYzQTIuNyAyLjcgMCAwIDEgMzYgMi43MTh2NzQuNTY1QzM2IDc4LjcwNSAzNC43OTMgODAgMzMuMjc5IDgwIiBmaWxsPSIjMUUzOTQ3Ii8+PHBhdGggZD0iTS4wODEgNi4zOThIMzZ2Ljg4NEguMDgxek0uMDgxIDY5LjUxOGgzNS45MTh2Ljg4NEguMDgxeiIgZmlsbD0iI0RDRTlGNyIvPjxwYXRoIGQ9Ik0wIDUxLjEyNmgzNnYuNDgxSDB6IiBmaWxsPSIjMUE2Njg0Ii8+PHBhdGggZD0iTTUuMiAxMS42OGgyNS43NTF2My4xMTlINS4yek01LjIgMTUuNjA4aDI1Ljc1MXYzLjExNEg1LjJ6IiBmaWxsPSIjMjM2QThFIi8+PHBhdGggZD0iTTUuODMzIDEyLjg3N2g0LjY0OHYuOTY2SDUuODMzek01LjgzMyAxNi43Mmg0LjY0OHYuOTUzSDUuODMzeiIgZmlsbD0iI0RDRTlGNyIvPjxwYXRoIGQ9Ik01LjIgMjAuNjQyaDI1Ljc1MXYzLjEyMUg1LjJ6TTUuMiAyNC41NTdoMjUuNzUxdjMuMTE2SDUuMnoiIGZpbGw9IiMyMzZBOEUiLz48cGF0aCBkPSJNNS44MzMgMjEuODQxaDQuNjQ4di45NTZINS44MzN6TTUuODMzIDI1LjY4N2g0LjY0OHYuOTUzSDUuODMzeiIgZmlsbD0iI0RDRTlGNyIvPjxwYXRoIGQ9Ik01LjIgMzEuMjc3aDI1Ljc1MXYzLjExNEg1LjJ6TTUuMiAzNS4yMDFoMjUuNzUxdjMuMTE5SDUuMnoiIGZpbGw9IiMyMzZBOEUiLz48cGF0aCBkPSJNNS44MzMgMzIuNDgzaDQuNjQ4di45NTdINS44MzN6TTUuODMzIDM2LjMxOGg0LjY0OHYuOTY0SDUuODMzeiIgZmlsbD0iI0RDRTlGNyIvPjxwYXRoIG9wYWNpdHk9Ii42MiIgZD0iTTMxLjY3NSA3Mi45NThjLjczNCAwIDEuMzU4LjYwNCAxLjM1OCAxLjM2NyAwIC43NDQtLjYyNCAxLjM0OS0xLjM1OCAxLjM0OS0uNzM4IDAtMS4zNjMtLjYwNC0xLjM2My0xLjM0OWExLjM3IDEuMzcgMCAwIDEgMS4zNjMtMS4zNjciIGZpbGw9IiNGRjQ2NkEiLz48cGF0aCBvcGFjaXR5PSIuNjIiIGQ9Ik0yNi42MjkgNzIuOTU4Yy43NTkgMCAxLjM2NC42MDQgMS4zNjQgMS4zNjcgMCAuNzQ0LS42MDUgMS4zNDktMS4zNjQgMS4zNDlhMS4zNSAxLjM1IDAgMCAxLTEuMzUyLTEuMzQ5YzAtLjc2Mi42MDYtMS4zNjcgMS4zNTItMS4zNjciIGZpbGw9IiM0M0QxOTAiLz48ZyBmaWxsPSIjMDQxMzIzIj48cGF0aCBkPSJNMi43MTYgNTIuMjMzaDEuMzZ2MTYuNDA1aC0xLjM2ek00Ljk1OSA1Mi4yMzNoMS4zNTh2MTYuNDA1SDQuOTU5ek03LjEyMiA1Mi4yMzNIOC40OHYxNi40MDVINy4xMjJ6TTkuMzUzIDUyLjIzM2gxLjM2M3YxNi40MDVIOS4zNTN6TTExLjUxNyA1Mi4yMzNoMS4zNTh2MTYuNDA1aC0xLjM1OHpNMTMuNzYgNTIuMjMzaDEuMzU4djE2LjQwNUgxMy43NnpNMTUuOTExIDUyLjIzM2gxLjM2NnYxNi40MDVoLTEuMzY2ek0xOC4xNTYgNTIuMjMzaDEuMzc2djE2LjQwNWgtMS4zNzZ6TTIwLjM4IDUyLjIzM2gxLjM3N3YxNi40MDVIMjAuMzh6TTIyLjU2MiA1Mi4yMzNoMS4zNDl2MTYuNDA1aC0xLjM0OXpNMjQuNzk1IDUyLjIzM2gxLjM2NXYxNi40MDVoLTEuMzY1ek0yNi45NDEgNTIuMjMzaDEuMzc0djE2LjQwNWgtMS4zNzR6TTI5LjIgNTIuMjMzaDEuMzQ5djE2LjQwNUgyOS4yek0zMS40MzQgNTIuMjMzaDEuMzc4djE2LjQwNWgtMS4zNzh6Ii8+PC9nPjwvc3ZnPg==;strokeColor=none;strokeWidth=0;points=[];labelBackgroundColor=none;rounded=0;html=1;whiteSpace=wrap;" vertex="1" parent="1">
            <mxGeometry x="653" y="841" width="36" height="80" as="geometry" />
          </mxCell>
        </UserObject>
        <UserObject label="&lt;div style=&quot;font-size: 1px&quot;&gt;&lt;p style=&quot;text-align:center;margin-left:0;margin-right:0;margin-top:0px;margin-bottom:0px;text-indent:0;vertical-align:middle;direction:ltr;&quot;&gt;&lt;font style=&quot;font-size:12px;font-family:0;color:#000000;direction:ltr;letter-spacing:0px;line-height:120%;opacity:1&quot;&gt;指标库服务&lt;/font&gt;&lt;/p&gt;&lt;/div&gt;" tags="Background" id="jLg2OHhgH8_k0mDhG_3J-23">
          <mxCell style="verticalAlign=middle;align=center;overflow=width;vsdxID=23;fillColor=none;gradientColor=none;image;aspect=fixed;image=data:image/svg+xml,PHN2ZyB4bWxucz0iaHR0cDovL3d3dy53My5vcmcvMjAwMC9zdmciIGhlaWdodD0iODAuMDAwMTk4MzY0MjU3ODEiIHdpZHRoPSIzNi4wMDAyMDk4MDgzNDk2MSIgeG1sOnNwYWNlPSJwcmVzZXJ2ZSIgdmlld0JveD0iLTAuMDAwMTQ3MDQ5Nzk1NDg2OTY0MjkgLTAuMDAwMTI3MzU0MjAwMjMwOTExMzcgMzYuMDAwMjA5ODA4MzQ5NjEgODAuMDAwMTk4MzY0MjU3ODEiPjxwYXRoIGQ9Ik0zMy4yNzkgODBIMi43MTZBMi42OTcgMi42OTcgMCAwIDEgMCA3Ny4yODNWMi43MThBMi42OSAyLjY5IDAgMCAxIDIuNzE2IDBoMzAuNTYzQTIuNyAyLjcgMCAwIDEgMzYgMi43MTh2NzQuNTY1QzM2IDc4LjcwNSAzNC43OTMgODAgMzMuMjc5IDgwIiBmaWxsPSIjMUUzOTQ3Ii8+PHBhdGggZD0iTS4wODEgNi4zOThIMzZ2Ljg4NEguMDgxek0uMDgxIDY5LjUxOGgzNS45MTh2Ljg4NEguMDgxeiIgZmlsbD0iI0RDRTlGNyIvPjxwYXRoIGQ9Ik0wIDUxLjEyNmgzNnYuNDgxSDB6IiBmaWxsPSIjMUE2Njg0Ii8+PHBhdGggZD0iTTUuMiAxMS42OGgyNS43NTF2My4xMTlINS4yek01LjIgMTUuNjA4aDI1Ljc1MXYzLjExNEg1LjJ6IiBmaWxsPSIjMjM2QThFIi8+PHBhdGggZD0iTTUuODMzIDEyLjg3N2g0LjY0OHYuOTY2SDUuODMzek01LjgzMyAxNi43Mmg0LjY0OHYuOTUzSDUuODMzeiIgZmlsbD0iI0RDRTlGNyIvPjxwYXRoIGQ9Ik01LjIgMjAuNjQyaDI1Ljc1MXYzLjEyMUg1LjJ6TTUuMiAyNC41NTdoMjUuNzUxdjMuMTE2SDUuMnoiIGZpbGw9IiMyMzZBOEUiLz48cGF0aCBkPSJNNS44MzMgMjEuODQxaDQuNjQ4di45NTZINS44MzN6TTUuODMzIDI1LjY4N2g0LjY0OHYuOTUzSDUuODMzeiIgZmlsbD0iI0RDRTlGNyIvPjxwYXRoIGQ9Ik01LjIgMzEuMjc3aDI1Ljc1MXYzLjExNEg1LjJ6TTUuMiAzNS4yMDFoMjUuNzUxdjMuMTE5SDUuMnoiIGZpbGw9IiMyMzZBOEUiLz48cGF0aCBkPSJNNS44MzMgMzIuNDgzaDQuNjQ4di45NTdINS44MzN6TTUuODMzIDM2LjMxOGg0LjY0OHYuOTY0SDUuODMzeiIgZmlsbD0iI0RDRTlGNyIvPjxwYXRoIG9wYWNpdHk9Ii42MiIgZD0iTTMxLjY3NSA3Mi45NThjLjczNCAwIDEuMzU4LjYwNCAxLjM1OCAxLjM2NyAwIC43NDQtLjYyNCAxLjM0OS0xLjM1OCAxLjM0OS0uNzM4IDAtMS4zNjMtLjYwNC0xLjM2My0xLjM0OWExLjM3IDEuMzcgMCAwIDEgMS4zNjMtMS4zNjciIGZpbGw9IiNGRjQ2NkEiLz48cGF0aCBvcGFjaXR5PSIuNjIiIGQ9Ik0yNi42MjkgNzIuOTU4Yy43NTkgMCAxLjM2NC42MDQgMS4zNjQgMS4zNjcgMCAuNzQ0LS42MDUgMS4zNDktMS4zNjQgMS4zNDlhMS4zNSAxLjM1IDAgMCAxLTEuMzUyLTEuMzQ5YzAtLjc2Mi42MDYtMS4zNjcgMS4zNTItMS4zNjciIGZpbGw9IiM0M0QxOTAiLz48ZyBmaWxsPSIjMDQxMzIzIj48cGF0aCBkPSJNMi43MTYgNTIuMjMzaDEuMzZ2MTYuNDA1aC0xLjM2ek00Ljk1OSA1Mi4yMzNoMS4zNTh2MTYuNDA1SDQuOTU5ek03LjEyMiA1Mi4yMzNIOC40OHYxNi40MDVINy4xMjJ6TTkuMzUzIDUyLjIzM2gxLjM2M3YxNi40MDVIOS4zNTN6TTExLjUxNyA1Mi4yMzNoMS4zNTh2MTYuNDA1aC0xLjM1OHpNMTMuNzYgNTIuMjMzaDEuMzU4djE2LjQwNUgxMy43NnpNMTUuOTExIDUyLjIzM2gxLjM2NnYxNi40MDVoLTEuMzY2ek0xOC4xNTYgNTIuMjMzaDEuMzc2djE2LjQwNWgtMS4zNzZ6TTIwLjM4IDUyLjIzM2gxLjM3N3YxNi40MDVIMjAuMzh6TTIyLjU2MiA1Mi4yMzNoMS4zNDl2MTYuNDA1aC0xLjM0OXpNMjQuNzk1IDUyLjIzM2gxLjM2NXYxNi40MDVoLTEuMzY1ek0yNi45NDEgNTIuMjMzaDEuMzc0djE2LjQwNWgtMS4zNzR6TTI5LjIgNTIuMjMzaDEuMzQ5djE2LjQwNUgyOS4yek0zMS40MzQgNTIuMjMzaDEuMzc4djE2LjQwNWgtMS4zNzh6Ii8+PC9nPjwvc3ZnPg==;strokeColor=none;strokeWidth=0;points=[];labelBackgroundColor=none;rounded=0;html=1;whiteSpace=wrap;" vertex="1" parent="1">
            <mxGeometry x="506" y="841" width="36" height="80" as="geometry" />
          </mxCell>
        </UserObject>
        <UserObject label="&lt;div style=&quot;font-size: 1px&quot;&gt;&lt;p style=&quot;text-align:center;margin-left:0;margin-right:0;margin-top:0px;margin-bottom:0px;text-indent:0;vertical-align:middle;direction:ltr;&quot;&gt;&lt;font style=&quot;font-size:12px;font-family:0;color:#000000;direction:ltr;letter-spacing:0px;line-height:120%;opacity:1&quot;&gt;数据管理服务&lt;/font&gt;&lt;/p&gt;&lt;/div&gt;" tags="Background" id="jLg2OHhgH8_k0mDhG_3J-24">
          <mxCell style="verticalAlign=middle;align=center;overflow=width;vsdxID=24;fillColor=none;gradientColor=none;image;aspect=fixed;image=data:image/svg+xml,PHN2ZyB4bWxucz0iaHR0cDovL3d3dy53My5vcmcvMjAwMC9zdmciIGhlaWdodD0iODAuMDAwMTk4MzY0MjU3ODEiIHdpZHRoPSIzNi4wMDAyMDk4MDgzNDk2MSIgeG1sOnNwYWNlPSJwcmVzZXJ2ZSIgdmlld0JveD0iLTAuMDAwMTQ3MDQ5Nzk1NDg2OTY0MjkgLTAuMDAwMTI3MzU0MjAwMjMwOTExMzcgMzYuMDAwMjA5ODA4MzQ5NjEgODAuMDAwMTk4MzY0MjU3ODEiPjxwYXRoIGQ9Ik0zMy4yNzkgODBIMi43MTZBMi42OTcgMi42OTcgMCAwIDEgMCA3Ny4yODNWMi43MThBMi42OSAyLjY5IDAgMCAxIDIuNzE2IDBoMzAuNTYzQTIuNyAyLjcgMCAwIDEgMzYgMi43MTh2NzQuNTY1QzM2IDc4LjcwNSAzNC43OTMgODAgMzMuMjc5IDgwIiBmaWxsPSIjMUUzOTQ3Ii8+PHBhdGggZD0iTS4wODEgNi4zOThIMzZ2Ljg4NEguMDgxek0uMDgxIDY5LjUxOGgzNS45MTh2Ljg4NEguMDgxeiIgZmlsbD0iI0RDRTlGNyIvPjxwYXRoIGQ9Ik0wIDUxLjEyNmgzNnYuNDgxSDB6IiBmaWxsPSIjMUE2Njg0Ii8+PHBhdGggZD0iTTUuMiAxMS42OGgyNS43NTF2My4xMTlINS4yek01LjIgMTUuNjA4aDI1Ljc1MXYzLjExNEg1LjJ6IiBmaWxsPSIjMjM2QThFIi8+PHBhdGggZD0iTTUuODMzIDEyLjg3N2g0LjY0OHYuOTY2SDUuODMzek01LjgzMyAxNi43Mmg0LjY0OHYuOTUzSDUuODMzeiIgZmlsbD0iI0RDRTlGNyIvPjxwYXRoIGQ9Ik01LjIgMjAuNjQyaDI1Ljc1MXYzLjEyMUg1LjJ6TTUuMiAyNC41NTdoMjUuNzUxdjMuMTE2SDUuMnoiIGZpbGw9IiMyMzZBOEUiLz48cGF0aCBkPSJNNS44MzMgMjEuODQxaDQuNjQ4di45NTZINS44MzN6TTUuODMzIDI1LjY4N2g0LjY0OHYuOTUzSDUuODMzeiIgZmlsbD0iI0RDRTlGNyIvPjxwYXRoIGQ9Ik01LjIgMzEuMjc3aDI1Ljc1MXYzLjExNEg1LjJ6TTUuMiAzNS4yMDFoMjUuNzUxdjMuMTE5SDUuMnoiIGZpbGw9IiMyMzZBOEUiLz48cGF0aCBkPSJNNS44MzMgMzIuNDgzaDQuNjQ4di45NTdINS44MzN6TTUuODMzIDM2LjMxOGg0LjY0OHYuOTY0SDUuODMzeiIgZmlsbD0iI0RDRTlGNyIvPjxwYXRoIG9wYWNpdHk9Ii42MiIgZD0iTTMxLjY3NSA3Mi45NThjLjczNCAwIDEuMzU4LjYwNCAxLjM1OCAxLjM2NyAwIC43NDQtLjYyNCAxLjM0OS0xLjM1OCAxLjM0OS0uNzM4IDAtMS4zNjMtLjYwNC0xLjM2My0xLjM0OWExLjM3IDEuMzcgMCAwIDEgMS4zNjMtMS4zNjciIGZpbGw9IiNGRjQ2NkEiLz48cGF0aCBvcGFjaXR5PSIuNjIiIGQ9Ik0yNi42MjkgNzIuOTU4Yy43NTkgMCAxLjM2NC42MDQgMS4zNjQgMS4zNjcgMCAuNzQ0LS42MDUgMS4zNDktMS4zNjQgMS4zNDlhMS4zNSAxLjM1IDAgMCAxLTEuMzUyLTEuMzQ5YzAtLjc2Mi42MDYtMS4zNjcgMS4zNTItMS4zNjciIGZpbGw9IiM0M0QxOTAiLz48ZyBmaWxsPSIjMDQxMzIzIj48cGF0aCBkPSJNMi43MTYgNTIuMjMzaDEuMzZ2MTYuNDA1aC0xLjM2ek00Ljk1OSA1Mi4yMzNoMS4zNTh2MTYuNDA1SDQuOTU5ek03LjEyMiA1Mi4yMzNIOC40OHYxNi40MDVINy4xMjJ6TTkuMzUzIDUyLjIzM2gxLjM2M3YxNi40MDVIOS4zNTN6TTExLjUxNyA1Mi4yMzNoMS4zNTh2MTYuNDA1aC0xLjM1OHpNMTMuNzYgNTIuMjMzaDEuMzU4djE2LjQwNUgxMy43NnpNMTUuOTExIDUyLjIzM2gxLjM2NnYxNi40MDVoLTEuMzY2ek0xOC4xNTYgNTIuMjMzaDEuMzc2djE2LjQwNWgtMS4zNzZ6TTIwLjM4IDUyLjIzM2gxLjM3N3YxNi40MDVIMjAuMzh6TTIyLjU2MiA1Mi4yMzNoMS4zNDl2MTYuNDA1aC0xLjM0OXpNMjQuNzk1IDUyLjIzM2gxLjM2NXYxNi40MDVoLTEuMzY1ek0yNi45NDEgNTIuMjMzaDEuMzc0djE2LjQwNWgtMS4zNzR6TTI5LjIgNTIuMjMzaDEuMzQ5djE2LjQwNUgyOS4yek0zMS40MzQgNTIuMjMzaDEuMzc4djE2LjQwNWgtMS4zNzh6Ii8+PC9nPjwvc3ZnPg==;strokeColor=none;strokeWidth=0;points=[];labelBackgroundColor=none;rounded=0;html=1;whiteSpace=wrap;" vertex="1" parent="1">
            <mxGeometry x="506" y="976" width="36" height="80" as="geometry" />
          </mxCell>
        </UserObject>
        <UserObject label="&lt;div style=&quot;font-size: 1px&quot;&gt;&lt;p style=&quot;text-align:center;margin-left:0;margin-right:0;margin-top:0px;margin-bottom:0px;text-indent:0;vertical-align:middle;direction:ltr;&quot;&gt;&lt;font style=&quot;font-size:12px;font-family:0;color:#000000;direction:ltr;letter-spacing:0px;line-height:120%;opacity:1&quot;&gt;制图制表服务&lt;/font&gt;&lt;/p&gt;&lt;/div&gt;" tags="Background" id="jLg2OHhgH8_k0mDhG_3J-25">
          <mxCell style="verticalAlign=middle;align=center;overflow=width;vsdxID=25;fillColor=none;gradientColor=none;image;aspect=fixed;image=data:image/svg+xml,PHN2ZyB4bWxucz0iaHR0cDovL3d3dy53My5vcmcvMjAwMC9zdmciIGhlaWdodD0iODAuMDAwMTk4MzY0MjU3ODEiIHdpZHRoPSIzNi4wMDAyMDk4MDgzNDk2MSIgeG1sOnNwYWNlPSJwcmVzZXJ2ZSIgdmlld0JveD0iLTAuMDAwMTQ3MDQ5Nzk1NDg2OTY0MjkgLTAuMDAwMTI3MzU0MjAwMjMwOTExMzcgMzYuMDAwMjA5ODA4MzQ5NjEgODAuMDAwMTk4MzY0MjU3ODEiPjxwYXRoIGQ9Ik0zMy4yNzkgODBIMi43MTZBMi42OTcgMi42OTcgMCAwIDEgMCA3Ny4yODNWMi43MThBMi42OSAyLjY5IDAgMCAxIDIuNzE2IDBoMzAuNTYzQTIuNyAyLjcgMCAwIDEgMzYgMi43MTh2NzQuNTY1QzM2IDc4LjcwNSAzNC43OTMgODAgMzMuMjc5IDgwIiBmaWxsPSIjMUUzOTQ3Ii8+PHBhdGggZD0iTS4wODEgNi4zOThIMzZ2Ljg4NEguMDgxek0uMDgxIDY5LjUxOGgzNS45MTh2Ljg4NEguMDgxeiIgZmlsbD0iI0RDRTlGNyIvPjxwYXRoIGQ9Ik0wIDUxLjEyNmgzNnYuNDgxSDB6IiBmaWxsPSIjMUE2Njg0Ii8+PHBhdGggZD0iTTUuMiAxMS42OGgyNS43NTF2My4xMTlINS4yek01LjIgMTUuNjA4aDI1Ljc1MXYzLjExNEg1LjJ6IiBmaWxsPSIjMjM2QThFIi8+PHBhdGggZD0iTTUuODMzIDEyLjg3N2g0LjY0OHYuOTY2SDUuODMzek01LjgzMyAxNi43Mmg0LjY0OHYuOTUzSDUuODMzeiIgZmlsbD0iI0RDRTlGNyIvPjxwYXRoIGQ9Ik01LjIgMjAuNjQyaDI1Ljc1MXYzLjEyMUg1LjJ6TTUuMiAyNC41NTdoMjUuNzUxdjMuMTE2SDUuMnoiIGZpbGw9IiMyMzZBOEUiLz48cGF0aCBkPSJNNS44MzMgMjEuODQxaDQuNjQ4di45NTZINS44MzN6TTUuODMzIDI1LjY4N2g0LjY0OHYuOTUzSDUuODMzeiIgZmlsbD0iI0RDRTlGNyIvPjxwYXRoIGQ9Ik01LjIgMzEuMjc3aDI1Ljc1MXYzLjExNEg1LjJ6TTUuMiAzNS4yMDFoMjUuNzUxdjMuMTE5SDUuMnoiIGZpbGw9IiMyMzZBOEUiLz48cGF0aCBkPSJNNS44MzMgMzIuNDgzaDQuNjQ4di45NTdINS44MzN6TTUuODMzIDM2LjMxOGg0LjY0OHYuOTY0SDUuODMzeiIgZmlsbD0iI0RDRTlGNyIvPjxwYXRoIG9wYWNpdHk9Ii42MiIgZD0iTTMxLjY3NSA3Mi45NThjLjczNCAwIDEuMzU4LjYwNCAxLjM1OCAxLjM2NyAwIC43NDQtLjYyNCAxLjM0OS0xLjM1OCAxLjM0OS0uNzM4IDAtMS4zNjMtLjYwNC0xLjM2My0xLjM0OWExLjM3IDEuMzcgMCAwIDEgMS4zNjMtMS4zNjciIGZpbGw9IiNGRjQ2NkEiLz48cGF0aCBvcGFjaXR5PSIuNjIiIGQ9Ik0yNi42MjkgNzIuOTU4Yy43NTkgMCAxLjM2NC42MDQgMS4zNjQgMS4zNjcgMCAuNzQ0LS42MDUgMS4zNDktMS4zNjQgMS4zNDlhMS4zNSAxLjM1IDAgMCAxLTEuMzUyLTEuMzQ5YzAtLjc2Mi42MDYtMS4zNjcgMS4zNTItMS4zNjciIGZpbGw9IiM0M0QxOTAiLz48ZyBmaWxsPSIjMDQxMzIzIj48cGF0aCBkPSJNMi43MTYgNTIuMjMzaDEuMzZ2MTYuNDA1aC0xLjM2ek00Ljk1OSA1Mi4yMzNoMS4zNTh2MTYuNDA1SDQuOTU5ek03LjEyMiA1Mi4yMzNIOC40OHYxNi40MDVINy4xMjJ6TTkuMzUzIDUyLjIzM2gxLjM2M3YxNi40MDVIOS4zNTN6TTExLjUxNyA1Mi4yMzNoMS4zNTh2MTYuNDA1aC0xLjM1OHpNMTMuNzYgNTIuMjMzaDEuMzU4djE2LjQwNUgxMy43NnpNMTUuOTExIDUyLjIzM2gxLjM2NnYxNi40MDVoLTEuMzY2ek0xOC4xNTYgNTIuMjMzaDEuMzc2djE2LjQwNWgtMS4zNzZ6TTIwLjM4IDUyLjIzM2gxLjM3N3YxNi40MDVIMjAuMzh6TTIyLjU2MiA1Mi4yMzNoMS4zNDl2MTYuNDA1aC0xLjM0OXpNMjQuNzk1IDUyLjIzM2gxLjM2NXYxNi40MDVoLTEuMzY1ek0yNi45NDEgNTIuMjMzaDEuMzc0djE2LjQwNWgtMS4zNzR6TTI5LjIgNTIuMjMzaDEuMzQ5djE2LjQwNUgyOS4yek0zMS40MzQgNTIuMjMzaDEuMzc4djE2LjQwNWgtMS4zNzh6Ii8+PC9nPjwvc3ZnPg==;strokeColor=none;strokeWidth=0;points=[];labelBackgroundColor=none;rounded=0;html=1;whiteSpace=wrap;" vertex="1" parent="1">
            <mxGeometry x="800" y="841" width="36" height="80" as="geometry" />
          </mxCell>
        </UserObject>
        <UserObject label="&lt;div style=&quot;font-size: 1px&quot;&gt;&lt;p style=&quot;text-align:center;margin-left:0;margin-right:0;margin-top:0px;margin-bottom:0px;text-indent:0;vertical-align:middle;direction:ltr;&quot;&gt;&lt;font style=&quot;font-size:12px;font-family:0;color:#000000;direction:ltr;letter-spacing:0px;line-height:120%;opacity:1&quot;&gt;制作报告服务&lt;/font&gt;&lt;/p&gt;&lt;/div&gt;" tags="Background" id="jLg2OHhgH8_k0mDhG_3J-26">
          <mxCell style="verticalAlign=middle;align=center;overflow=width;vsdxID=26;fillColor=none;gradientColor=none;image;aspect=fixed;image=data:image/svg+xml,PHN2ZyB4bWxucz0iaHR0cDovL3d3dy53My5vcmcvMjAwMC9zdmciIGhlaWdodD0iODAuMDAwMTk4MzY0MjU3ODEiIHdpZHRoPSIzNi4wMDAyMDk4MDgzNDk2MSIgeG1sOnNwYWNlPSJwcmVzZXJ2ZSIgdmlld0JveD0iLTAuMDAwMTQ3MDQ5Nzk1NDg2OTY0MjkgLTAuMDAwMTI3MzU0MjAwMjMwOTExMzcgMzYuMDAwMjA5ODA4MzQ5NjEgODAuMDAwMTk4MzY0MjU3ODEiPjxwYXRoIGQ9Ik0zMy4yNzkgODBIMi43MTZBMi42OTcgMi42OTcgMCAwIDEgMCA3Ny4yODNWMi43MThBMi42OSAyLjY5IDAgMCAxIDIuNzE2IDBoMzAuNTYzQTIuNyAyLjcgMCAwIDEgMzYgMi43MTh2NzQuNTY1QzM2IDc4LjcwNSAzNC43OTMgODAgMzMuMjc5IDgwIiBmaWxsPSIjMUUzOTQ3Ii8+PHBhdGggZD0iTS4wODEgNi4zOThIMzZ2Ljg4NEguMDgxek0uMDgxIDY5LjUxOGgzNS45MTh2Ljg4NEguMDgxeiIgZmlsbD0iI0RDRTlGNyIvPjxwYXRoIGQ9Ik0wIDUxLjEyNmgzNnYuNDgxSDB6IiBmaWxsPSIjMUE2Njg0Ii8+PHBhdGggZD0iTTUuMiAxMS42OGgyNS43NTF2My4xMTlINS4yek01LjIgMTUuNjA4aDI1Ljc1MXYzLjExNEg1LjJ6IiBmaWxsPSIjMjM2QThFIi8+PHBhdGggZD0iTTUuODMzIDEyLjg3N2g0LjY0OHYuOTY2SDUuODMzek01LjgzMyAxNi43Mmg0LjY0OHYuOTUzSDUuODMzeiIgZmlsbD0iI0RDRTlGNyIvPjxwYXRoIGQ9Ik01LjIgMjAuNjQyaDI1Ljc1MXYzLjEyMUg1LjJ6TTUuMiAyNC41NTdoMjUuNzUxdjMuMTE2SDUuMnoiIGZpbGw9IiMyMzZBOEUiLz48cGF0aCBkPSJNNS44MzMgMjEuODQxaDQuNjQ4di45NTZINS44MzN6TTUuODMzIDI1LjY4N2g0LjY0OHYuOTUzSDUuODMzeiIgZmlsbD0iI0RDRTlGNyIvPjxwYXRoIGQ9Ik01LjIgMzEuMjc3aDI1Ljc1MXYzLjExNEg1LjJ6TTUuMiAzNS4yMDFoMjUuNzUxdjMuMTE5SDUuMnoiIGZpbGw9IiMyMzZBOEUiLz48cGF0aCBkPSJNNS44MzMgMzIuNDgzaDQuNjQ4di45NTdINS44MzN6TTUuODMzIDM2LjMxOGg0LjY0OHYuOTY0SDUuODMzeiIgZmlsbD0iI0RDRTlGNyIvPjxwYXRoIG9wYWNpdHk9Ii42MiIgZD0iTTMxLjY3NSA3Mi45NThjLjczNCAwIDEuMzU4LjYwNCAxLjM1OCAxLjM2NyAwIC43NDQtLjYyNCAxLjM0OS0xLjM1OCAxLjM0OS0uNzM4IDAtMS4zNjMtLjYwNC0xLjM2My0xLjM0OWExLjM3IDEuMzcgMCAwIDEgMS4zNjMtMS4zNjciIGZpbGw9IiNGRjQ2NkEiLz48cGF0aCBvcGFjaXR5PSIuNjIiIGQ9Ik0yNi42MjkgNzIuOTU4Yy43NTkgMCAxLjM2NC42MDQgMS4zNjQgMS4zNjcgMCAuNzQ0LS42MDUgMS4zNDktMS4zNjQgMS4zNDlhMS4zNSAxLjM1IDAgMCAxLTEuMzUyLTEuMzQ5YzAtLjc2Mi42MDYtMS4zNjcgMS4zNTItMS4zNjciIGZpbGw9IiM0M0QxOTAiLz48ZyBmaWxsPSIjMDQxMzIzIj48cGF0aCBkPSJNMi43MTYgNTIuMjMzaDEuMzZ2MTYuNDA1aC0xLjM2ek00Ljk1OSA1Mi4yMzNoMS4zNTh2MTYuNDA1SDQuOTU5ek03LjEyMiA1Mi4yMzNIOC40OHYxNi40MDVINy4xMjJ6TTkuMzUzIDUyLjIzM2gxLjM2M3YxNi40MDVIOS4zNTN6TTExLjUxNyA1Mi4yMzNoMS4zNTh2MTYuNDA1aC0xLjM1OHpNMTMuNzYgNTIuMjMzaDEuMzU4djE2LjQwNUgxMy43NnpNMTUuOTExIDUyLjIzM2gxLjM2NnYxNi40MDVoLTEuMzY2ek0xOC4xNTYgNTIuMjMzaDEuMzc2djE2LjQwNWgtMS4zNzZ6TTIwLjM4IDUyLjIzM2gxLjM3N3YxNi40MDVIMjAuMzh6TTIyLjU2MiA1Mi4yMzNoMS4zNDl2MTYuNDA1aC0xLjM0OXpNMjQuNzk1IDUyLjIzM2gxLjM2NXYxNi40MDVoLTEuMzY1ek0yNi45NDEgNTIuMjMzaDEuMzc0djE2LjQwNWgtMS4zNzR6TTI5LjIgNTIuMjMzaDEuMzQ5djE2LjQwNUgyOS4yek0zMS40MzQgNTIuMjMzaDEuMzc4djE2LjQwNWgtMS4zNzh6Ii8+PC9nPjwvc3ZnPg==;strokeColor=none;strokeWidth=0;points=[];labelBackgroundColor=none;rounded=0;html=1;whiteSpace=wrap;" vertex="1" parent="1">
            <mxGeometry x="947" y="841" width="36" height="80" as="geometry" />
          </mxCell>
        </UserObject>
        <UserObject label="&lt;div style=&quot;font-size: 1px&quot;&gt;&lt;p style=&quot;text-align:center;margin-left:0;margin-right:0;margin-top:0px;margin-bottom:0px;text-indent:0;vertical-align:middle;direction:ltr;&quot;&gt;&lt;font style=&quot;font-size:12px;font-family:0;color:#000000;direction:ltr;letter-spacing:0px;line-height:120%;opacity:1&quot;&gt;文件服务&lt;/font&gt;&lt;/p&gt;&lt;/div&gt;" tags="Background" id="jLg2OHhgH8_k0mDhG_3J-27">
          <mxCell style="verticalAlign=middle;align=center;overflow=width;vsdxID=27;fillColor=none;gradientColor=none;image;aspect=fixed;image=data:image/svg+xml,PHN2ZyB4bWxucz0iaHR0cDovL3d3dy53My5vcmcvMjAwMC9zdmciIGhlaWdodD0iODAuMDAwMTk4MzY0MjU3ODEiIHdpZHRoPSIzNi4wMDAyMDk4MDgzNDk2MSIgeG1sOnNwYWNlPSJwcmVzZXJ2ZSIgdmlld0JveD0iLTAuMDAwMTQ3MDQ5Nzk1NDg2OTY0MjkgLTAuMDAwMTI3MzU0MjAwMjMwOTExMzcgMzYuMDAwMjA5ODA4MzQ5NjEgODAuMDAwMTk4MzY0MjU3ODEiPjxwYXRoIGQ9Ik0zMy4yNzkgODBIMi43MTZBMi42OTcgMi42OTcgMCAwIDEgMCA3Ny4yODNWMi43MThBMi42OSAyLjY5IDAgMCAxIDIuNzE2IDBoMzAuNTYzQTIuNyAyLjcgMCAwIDEgMzYgMi43MTh2NzQuNTY1QzM2IDc4LjcwNSAzNC43OTMgODAgMzMuMjc5IDgwIiBmaWxsPSIjMUUzOTQ3Ii8+PHBhdGggZD0iTS4wODEgNi4zOThIMzZ2Ljg4NEguMDgxek0uMDgxIDY5LjUxOGgzNS45MTh2Ljg4NEguMDgxeiIgZmlsbD0iI0RDRTlGNyIvPjxwYXRoIGQ9Ik0wIDUxLjEyNmgzNnYuNDgxSDB6IiBmaWxsPSIjMUE2Njg0Ii8+PHBhdGggZD0iTTUuMiAxMS42OGgyNS43NTF2My4xMTlINS4yek01LjIgMTUuNjA4aDI1Ljc1MXYzLjExNEg1LjJ6IiBmaWxsPSIjMjM2QThFIi8+PHBhdGggZD0iTTUuODMzIDEyLjg3N2g0LjY0OHYuOTY2SDUuODMzek01LjgzMyAxNi43Mmg0LjY0OHYuOTUzSDUuODMzeiIgZmlsbD0iI0RDRTlGNyIvPjxwYXRoIGQ9Ik01LjIgMjAuNjQyaDI1Ljc1MXYzLjEyMUg1LjJ6TTUuMiAyNC41NTdoMjUuNzUxdjMuMTE2SDUuMnoiIGZpbGw9IiMyMzZBOEUiLz48cGF0aCBkPSJNNS44MzMgMjEuODQxaDQuNjQ4di45NTZINS44MzN6TTUuODMzIDI1LjY4N2g0LjY0OHYuOTUzSDUuODMzeiIgZmlsbD0iI0RDRTlGNyIvPjxwYXRoIGQ9Ik01LjIgMzEuMjc3aDI1Ljc1MXYzLjExNEg1LjJ6TTUuMiAzNS4yMDFoMjUuNzUxdjMuMTE5SDUuMnoiIGZpbGw9IiMyMzZBOEUiLz48cGF0aCBkPSJNNS44MzMgMzIuNDgzaDQuNjQ4di45NTdINS44MzN6TTUuODMzIDM2LjMxOGg0LjY0OHYuOTY0SDUuODMzeiIgZmlsbD0iI0RDRTlGNyIvPjxwYXRoIG9wYWNpdHk9Ii42MiIgZD0iTTMxLjY3NSA3Mi45NThjLjczNCAwIDEuMzU4LjYwNCAxLjM1OCAxLjM2NyAwIC43NDQtLjYyNCAxLjM0OS0xLjM1OCAxLjM0OS0uNzM4IDAtMS4zNjMtLjYwNC0xLjM2My0xLjM0OWExLjM3IDEuMzcgMCAwIDEgMS4zNjMtMS4zNjciIGZpbGw9IiNGRjQ2NkEiLz48cGF0aCBvcGFjaXR5PSIuNjIiIGQ9Ik0yNi42MjkgNzIuOTU4Yy43NTkgMCAxLjM2NC42MDQgMS4zNjQgMS4zNjcgMCAuNzQ0LS42MDUgMS4zNDktMS4zNjQgMS4zNDlhMS4zNSAxLjM1IDAgMCAxLTEuMzUyLTEuMzQ5YzAtLjc2Mi42MDYtMS4zNjcgMS4zNTItMS4zNjciIGZpbGw9IiM0M0QxOTAiLz48ZyBmaWxsPSIjMDQxMzIzIj48cGF0aCBkPSJNMi43MTYgNTIuMjMzaDEuMzZ2MTYuNDA1aC0xLjM2ek00Ljk1OSA1Mi4yMzNoMS4zNTh2MTYuNDA1SDQuOTU5ek03LjEyMiA1Mi4yMzNIOC40OHYxNi40MDVINy4xMjJ6TTkuMzUzIDUyLjIzM2gxLjM2M3YxNi40MDVIOS4zNTN6TTExLjUxNyA1Mi4yMzNoMS4zNTh2MTYuNDA1aC0xLjM1OHpNMTMuNzYgNTIuMjMzaDEuMzU4djE2LjQwNUgxMy43NnpNMTUuOTExIDUyLjIzM2gxLjM2NnYxNi40MDVoLTEuMzY2ek0xOC4xNTYgNTIuMjMzaDEuMzc2djE2LjQwNWgtMS4zNzZ6TTIwLjM4IDUyLjIzM2gxLjM3N3YxNi40MDVIMjAuMzh6TTIyLjU2MiA1Mi4yMzNoMS4zNDl2MTYuNDA1aC0xLjM0OXpNMjQuNzk1IDUyLjIzM2gxLjM2NXYxNi40MDVoLTEuMzY1ek0yNi45NDEgNTIuMjMzaDEuMzc0djE2LjQwNWgtMS4zNzR6TTI5LjIgNTIuMjMzaDEuMzQ5djE2LjQwNUgyOS4yek0zMS40MzQgNTIuMjMzaDEuMzc4djE2LjQwNWgtMS4zNzh6Ii8+PC9nPjwvc3ZnPg==;strokeColor=none;strokeWidth=0;points=[];labelBackgroundColor=none;rounded=0;html=1;whiteSpace=wrap;" vertex="1" parent="1">
            <mxGeometry x="1214" y="1146" width="36" height="80" as="geometry" />
          </mxCell>
        </UserObject>
        <UserObject label="&lt;div style=&quot;font-size: 1px&quot;&gt;&lt;p style=&quot;text-align:center;margin-left:0;margin-right:0;margin-top:0px;margin-bottom:0px;text-indent:0;vertical-align:middle;direction:ltr;&quot;&gt;&lt;font style=&quot;font-size:12px;font-family:0;color:#000000;direction:ltr;letter-spacing:0px;line-height:120%;opacity:1&quot;&gt;共享服务&lt;/font&gt;&lt;/p&gt;&lt;/div&gt;" tags="Background" id="jLg2OHhgH8_k0mDhG_3J-28">
          <mxCell style="verticalAlign=middle;align=center;overflow=width;vsdxID=28;fillColor=none;gradientColor=none;image;aspect=fixed;image=data:image/svg+xml,PHN2ZyB4bWxucz0iaHR0cDovL3d3dy53My5vcmcvMjAwMC9zdmciIGhlaWdodD0iODAuMDAwMTk4MzY0MjU3ODEiIHdpZHRoPSIzNi4wMDAyMDk4MDgzNDk2MSIgeG1sOnNwYWNlPSJwcmVzZXJ2ZSIgdmlld0JveD0iLTAuMDAwMTQ3MDQ5Nzk1NDg2OTY0MjkgLTAuMDAwMTI3MzU0MjAwMjMwOTExMzcgMzYuMDAwMjA5ODA4MzQ5NjEgODAuMDAwMTk4MzY0MjU3ODEiPjxwYXRoIGQ9Ik0zMy4yNzkgODBIMi43MTZBMi42OTcgMi42OTcgMCAwIDEgMCA3Ny4yODNWMi43MThBMi42OSAyLjY5IDAgMCAxIDIuNzE2IDBoMzAuNTYzQTIuNyAyLjcgMCAwIDEgMzYgMi43MTh2NzQuNTY1QzM2IDc4LjcwNSAzNC43OTMgODAgMzMuMjc5IDgwIiBmaWxsPSIjMUUzOTQ3Ii8+PHBhdGggZD0iTS4wODEgNi4zOThIMzZ2Ljg4NEguMDgxek0uMDgxIDY5LjUxOGgzNS45MTh2Ljg4NEguMDgxeiIgZmlsbD0iI0RDRTlGNyIvPjxwYXRoIGQ9Ik0wIDUxLjEyNmgzNnYuNDgxSDB6IiBmaWxsPSIjMUE2Njg0Ii8+PHBhdGggZD0iTTUuMiAxMS42OGgyNS43NTF2My4xMTlINS4yek01LjIgMTUuNjA4aDI1Ljc1MXYzLjExNEg1LjJ6IiBmaWxsPSIjMjM2QThFIi8+PHBhdGggZD0iTTUuODMzIDEyLjg3N2g0LjY0OHYuOTY2SDUuODMzek01LjgzMyAxNi43Mmg0LjY0OHYuOTUzSDUuODMzeiIgZmlsbD0iI0RDRTlGNyIvPjxwYXRoIGQ9Ik01LjIgMjAuNjQyaDI1Ljc1MXYzLjEyMUg1LjJ6TTUuMiAyNC41NTdoMjUuNzUxdjMuMTE2SDUuMnoiIGZpbGw9IiMyMzZBOEUiLz48cGF0aCBkPSJNNS44MzMgMjEuODQxaDQuNjQ4di45NTZINS44MzN6TTUuODMzIDI1LjY4N2g0LjY0OHYuOTUzSDUuODMzeiIgZmlsbD0iI0RDRTlGNyIvPjxwYXRoIGQ9Ik01LjIgMzEuMjc3aDI1Ljc1MXYzLjExNEg1LjJ6TTUuMiAzNS4yMDFoMjUuNzUxdjMuMTE5SDUuMnoiIGZpbGw9IiMyMzZBOEUiLz48cGF0aCBkPSJNNS44MzMgMzIuNDgzaDQuNjQ4di45NTdINS44MzN6TTUuODMzIDM2LjMxOGg0LjY0OHYuOTY0SDUuODMzeiIgZmlsbD0iI0RDRTlGNyIvPjxwYXRoIG9wYWNpdHk9Ii42MiIgZD0iTTMxLjY3NSA3Mi45NThjLjczNCAwIDEuMzU4LjYwNCAxLjM1OCAxLjM2NyAwIC43NDQtLjYyNCAxLjM0OS0xLjM1OCAxLjM0OS0uNzM4IDAtMS4zNjMtLjYwNC0xLjM2My0xLjM0OWExLjM3IDEuMzcgMCAwIDEgMS4zNjMtMS4zNjciIGZpbGw9IiNGRjQ2NkEiLz48cGF0aCBvcGFjaXR5PSIuNjIiIGQ9Ik0yNi42MjkgNzIuOTU4Yy43NTkgMCAxLjM2NC42MDQgMS4zNjQgMS4zNjcgMCAuNzQ0LS42MDUgMS4zNDktMS4zNjQgMS4zNDlhMS4zNSAxLjM1IDAgMCAxLTEuMzUyLTEuMzQ5YzAtLjc2Mi42MDYtMS4zNjcgMS4zNTItMS4zNjciIGZpbGw9IiM0M0QxOTAiLz48ZyBmaWxsPSIjMDQxMzIzIj48cGF0aCBkPSJNMi43MTYgNTIuMjMzaDEuMzZ2MTYuNDA1aC0xLjM2ek00Ljk1OSA1Mi4yMzNoMS4zNTh2MTYuNDA1SDQuOTU5ek03LjEyMiA1Mi4yMzNIOC40OHYxNi40MDVINy4xMjJ6TTkuMzUzIDUyLjIzM2gxLjM2M3YxNi40MDVIOS4zNTN6TTExLjUxNyA1Mi4yMzNoMS4zNTh2MTYuNDA1aC0xLjM1OHpNMTMuNzYgNTIuMjMzaDEuMzU4djE2LjQwNUgxMy43NnpNMTUuOTExIDUyLjIzM2gxLjM2NnYxNi40MDVoLTEuMzY2ek0xOC4xNTYgNTIuMjMzaDEuMzc2djE2LjQwNWgtMS4zNzZ6TTIwLjM4IDUyLjIzM2gxLjM3N3YxNi40MDVIMjAuMzh6TTIyLjU2MiA1Mi4yMzNoMS4zNDl2MTYuNDA1aC0xLjM0OXpNMjQuNzk1IDUyLjIzM2gxLjM2NXYxNi40MDVoLTEuMzY1ek0yNi45NDEgNTIuMjMzaDEuMzc0djE2LjQwNWgtMS4zNzR6TTI5LjIgNTIuMjMzaDEuMzQ5djE2LjQwNUgyOS4yek0zMS40MzQgNTIuMjMzaDEuMzc4djE2LjQwNWgtMS4zNzh6Ii8+PC9nPjwvc3ZnPg==;strokeColor=none;strokeWidth=0;points=[];labelBackgroundColor=none;rounded=0;html=1;whiteSpace=wrap;" vertex="1" parent="1">
            <mxGeometry x="738" y="1146" width="36" height="80" as="geometry" />
          </mxCell>
        </UserObject>
        <UserObject label="&lt;div style=&quot;font-size: 1px&quot;&gt;&lt;p style=&quot;text-align:center;margin-left:0;margin-right:0;margin-top:0px;margin-bottom:0px;text-indent:0;vertical-align:middle;direction:ltr;&quot;&gt;&lt;font style=&quot;font-size:12px;font-family:0;color:#000000;direction:ltr;letter-spacing:0px;line-height:120%;opacity:1&quot;&gt;消息&amp;amp;推送&lt;/font&gt;&lt;/p&gt;&lt;/div&gt;" tags="Background" id="jLg2OHhgH8_k0mDhG_3J-29">
          <mxCell style="verticalAlign=middle;align=center;overflow=width;vsdxID=29;fillColor=none;gradientColor=none;image;aspect=fixed;image=data:image/svg+xml,PHN2ZyB4bWxucz0iaHR0cDovL3d3dy53My5vcmcvMjAwMC9zdmciIGhlaWdodD0iODAuMDAwMTk4MzY0MjU3ODEiIHdpZHRoPSIzNi4wMDAyMDk4MDgzNDk2MSIgeG1sOnNwYWNlPSJwcmVzZXJ2ZSIgdmlld0JveD0iLTAuMDAwMTQ3MDQ5Nzk1NDg2OTY0MjkgLTAuMDAwMTI3MzU0MjAwMjMwOTExMzcgMzYuMDAwMjA5ODA4MzQ5NjEgODAuMDAwMTk4MzY0MjU3ODEiPjxwYXRoIGQ9Ik0zMy4yNzkgODBIMi43MTZBMi42OTcgMi42OTcgMCAwIDEgMCA3Ny4yODNWMi43MThBMi42OSAyLjY5IDAgMCAxIDIuNzE2IDBoMzAuNTYzQTIuNyAyLjcgMCAwIDEgMzYgMi43MTh2NzQuNTY1QzM2IDc4LjcwNSAzNC43OTMgODAgMzMuMjc5IDgwIiBmaWxsPSIjMUUzOTQ3Ii8+PHBhdGggZD0iTS4wODEgNi4zOThIMzZ2Ljg4NEguMDgxek0uMDgxIDY5LjUxOGgzNS45MTh2Ljg4NEguMDgxeiIgZmlsbD0iI0RDRTlGNyIvPjxwYXRoIGQ9Ik0wIDUxLjEyNmgzNnYuNDgxSDB6IiBmaWxsPSIjMUE2Njg0Ii8+PHBhdGggZD0iTTUuMiAxMS42OGgyNS43NTF2My4xMTlINS4yek01LjIgMTUuNjA4aDI1Ljc1MXYzLjExNEg1LjJ6IiBmaWxsPSIjMjM2QThFIi8+PHBhdGggZD0iTTUuODMzIDEyLjg3N2g0LjY0OHYuOTY2SDUuODMzek01LjgzMyAxNi43Mmg0LjY0OHYuOTUzSDUuODMzeiIgZmlsbD0iI0RDRTlGNyIvPjxwYXRoIGQ9Ik01LjIgMjAuNjQyaDI1Ljc1MXYzLjEyMUg1LjJ6TTUuMiAyNC41NTdoMjUuNzUxdjMuMTE2SDUuMnoiIGZpbGw9IiMyMzZBOEUiLz48cGF0aCBkPSJNNS44MzMgMjEuODQxaDQuNjQ4di45NTZINS44MzN6TTUuODMzIDI1LjY4N2g0LjY0OHYuOTUzSDUuODMzeiIgZmlsbD0iI0RDRTlGNyIvPjxwYXRoIGQ9Ik01LjIgMzEuMjc3aDI1Ljc1MXYzLjExNEg1LjJ6TTUuMiAzNS4yMDFoMjUuNzUxdjMuMTE5SDUuMnoiIGZpbGw9IiMyMzZBOEUiLz48cGF0aCBkPSJNNS44MzMgMzIuNDgzaDQuNjQ4di45NTdINS44MzN6TTUuODMzIDM2LjMxOGg0LjY0OHYuOTY0SDUuODMzeiIgZmlsbD0iI0RDRTlGNyIvPjxwYXRoIG9wYWNpdHk9Ii42MiIgZD0iTTMxLjY3NSA3Mi45NThjLjczNCAwIDEuMzU4LjYwNCAxLjM1OCAxLjM2NyAwIC43NDQtLjYyNCAxLjM0OS0xLjM1OCAxLjM0OS0uNzM4IDAtMS4zNjMtLjYwNC0xLjM2My0xLjM0OWExLjM3IDEuMzcgMCAwIDEgMS4zNjMtMS4zNjciIGZpbGw9IiNGRjQ2NkEiLz48cGF0aCBvcGFjaXR5PSIuNjIiIGQ9Ik0yNi42MjkgNzIuOTU4Yy43NTkgMCAxLjM2NC42MDQgMS4zNjQgMS4zNjcgMCAuNzQ0LS42MDUgMS4zNDktMS4zNjQgMS4zNDlhMS4zNSAxLjM1IDAgMCAxLTEuMzUyLTEuMzQ5YzAtLjc2Mi42MDYtMS4zNjcgMS4zNTItMS4zNjciIGZpbGw9IiM0M0QxOTAiLz48ZyBmaWxsPSIjMDQxMzIzIj48cGF0aCBkPSJNMi43MTYgNTIuMjMzaDEuMzZ2MTYuNDA1aC0xLjM2ek00Ljk1OSA1Mi4yMzNoMS4zNTh2MTYuNDA1SDQuOTU5ek03LjEyMiA1Mi4yMzNIOC40OHYxNi40MDVINy4xMjJ6TTkuMzUzIDUyLjIzM2gxLjM2M3YxNi40MDVIOS4zNTN6TTExLjUxNyA1Mi4yMzNoMS4zNTh2MTYuNDA1aC0xLjM1OHpNMTMuNzYgNTIuMjMzaDEuMzU4djE2LjQwNUgxMy43NnpNMTUuOTExIDUyLjIzM2gxLjM2NnYxNi40MDVoLTEuMzY2ek0xOC4xNTYgNTIuMjMzaDEuMzc2djE2LjQwNWgtMS4zNzZ6TTIwLjM4IDUyLjIzM2gxLjM3N3YxNi40MDVIMjAuMzh6TTIyLjU2MiA1Mi4yMzNoMS4zNDl2MTYuNDA1aC0xLjM0OXpNMjQuNzk1IDUyLjIzM2gxLjM2NXYxNi40MDVoLTEuMzY1ek0yNi45NDEgNTIuMjMzaDEuMzc0djE2LjQwNWgtMS4zNzR6TTI5LjIgNTIuMjMzaDEuMzQ5djE2LjQwNUgyOS4yek0zMS40MzQgNTIuMjMzaDEuMzc4djE2LjQwNWgtMS4zNzh6Ii8+PC9nPjwvc3ZnPg==;strokeColor=none;strokeWidth=0;points=[];labelBackgroundColor=none;rounded=0;html=1;whiteSpace=wrap;" vertex="1" parent="1">
            <mxGeometry x="506" y="1146" width="36" height="80" as="geometry" />
          </mxCell>
        </UserObject>
        <UserObject label="&lt;div style=&quot;font-size: 1px&quot;&gt;&lt;p style=&quot;text-align:center;margin-left:0;margin-right:0;margin-top:0px;margin-bottom:0px;text-indent:0;vertical-align:middle;direction:ltr;&quot;&gt;&lt;font style=&quot;font-size:12px;font-family:0;color:#000000;direction:ltr;letter-spacing:0px;line-height:120%;opacity:1&quot;&gt;内容服务&lt;/font&gt;&lt;/p&gt;&lt;/div&gt;" tags="Background" id="jLg2OHhgH8_k0mDhG_3J-30">
          <mxCell style="verticalAlign=middle;align=center;overflow=width;vsdxID=30;fillColor=none;gradientColor=none;image;aspect=fixed;image=data:image/svg+xml,PHN2ZyB4bWxucz0iaHR0cDovL3d3dy53My5vcmcvMjAwMC9zdmciIGhlaWdodD0iODAuMDAwMTk4MzY0MjU3ODEiIHdpZHRoPSIzNi4wMDAyMDk4MDgzNDk2MSIgeG1sOnNwYWNlPSJwcmVzZXJ2ZSIgdmlld0JveD0iLTAuMDAwMTQ3MDQ5Nzk1NDg2OTY0MjkgLTAuMDAwMTI3MzU0MjAwMjMwOTExMzcgMzYuMDAwMjA5ODA4MzQ5NjEgODAuMDAwMTk4MzY0MjU3ODEiPjxwYXRoIGQ9Ik0zMy4yNzkgODBIMi43MTZBMi42OTcgMi42OTcgMCAwIDEgMCA3Ny4yODNWMi43MThBMi42OSAyLjY5IDAgMCAxIDIuNzE2IDBoMzAuNTYzQTIuNyAyLjcgMCAwIDEgMzYgMi43MTh2NzQuNTY1QzM2IDc4LjcwNSAzNC43OTMgODAgMzMuMjc5IDgwIiBmaWxsPSIjMUUzOTQ3Ii8+PHBhdGggZD0iTS4wODEgNi4zOThIMzZ2Ljg4NEguMDgxek0uMDgxIDY5LjUxOGgzNS45MTh2Ljg4NEguMDgxeiIgZmlsbD0iI0RDRTlGNyIvPjxwYXRoIGQ9Ik0wIDUxLjEyNmgzNnYuNDgxSDB6IiBmaWxsPSIjMUE2Njg0Ii8+PHBhdGggZD0iTTUuMiAxMS42OGgyNS43NTF2My4xMTlINS4yek01LjIgMTUuNjA4aDI1Ljc1MXYzLjExNEg1LjJ6IiBmaWxsPSIjMjM2QThFIi8+PHBhdGggZD0iTTUuODMzIDEyLjg3N2g0LjY0OHYuOTY2SDUuODMzek01LjgzMyAxNi43Mmg0LjY0OHYuOTUzSDUuODMzeiIgZmlsbD0iI0RDRTlGNyIvPjxwYXRoIGQ9Ik01LjIgMjAuNjQyaDI1Ljc1MXYzLjEyMUg1LjJ6TTUuMiAyNC41NTdoMjUuNzUxdjMuMTE2SDUuMnoiIGZpbGw9IiMyMzZBOEUiLz48cGF0aCBkPSJNNS44MzMgMjEuODQxaDQuNjQ4di45NTZINS44MzN6TTUuODMzIDI1LjY4N2g0LjY0OHYuOTUzSDUuODMzeiIgZmlsbD0iI0RDRTlGNyIvPjxwYXRoIGQ9Ik01LjIgMzEuMjc3aDI1Ljc1MXYzLjExNEg1LjJ6TTUuMiAzNS4yMDFoMjUuNzUxdjMuMTE5SDUuMnoiIGZpbGw9IiMyMzZBOEUiLz48cGF0aCBkPSJNNS44MzMgMzIuNDgzaDQuNjQ4di45NTdINS44MzN6TTUuODMzIDM2LjMxOGg0LjY0OHYuOTY0SDUuODMzeiIgZmlsbD0iI0RDRTlGNyIvPjxwYXRoIG9wYWNpdHk9Ii42MiIgZD0iTTMxLjY3NSA3Mi45NThjLjczNCAwIDEuMzU4LjYwNCAxLjM1OCAxLjM2NyAwIC43NDQtLjYyNCAxLjM0OS0xLjM1OCAxLjM0OS0uNzM4IDAtMS4zNjMtLjYwNC0xLjM2My0xLjM0OWExLjM3IDEuMzcgMCAwIDEgMS4zNjMtMS4zNjciIGZpbGw9IiNGRjQ2NkEiLz48cGF0aCBvcGFjaXR5PSIuNjIiIGQ9Ik0yNi42MjkgNzIuOTU4Yy43NTkgMCAxLjM2NC42MDQgMS4zNjQgMS4zNjcgMCAuNzQ0LS42MDUgMS4zNDktMS4zNjQgMS4zNDlhMS4zNSAxLjM1IDAgMCAxLTEuMzUyLTEuMzQ5YzAtLjc2Mi42MDYtMS4zNjcgMS4zNTItMS4zNjciIGZpbGw9IiM0M0QxOTAiLz48ZyBmaWxsPSIjMDQxMzIzIj48cGF0aCBkPSJNMi43MTYgNTIuMjMzaDEuMzZ2MTYuNDA1aC0xLjM2ek00Ljk1OSA1Mi4yMzNoMS4zNTh2MTYuNDA1SDQuOTU5ek03LjEyMiA1Mi4yMzNIOC40OHYxNi40MDVINy4xMjJ6TTkuMzUzIDUyLjIzM2gxLjM2M3YxNi40MDVIOS4zNTN6TTExLjUxNyA1Mi4yMzNoMS4zNTh2MTYuNDA1aC0xLjM1OHpNMTMuNzYgNTIuMjMzaDEuMzU4djE2LjQwNUgxMy43NnpNMTUuOTExIDUyLjIzM2gxLjM2NnYxNi40MDVoLTEuMzY2ek0xOC4xNTYgNTIuMjMzaDEuMzc2djE2LjQwNWgtMS4zNzZ6TTIwLjM4IDUyLjIzM2gxLjM3N3YxNi40MDVIMjAuMzh6TTIyLjU2MiA1Mi4yMzNoMS4zNDl2MTYuNDA1aC0xLjM0OXpNMjQuNzk1IDUyLjIzM2gxLjM2NXYxNi40MDVoLTEuMzY1ek0yNi45NDEgNTIuMjMzaDEuMzc0djE2LjQwNWgtMS4zNzR6TTI5LjIgNTIuMjMzaDEuMzQ5djE2LjQwNUgyOS4yek0zMS40MzQgNTIuMjMzaDEuMzc4djE2LjQwNWgtMS4zNzh6Ii8+PC9nPjwvc3ZnPg==;strokeColor=none;strokeWidth=0;points=[];labelBackgroundColor=none;rounded=0;html=1;whiteSpace=wrap;" vertex="1" parent="1">
            <mxGeometry x="983" y="1146" width="36" height="80" as="geometry" />
          </mxCell>
        </UserObject>
        <UserObject label="&lt;div style=&quot;font-size: 1px&quot;&gt;&lt;p style=&quot;text-align:center;margin-left:0;margin-right:0;margin-top:0px;margin-bottom:0px;text-indent:0;vertical-align:middle;direction:ltr;&quot;&gt;&lt;font style=&quot;font-size:12px;font-family:0;color:#000000;direction:ltr;letter-spacing:0px;line-height:120%;opacity:1&quot;&gt;应用主库&lt;/font&gt;&lt;/p&gt;&lt;/div&gt;" tags="Background" id="jLg2OHhgH8_k0mDhG_3J-31">
          <mxCell style="verticalAlign=middle;align=center;overflow=width;vsdxID=31;fillColor=none;gradientColor=none;image;aspect=fixed;image=data:image/png,iVBORw0KGgoAAAANSUhEUgAAADkAAABLCAYAAADK8i9PAAAGEklEQVR4AeybbXLiOBCG2zB/l6m5QXKSJbWZcwycJMlJ4j3HZCvMScINtpb9O8TbjxphYZAsEyDxjim/2NZHq191W5ZaMJJTfP5azQR8/+denlaPGzzr+aWBSu9DhPmUB4+CHCfv36k8/331VhW7k6RxI4JCKFlJJY8CiuJOFZptMNUzCobQpJ0jzKM8mAlynLzqWdZja+Np9ezIf+9OvJ1kTcoao3GRmYig0JVc7jN15Ist8WzScZK4zNPqxVnISF2SUE7XhaTNxSOuvU/SXLFyvSZyDLGFiJTiUVUPUshcYiDfw+pQf6n1gZ6yDiNsrv3YfI5rkvj606pSkbiinrKO0ilfFTcyXl/L7aRQ3CjmW3z9fC9/TMooyPe4nVCP+si6djKRTSeILEQkh/jMPcc8ZmIfI0kCvm5pqW8jVROaO+W//raQmy/LVMWj8pCJbDrhdmLka9Lp9hg7eOS04ZEzLQl6kzhK16v0NFah8UThs2bVpK8Fwmbhw00ySqsBR/JzNDtcYpOKIMi9J7GNKnsnCGNhc+e9bJdQybeRFMU3d3Poi8oIOpT3kdJwZxGeWTnwmY4OJNZJoyLt93XJ97+qqh8xJdIkK7lzz2ys9kdJ583A8xfRJ02S9+R6rDMLnUpFBLx7sg4s0vJmaCMJhysnhLkjAiOzCgpeFOhSz8iSTeeQ9AKmwqvGZhVqXV1x4CaXIm2kHnUV86KwRQGe5rVLnLuQDMVMdVS+cxY20jTMqsTmkChEBwA6wSOU4K99HmWpB3iJ2/QSucCTmmm1K0Wn41iSzUZoeKqJM0cei/OcADrBg2ljEz6PstQDNojMVB5ygV4ef5yK5PEanKxmXNBAMt43/coZLNkve8W1HSwZ75t+5QyW7Je94toOloz3Tb9yBkv2y15xbQdLxvumXzmDJftlr7i2eZZkR8o2c9jQiYM9EiLulM/bnBGhfBfZBLxzZW9455HcFG49sZVAxJ39kttJ+15Fq8CgwEa2EC0fr280Jzvw3Z0kgSYLMhE5MxB42kJjtASnVAuBMHsVtu9IShrISMn2ciHsOrF6SAu03O4kK/ldqxJkqkHgaQu33a1ROyWrBd3BhpHIQto+RZGWTdCLjvBysGqG63Yn6RtIn6cuXEmY0Zcbr+d6uVS87aAzvUVNUqvMc5G05gkzeoVwsRxrWs309+t4mi6wm3tekrQV7n8W8oOkN4OBrRbSSvj8JO05M5V2lbO07t/ltgqD4PYmfnF+kiLNno4/Q7bHCIl98H60d+pc+PAYEG3nugWXICnZe5yMlozEh0AeryQIYUFGWq4zcBmSu4rELblbLn6H22PVzIHsMiRtZPVKN93Xp4tuybEzVum5iRdNI+956xVYlYkGblxLOHh1CZLLbcs8R9ubThdXWprOmbofIoUTgk+vPL91G1qweVyW5M9PKNvUoft9OCEwL0nOps5PsioeahavWKO+fctVhwnBuUmWbpIOGVwVC3B9CjD41HKSHnJOkgv3I0KvSDjz8WnHn5vumfSQc5AshUUzI58nwUT9dFYstfNYT5p0ZNtV9Ls7yfH6wf2YkChAE7bCn7tfTvomUYKJur9PnVmpNGX6e5NNVMJmPMjJlN2dJKNZDDTswayEBXAuQept5X5Zup+Whvfkh+A1kik7j2SlC2WUToFGIWV4EZtXzkK9Dl/riJuSS15TNr8g6eD+eST5DTpKp2CNQgokR7sdstRLySWPMuhgyJe9aSiX5KZ4P08DyX7abV/rwZL7fdLPlMGS/bTbvtaDJff7pJ8pv4wll/20T6bWGuga6drvz8zi/Symga6RW/sp234yaNGaxbsu10auGNFpI/r/cV2Cz5s4kJGEKURtm7rktscgPFJsA2hKpCapN241zj4EvWBb4Ge1LE2eDHgioRL0bwjdJekzLQTPX2+v5eMSxgCl04/4D56oz5+nEJ4PkwxLNAlDml4TWUjGfr2WOdXBY1Tq22DuAmm3k2uN2s1Dt4w11E4yrAlhh8/32oD9xxgXgTgjmZEvtQodAOjtEJq1c4R5lKeuWqd6cGSQi3wshRsCBpOIxXYkBzf/AQAA///wWj0RAAAABklEQVQDAPW/QW/9tzZbAAAAAElFTkSuQmCC;strokeColor=none;strokeWidth=0;points=[];labelBackgroundColor=none;rounded=0;html=1;whiteSpace=wrap;" vertex="1" parent="1">
            <mxGeometry x="1016" y="1495" width="57" height="76" as="geometry" />
          </mxCell>
        </UserObject>
        <UserObject label="&lt;div style=&quot;font-size: 1px&quot;&gt;&lt;p style=&quot;text-align:center;margin-left:0;margin-right:0;margin-top:0px;margin-bottom:0px;text-indent:0;vertical-align:middle;direction:ltr;&quot;&gt;&lt;font style=&quot;font-size:12px;font-family:0;color:#000000;direction:ltr;letter-spacing:0px;line-height:120%;opacity:1&quot;&gt;应用备库&lt;/font&gt;&lt;/p&gt;&lt;/div&gt;" tags="Background" id="jLg2OHhgH8_k0mDhG_3J-32">
          <mxCell style="verticalAlign=middle;align=center;overflow=width;vsdxID=32;fillColor=none;gradientColor=none;image;aspect=fixed;image=data:image/png,iVBORw0KGgoAAAANSUhEUgAAADkAAABLCAYAAADK8i9PAAAGEklEQVR4AeybbXLiOBCG2zB/l6m5QXKSJbWZcwycJMlJ4j3HZCvMScINtpb9O8TbjxphYZAsEyDxjim/2NZHq191W5ZaMJJTfP5azQR8/+denlaPGzzr+aWBSu9DhPmUB4+CHCfv36k8/331VhW7k6RxI4JCKFlJJY8CiuJOFZptMNUzCobQpJ0jzKM8mAlynLzqWdZja+Np9ezIf+9OvJ1kTcoao3GRmYig0JVc7jN15Ist8WzScZK4zNPqxVnISF2SUE7XhaTNxSOuvU/SXLFyvSZyDLGFiJTiUVUPUshcYiDfw+pQf6n1gZ6yDiNsrv3YfI5rkvj606pSkbiinrKO0ilfFTcyXl/L7aRQ3CjmW3z9fC9/TMooyPe4nVCP+si6djKRTSeILEQkh/jMPcc8ZmIfI0kCvm5pqW8jVROaO+W//raQmy/LVMWj8pCJbDrhdmLka9Lp9hg7eOS04ZEzLQl6kzhK16v0NFah8UThs2bVpK8Fwmbhw00ySqsBR/JzNDtcYpOKIMi9J7GNKnsnCGNhc+e9bJdQybeRFMU3d3Poi8oIOpT3kdJwZxGeWTnwmY4OJNZJoyLt93XJ97+qqh8xJdIkK7lzz2ys9kdJ583A8xfRJ02S9+R6rDMLnUpFBLx7sg4s0vJmaCMJhysnhLkjAiOzCgpeFOhSz8iSTeeQ9AKmwqvGZhVqXV1x4CaXIm2kHnUV86KwRQGe5rVLnLuQDMVMdVS+cxY20jTMqsTmkChEBwA6wSOU4K99HmWpB3iJ2/QSucCTmmm1K0Wn41iSzUZoeKqJM0cei/OcADrBg2ljEz6PstQDNojMVB5ygV4ef5yK5PEanKxmXNBAMt43/coZLNkve8W1HSwZ75t+5QyW7Je94toOloz3Tb9yBkv2y15xbQdLxvumXzmDJftlr7i2eZZkR8o2c9jQiYM9EiLulM/bnBGhfBfZBLxzZW9455HcFG49sZVAxJ39kttJ+15Fq8CgwEa2EC0fr280Jzvw3Z0kgSYLMhE5MxB42kJjtASnVAuBMHsVtu9IShrISMn2ciHsOrF6SAu03O4kK/ldqxJkqkHgaQu33a1ROyWrBd3BhpHIQto+RZGWTdCLjvBysGqG63Yn6RtIn6cuXEmY0Zcbr+d6uVS87aAzvUVNUqvMc5G05gkzeoVwsRxrWs309+t4mi6wm3tekrQV7n8W8oOkN4OBrRbSSvj8JO05M5V2lbO07t/ltgqD4PYmfnF+kiLNno4/Q7bHCIl98H60d+pc+PAYEG3nugWXICnZe5yMlozEh0AeryQIYUFGWq4zcBmSu4rELblbLn6H22PVzIHsMiRtZPVKN93Xp4tuybEzVum5iRdNI+956xVYlYkGblxLOHh1CZLLbcs8R9ubThdXWprOmbofIoUTgk+vPL91G1qweVyW5M9PKNvUoft9OCEwL0nOps5PsioeahavWKO+fctVhwnBuUmWbpIOGVwVC3B9CjD41HKSHnJOkgv3I0KvSDjz8WnHn5vumfSQc5AshUUzI58nwUT9dFYstfNYT5p0ZNtV9Ls7yfH6wf2YkChAE7bCn7tfTvomUYKJur9PnVmpNGX6e5NNVMJmPMjJlN2dJKNZDDTswayEBXAuQept5X5Zup+Whvfkh+A1kik7j2SlC2WUToFGIWV4EZtXzkK9Dl/riJuSS15TNr8g6eD+eST5DTpKp2CNQgokR7sdstRLySWPMuhgyJe9aSiX5KZ4P08DyX7abV/rwZL7fdLPlMGS/bTbvtaDJff7pJ8pv4wll/20T6bWGuga6drvz8zi/Symga6RW/sp234yaNGaxbsu10auGNFpI/r/cV2Cz5s4kJGEKURtm7rktscgPFJsA2hKpCapN241zj4EvWBb4Ge1LE2eDHgioRL0bwjdJekzLQTPX2+v5eMSxgCl04/4D56oz5+nEJ4PkwxLNAlDml4TWUjGfr2WOdXBY1Tq22DuAmm3k2uN2s1Dt4w11E4yrAlhh8/32oD9xxgXgTgjmZEvtQodAOjtEJq1c4R5lKeuWqd6cGSQi3wshRsCBpOIxXYkBzf/AQAA///wWj0RAAAABklEQVQDAPW/QW/9tzZbAAAAAElFTkSuQmCC;strokeColor=none;strokeWidth=0;points=[];labelBackgroundColor=none;rounded=0;html=1;whiteSpace=wrap;" vertex="1" parent="1">
            <mxGeometry x="1123" y="1495" width="57" height="76" as="geometry" />
          </mxCell>
        </UserObject>
        <UserObject label="&lt;div style=&quot;font-size: 1px&quot;&gt;&lt;p style=&quot;text-align:center;margin-left:0;margin-right:0;margin-top:0px;margin-bottom:0px;text-indent:0;vertical-align:middle;direction:ltr;&quot;&gt;&lt;font style=&quot;font-size:12px;font-family:0;color:#000000;direction:ltr;letter-spacing:0px;line-height:120%;opacity:1&quot;&gt;业务数据库&lt;/font&gt;&lt;/p&gt;&lt;/div&gt;" tags="Background" id="jLg2OHhgH8_k0mDhG_3J-33">
          <mxCell style="verticalAlign=middle;align=center;overflow=width;vsdxID=33;fillColor=none;gradientColor=none;image;aspect=fixed;image=data:image/png,iVBORw0KGgoAAAANSUhEUgAAADkAAABLCAYAAADK8i9PAAAGEklEQVR4AeybbXLiOBCG2zB/l6m5QXKSJbWZcwycJMlJ4j3HZCvMScINtpb9O8TbjxphYZAsEyDxjim/2NZHq191W5ZaMJJTfP5azQR8/+denlaPGzzr+aWBSu9DhPmUB4+CHCfv36k8/331VhW7k6RxI4JCKFlJJY8CiuJOFZptMNUzCobQpJ0jzKM8mAlynLzqWdZja+Np9ezIf+9OvJ1kTcoao3GRmYig0JVc7jN15Ist8WzScZK4zNPqxVnISF2SUE7XhaTNxSOuvU/SXLFyvSZyDLGFiJTiUVUPUshcYiDfw+pQf6n1gZ6yDiNsrv3YfI5rkvj606pSkbiinrKO0ilfFTcyXl/L7aRQ3CjmW3z9fC9/TMooyPe4nVCP+si6djKRTSeILEQkh/jMPcc8ZmIfI0kCvm5pqW8jVROaO+W//raQmy/LVMWj8pCJbDrhdmLka9Lp9hg7eOS04ZEzLQl6kzhK16v0NFah8UThs2bVpK8Fwmbhw00ySqsBR/JzNDtcYpOKIMi9J7GNKnsnCGNhc+e9bJdQybeRFMU3d3Poi8oIOpT3kdJwZxGeWTnwmY4OJNZJoyLt93XJ97+qqh8xJdIkK7lzz2ys9kdJ583A8xfRJ02S9+R6rDMLnUpFBLx7sg4s0vJmaCMJhysnhLkjAiOzCgpeFOhSz8iSTeeQ9AKmwqvGZhVqXV1x4CaXIm2kHnUV86KwRQGe5rVLnLuQDMVMdVS+cxY20jTMqsTmkChEBwA6wSOU4K99HmWpB3iJ2/QSucCTmmm1K0Wn41iSzUZoeKqJM0cei/OcADrBg2ljEz6PstQDNojMVB5ygV4ef5yK5PEanKxmXNBAMt43/coZLNkve8W1HSwZ75t+5QyW7Je94toOloz3Tb9yBkv2y15xbQdLxvumXzmDJftlr7i2eZZkR8o2c9jQiYM9EiLulM/bnBGhfBfZBLxzZW9455HcFG49sZVAxJ39kttJ+15Fq8CgwEa2EC0fr280Jzvw3Z0kgSYLMhE5MxB42kJjtASnVAuBMHsVtu9IShrISMn2ciHsOrF6SAu03O4kK/ldqxJkqkHgaQu33a1ROyWrBd3BhpHIQto+RZGWTdCLjvBysGqG63Yn6RtIn6cuXEmY0Zcbr+d6uVS87aAzvUVNUqvMc5G05gkzeoVwsRxrWs309+t4mi6wm3tekrQV7n8W8oOkN4OBrRbSSvj8JO05M5V2lbO07t/ltgqD4PYmfnF+kiLNno4/Q7bHCIl98H60d+pc+PAYEG3nugWXICnZe5yMlozEh0AeryQIYUFGWq4zcBmSu4rELblbLn6H22PVzIHsMiRtZPVKN93Xp4tuybEzVum5iRdNI+956xVYlYkGblxLOHh1CZLLbcs8R9ubThdXWprOmbofIoUTgk+vPL91G1qweVyW5M9PKNvUoft9OCEwL0nOps5PsioeahavWKO+fctVhwnBuUmWbpIOGVwVC3B9CjD41HKSHnJOkgv3I0KvSDjz8WnHn5vumfSQc5AshUUzI58nwUT9dFYstfNYT5p0ZNtV9Ls7yfH6wf2YkChAE7bCn7tfTvomUYKJur9PnVmpNGX6e5NNVMJmPMjJlN2dJKNZDDTswayEBXAuQept5X5Zup+Whvfkh+A1kik7j2SlC2WUToFGIWV4EZtXzkK9Dl/riJuSS15TNr8g6eD+eST5DTpKp2CNQgokR7sdstRLySWPMuhgyJe9aSiX5KZ4P08DyX7abV/rwZL7fdLPlMGS/bTbvtaDJff7pJ8pv4wll/20T6bWGuga6drvz8zi/Symga6RW/sp234yaNGaxbsu10auGNFpI/r/cV2Cz5s4kJGEKURtm7rktscgPFJsA2hKpCapN241zj4EvWBb4Ge1LE2eDHgioRL0bwjdJekzLQTPX2+v5eMSxgCl04/4D56oz5+nEJ4PkwxLNAlDml4TWUjGfr2WOdXBY1Tq22DuAmm3k2uN2s1Dt4w11E4yrAlhh8/32oD9xxgXgTgjmZEvtQodAOjtEJq1c4R5lKeuWqd6cGSQi3wshRsCBpOIxXYkBzf/AQAA///wWj0RAAAABklEQVQDAPW/QW/9tzZbAAAAAElFTkSuQmCC;strokeColor=none;strokeWidth=0;points=[];labelBackgroundColor=none;rounded=0;html=1;whiteSpace=wrap;" vertex="1" parent="1">
            <mxGeometry x="561" y="1495" width="57" height="76" as="geometry" />
          </mxCell>
        </UserObject>
        <UserObject label="&lt;div style=&quot;font-size: 1px&quot;&gt;&lt;p style=&quot;text-align:center;margin-left:0;margin-right:0;margin-top:0px;margin-bottom:0px;text-indent:0;vertical-align:middle;direction:ltr;&quot;&gt;&lt;font style=&quot;font-size:12px;font-family:0;color:#000000;direction:ltr;letter-spacing:0px;line-height:120%;opacity:1&quot;&gt;业务数据库多数据源&lt;/font&gt;&lt;/p&gt;&lt;/div&gt;" tags="Background" id="jLg2OHhgH8_k0mDhG_3J-34">
          <mxCell style="verticalAlign=middle;align=center;overflow=width;vsdxID=34;fillColor=none;gradientColor=none;image;aspect=fixed;image=data:image/png,iVBORw0KGgoAAAANSUhEUgAAADkAAABLCAYAAADK8i9PAAAGEklEQVR4AeybbXLiOBCG2zB/l6m5QXKSJbWZcwycJMlJ4j3HZCvMScINtpb9O8TbjxphYZAsEyDxjim/2NZHq191W5ZaMJJTfP5azQR8/+denlaPGzzr+aWBSu9DhPmUB4+CHCfv36k8/331VhW7k6RxI4JCKFlJJY8CiuJOFZptMNUzCobQpJ0jzKM8mAlynLzqWdZja+Np9ezIf+9OvJ1kTcoao3GRmYig0JVc7jN15Ist8WzScZK4zNPqxVnISF2SUE7XhaTNxSOuvU/SXLFyvSZyDLGFiJTiUVUPUshcYiDfw+pQf6n1gZ6yDiNsrv3YfI5rkvj606pSkbiinrKO0ilfFTcyXl/L7aRQ3CjmW3z9fC9/TMooyPe4nVCP+si6djKRTSeILEQkh/jMPcc8ZmIfI0kCvm5pqW8jVROaO+W//raQmy/LVMWj8pCJbDrhdmLka9Lp9hg7eOS04ZEzLQl6kzhK16v0NFah8UThs2bVpK8Fwmbhw00ySqsBR/JzNDtcYpOKIMi9J7GNKnsnCGNhc+e9bJdQybeRFMU3d3Poi8oIOpT3kdJwZxGeWTnwmY4OJNZJoyLt93XJ97+qqh8xJdIkK7lzz2ys9kdJ583A8xfRJ02S9+R6rDMLnUpFBLx7sg4s0vJmaCMJhysnhLkjAiOzCgpeFOhSz8iSTeeQ9AKmwqvGZhVqXV1x4CaXIm2kHnUV86KwRQGe5rVLnLuQDMVMdVS+cxY20jTMqsTmkChEBwA6wSOU4K99HmWpB3iJ2/QSucCTmmm1K0Wn41iSzUZoeKqJM0cei/OcADrBg2ljEz6PstQDNojMVB5ygV4ef5yK5PEanKxmXNBAMt43/coZLNkve8W1HSwZ75t+5QyW7Je94toOloz3Tb9yBkv2y15xbQdLxvumXzmDJftlr7i2eZZkR8o2c9jQiYM9EiLulM/bnBGhfBfZBLxzZW9455HcFG49sZVAxJ39kttJ+15Fq8CgwEa2EC0fr280Jzvw3Z0kgSYLMhE5MxB42kJjtASnVAuBMHsVtu9IShrISMn2ciHsOrF6SAu03O4kK/ldqxJkqkHgaQu33a1ROyWrBd3BhpHIQto+RZGWTdCLjvBysGqG63Yn6RtIn6cuXEmY0Zcbr+d6uVS87aAzvUVNUqvMc5G05gkzeoVwsRxrWs309+t4mi6wm3tekrQV7n8W8oOkN4OBrRbSSvj8JO05M5V2lbO07t/ltgqD4PYmfnF+kiLNno4/Q7bHCIl98H60d+pc+PAYEG3nugWXICnZe5yMlozEh0AeryQIYUFGWq4zcBmSu4rELblbLn6H22PVzIHsMiRtZPVKN93Xp4tuybEzVum5iRdNI+956xVYlYkGblxLOHh1CZLLbcs8R9ubThdXWprOmbofIoUTgk+vPL91G1qweVyW5M9PKNvUoft9OCEwL0nOps5PsioeahavWKO+fctVhwnBuUmWbpIOGVwVC3B9CjD41HKSHnJOkgv3I0KvSDjz8WnHn5vumfSQc5AshUUzI58nwUT9dFYstfNYT5p0ZNtV9Ls7yfH6wf2YkChAE7bCn7tfTvomUYKJur9PnVmpNGX6e5NNVMJmPMjJlN2dJKNZDDTswayEBXAuQept5X5Zup+Whvfkh+A1kik7j2SlC2WUToFGIWV4EZtXzkK9Dl/riJuSS15TNr8g6eD+eST5DTpKp2CNQgokR7sdstRLySWPMuhgyJe9aSiX5KZ4P08DyX7abV/rwZL7fdLPlMGS/bTbvtaDJff7pJ8pv4wll/20T6bWGuga6drvz8zi/Symga6RW/sp234yaNGaxbsu10auGNFpI/r/cV2Cz5s4kJGEKURtm7rktscgPFJsA2hKpCapN241zj4EvWBb4Ge1LE2eDHgioRL0bwjdJekzLQTPX2+v5eMSxgCl04/4D56oz5+nEJ4PkwxLNAlDml4TWUjGfr2WOdXBY1Tq22DuAmm3k2uN2s1Dt4w11E4yrAlhh8/32oD9xxgXgTgjmZEvtQodAOjtEJq1c4R5lKeuWqd6cGSQi3wshRsCBpOIxXYkBzf/AQAA///wWj0RAAAABklEQVQDAPW/QW/9tzZbAAAAAElFTkSuQmCC;strokeColor=none;strokeWidth=0;points=[];labelBackgroundColor=none;rounded=0;html=1;whiteSpace=wrap;" vertex="1" parent="1">
            <mxGeometry x="668" y="1495" width="57" height="76" as="geometry" />
          </mxCell>
        </UserObject>
        <mxCell id="jLg2OHhgH8_k0mDhG_3J-103" value="" style="edgeStyle=orthogonalEdgeStyle;rounded=0;orthogonalLoop=1;jettySize=auto;html=1;" edge="1" parent="1" source="jLg2OHhgH8_k0mDhG_3J-35" target="jLg2OHhgH8_k0mDhG_3J-33">
          <mxGeometry relative="1" as="geometry" />
        </mxCell>
        <UserObject label="&lt;div style=&quot;font-size: 1px&quot;&gt;&lt;p style=&quot;text-align:center;margin-left:0;margin-right:0;margin-top:0px;margin-bottom:0px;text-indent:0;vertical-align:middle;direction:ltr;&quot;&gt;&lt;font style=&quot;font-size: 12px; color: rgb(0, 0, 0); direction: ltr; letter-spacing: 0px; line-height: 120%; opacity: 1;&quot;&gt;Redis服务&lt;/font&gt;&lt;/p&gt;&lt;/div&gt;" tags="Background" id="jLg2OHhgH8_k0mDhG_3J-35">
          <mxCell style="verticalAlign=middle;align=center;overflow=width;vsdxID=35;fillColor=none;gradientColor=none;image;aspect=fixed;image=data:image/svg+xml,PHN2ZyB4bWxucz0iaHR0cDovL3d3dy53My5vcmcvMjAwMC9zdmciIGhlaWdodD0iODAuMDAwMTk4MzY0MjU3ODEiIHdpZHRoPSIzNi4wMDAyMDk4MDgzNDk2MSIgeG1sOnNwYWNlPSJwcmVzZXJ2ZSIgdmlld0JveD0iLTAuMDAwMTQ3MDQ5Nzk1NDg2OTY0MjkgLTAuMDAwMTI3MzU0MjAwMjMwOTExMzcgMzYuMDAwMjA5ODA4MzQ5NjEgODAuMDAwMTk4MzY0MjU3ODEiPjxwYXRoIGQ9Ik0zMy4yNzkgODBIMi43MTZBMi42OTcgMi42OTcgMCAwIDEgMCA3Ny4yODNWMi43MThBMi42OSAyLjY5IDAgMCAxIDIuNzE2IDBoMzAuNTYzQTIuNyAyLjcgMCAwIDEgMzYgMi43MTh2NzQuNTY1QzM2IDc4LjcwNSAzNC43OTMgODAgMzMuMjc5IDgwIiBmaWxsPSIjMUUzOTQ3Ii8+PHBhdGggZD0iTS4wODEgNi4zOThIMzZ2Ljg4NEguMDgxek0uMDgxIDY5LjUxOGgzNS45MTh2Ljg4NEguMDgxeiIgZmlsbD0iI0RDRTlGNyIvPjxwYXRoIGQ9Ik0wIDUxLjEyNmgzNnYuNDgxSDB6IiBmaWxsPSIjMUE2Njg0Ii8+PHBhdGggZD0iTTUuMiAxMS42OGgyNS43NTF2My4xMTlINS4yek01LjIgMTUuNjA4aDI1Ljc1MXYzLjExNEg1LjJ6IiBmaWxsPSIjMjM2QThFIi8+PHBhdGggZD0iTTUuODMzIDEyLjg3N2g0LjY0OHYuOTY2SDUuODMzek01LjgzMyAxNi43Mmg0LjY0OHYuOTUzSDUuODMzeiIgZmlsbD0iI0RDRTlGNyIvPjxwYXRoIGQ9Ik01LjIgMjAuNjQyaDI1Ljc1MXYzLjEyMUg1LjJ6TTUuMiAyNC41NTdoMjUuNzUxdjMuMTE2SDUuMnoiIGZpbGw9IiMyMzZBOEUiLz48cGF0aCBkPSJNNS44MzMgMjEuODQxaDQuNjQ4di45NTZINS44MzN6TTUuODMzIDI1LjY4N2g0LjY0OHYuOTUzSDUuODMzeiIgZmlsbD0iI0RDRTlGNyIvPjxwYXRoIGQ9Ik01LjIgMzEuMjc3aDI1Ljc1MXYzLjExNEg1LjJ6TTUuMiAzNS4yMDFoMjUuNzUxdjMuMTE5SDUuMnoiIGZpbGw9IiMyMzZBOEUiLz48cGF0aCBkPSJNNS44MzMgMzIuNDgzaDQuNjQ4di45NTdINS44MzN6TTUuODMzIDM2LjMxOGg0LjY0OHYuOTY0SDUuODMzeiIgZmlsbD0iI0RDRTlGNyIvPjxwYXRoIG9wYWNpdHk9Ii42MiIgZD0iTTMxLjY3NSA3Mi45NThjLjczNCAwIDEuMzU4LjYwNCAxLjM1OCAxLjM2NyAwIC43NDQtLjYyNCAxLjM0OS0xLjM1OCAxLjM0OS0uNzM4IDAtMS4zNjMtLjYwNC0xLjM2My0xLjM0OWExLjM3IDEuMzcgMCAwIDEgMS4zNjMtMS4zNjciIGZpbGw9IiNGRjQ2NkEiLz48cGF0aCBvcGFjaXR5PSIuNjIiIGQ9Ik0yNi42MjkgNzIuOTU4Yy43NTkgMCAxLjM2NC42MDQgMS4zNjQgMS4zNjcgMCAuNzQ0LS42MDUgMS4zNDktMS4zNjQgMS4zNDlhMS4zNSAxLjM1IDAgMCAxLTEuMzUyLTEuMzQ5YzAtLjc2Mi42MDYtMS4zNjcgMS4zNTItMS4zNjciIGZpbGw9IiM0M0QxOTAiLz48ZyBmaWxsPSIjMDQxMzIzIj48cGF0aCBkPSJNMi43MTYgNTIuMjMzaDEuMzZ2MTYuNDA1aC0xLjM2ek00Ljk1OSA1Mi4yMzNoMS4zNTh2MTYuNDA1SDQuOTU5ek03LjEyMiA1Mi4yMzNIOC40OHYxNi40MDVINy4xMjJ6TTkuMzUzIDUyLjIzM2gxLjM2M3YxNi40MDVIOS4zNTN6TTExLjUxNyA1Mi4yMzNoMS4zNTh2MTYuNDA1aC0xLjM1OHpNMTMuNzYgNTIuMjMzaDEuMzU4djE2LjQwNUgxMy43NnpNMTUuOTExIDUyLjIzM2gxLjM2NnYxNi40MDVoLTEuMzY2ek0xOC4xNTYgNTIuMjMzaDEuMzc2djE2LjQwNWgtMS4zNzZ6TTIwLjM4IDUyLjIzM2gxLjM3N3YxNi40MDVIMjAuMzh6TTIyLjU2MiA1Mi4yMzNoMS4zNDl2MTYuNDA1aC0xLjM0OXpNMjQuNzk1IDUyLjIzM2gxLjM2NXYxNi40MDVoLTEuMzY1ek0yNi45NDEgNTIuMjMzaDEuMzc0djE2LjQwNWgtMS4zNzR6TTI5LjIgNTIuMjMzaDEuMzQ5djE2LjQwNUgyOS4yek0zMS40MzQgNTIuMjMzaDEuMzc4djE2LjQwNWgtMS4zNzh6Ii8+PC9nPjwvc3ZnPg==;strokeColor=none;strokeWidth=0;points=[];labelBackgroundColor=none;rounded=0;html=1;whiteSpace=wrap;" vertex="1" parent="1">
            <mxGeometry x="506" y="1319" width="36" height="80" as="geometry" />
          </mxCell>
        </UserObject>
        <UserObject label="&lt;div style=&quot;font-size: 1px&quot;&gt;&lt;p style=&quot;text-align:center;margin-left:0;margin-right:0;margin-top:0px;margin-bottom:0px;text-indent:0;vertical-align:middle;direction:ltr;&quot;&gt;&lt;font style=&quot;font-size: 12px; color: rgb(0, 0, 0); direction: ltr; letter-spacing: 0px; line-height: 120%; opacity: 1;&quot;&gt;RabbitMQ&lt;br&gt;服务&lt;/font&gt;&lt;/p&gt;&lt;/div&gt;" tags="Background" id="jLg2OHhgH8_k0mDhG_3J-36">
          <mxCell style="verticalAlign=middle;align=center;overflow=width;vsdxID=36;fillColor=none;gradientColor=none;image;aspect=fixed;image=data:image/svg+xml,PHN2ZyB4bWxucz0iaHR0cDovL3d3dy53My5vcmcvMjAwMC9zdmciIGhlaWdodD0iODAuMDAwMTk4MzY0MjU3ODEiIHdpZHRoPSIzNi4wMDAyMDk4MDgzNDk2MSIgeG1sOnNwYWNlPSJwcmVzZXJ2ZSIgdmlld0JveD0iLTAuMDAwMTQ3MDQ5Nzk1NDg2OTY0MjkgLTAuMDAwMTI3MzU0MjAwMjMwOTExMzcgMzYuMDAwMjA5ODA4MzQ5NjEgODAuMDAwMTk4MzY0MjU3ODEiPjxwYXRoIGQ9Ik0zMy4yNzkgODBIMi43MTZBMi42OTcgMi42OTcgMCAwIDEgMCA3Ny4yODNWMi43MThBMi42OSAyLjY5IDAgMCAxIDIuNzE2IDBoMzAuNTYzQTIuNyAyLjcgMCAwIDEgMzYgMi43MTh2NzQuNTY1QzM2IDc4LjcwNSAzNC43OTMgODAgMzMuMjc5IDgwIiBmaWxsPSIjMUUzOTQ3Ii8+PHBhdGggZD0iTS4wODEgNi4zOThIMzZ2Ljg4NEguMDgxek0uMDgxIDY5LjUxOGgzNS45MTh2Ljg4NEguMDgxeiIgZmlsbD0iI0RDRTlGNyIvPjxwYXRoIGQ9Ik0wIDUxLjEyNmgzNnYuNDgxSDB6IiBmaWxsPSIjMUE2Njg0Ii8+PHBhdGggZD0iTTUuMiAxMS42OGgyNS43NTF2My4xMTlINS4yek01LjIgMTUuNjA4aDI1Ljc1MXYzLjExNEg1LjJ6IiBmaWxsPSIjMjM2QThFIi8+PHBhdGggZD0iTTUuODMzIDEyLjg3N2g0LjY0OHYuOTY2SDUuODMzek01LjgzMyAxNi43Mmg0LjY0OHYuOTUzSDUuODMzeiIgZmlsbD0iI0RDRTlGNyIvPjxwYXRoIGQ9Ik01LjIgMjAuNjQyaDI1Ljc1MXYzLjEyMUg1LjJ6TTUuMiAyNC41NTdoMjUuNzUxdjMuMTE2SDUuMnoiIGZpbGw9IiMyMzZBOEUiLz48cGF0aCBkPSJNNS44MzMgMjEuODQxaDQuNjQ4di45NTZINS44MzN6TTUuODMzIDI1LjY4N2g0LjY0OHYuOTUzSDUuODMzeiIgZmlsbD0iI0RDRTlGNyIvPjxwYXRoIGQ9Ik01LjIgMzEuMjc3aDI1Ljc1MXYzLjExNEg1LjJ6TTUuMiAzNS4yMDFoMjUuNzUxdjMuMTE5SDUuMnoiIGZpbGw9IiMyMzZBOEUiLz48cGF0aCBkPSJNNS44MzMgMzIuNDgzaDQuNjQ4di45NTdINS44MzN6TTUuODMzIDM2LjMxOGg0LjY0OHYuOTY0SDUuODMzeiIgZmlsbD0iI0RDRTlGNyIvPjxwYXRoIG9wYWNpdHk9Ii42MiIgZD0iTTMxLjY3NSA3Mi45NThjLjczNCAwIDEuMzU4LjYwNCAxLjM1OCAxLjM2NyAwIC43NDQtLjYyNCAxLjM0OS0xLjM1OCAxLjM0OS0uNzM4IDAtMS4zNjMtLjYwNC0xLjM2My0xLjM0OWExLjM3IDEuMzcgMCAwIDEgMS4zNjMtMS4zNjciIGZpbGw9IiNGRjQ2NkEiLz48cGF0aCBvcGFjaXR5PSIuNjIiIGQ9Ik0yNi42MjkgNzIuOTU4Yy43NTkgMCAxLjM2NC42MDQgMS4zNjQgMS4zNjcgMCAuNzQ0LS42MDUgMS4zNDktMS4zNjQgMS4zNDlhMS4zNSAxLjM1IDAgMCAxLTEuMzUyLTEuMzQ5YzAtLjc2Mi42MDYtMS4zNjcgMS4zNTItMS4zNjciIGZpbGw9IiM0M0QxOTAiLz48ZyBmaWxsPSIjMDQxMzIzIj48cGF0aCBkPSJNMi43MTYgNTIuMjMzaDEuMzZ2MTYuNDA1aC0xLjM2ek00Ljk1OSA1Mi4yMzNoMS4zNTh2MTYuNDA1SDQuOTU5ek03LjEyMiA1Mi4yMzNIOC40OHYxNi40MDVINy4xMjJ6TTkuMzUzIDUyLjIzM2gxLjM2M3YxNi40MDVIOS4zNTN6TTExLjUxNyA1Mi4yMzNoMS4zNTh2MTYuNDA1aC0xLjM1OHpNMTMuNzYgNTIuMjMzaDEuMzU4djE2LjQwNUgxMy43NnpNMTUuOTExIDUyLjIzM2gxLjM2NnYxNi40MDVoLTEuMzY2ek0xOC4xNTYgNTIuMjMzaDEuMzc2djE2LjQwNWgtMS4zNzZ6TTIwLjM4IDUyLjIzM2gxLjM3N3YxNi40MDVIMjAuMzh6TTIyLjU2MiA1Mi4yMzNoMS4zNDl2MTYuNDA1aC0xLjM0OXpNMjQuNzk1IDUyLjIzM2gxLjM2NXYxNi40MDVoLTEuMzY1ek0yNi45NDEgNTIuMjMzaDEuMzc0djE2LjQwNWgtMS4zNzR6TTI5LjIgNTIuMjMzaDEuMzQ5djE2LjQwNUgyOS4yek0zMS40MzQgNTIuMjMzaDEuMzc4djE2LjQwNWgtMS4zNzh6Ii8+PC9nPjwvc3ZnPg==;strokeColor=none;strokeWidth=0;points=[];labelBackgroundColor=none;rounded=0;html=1;whiteSpace=wrap;" vertex="1" parent="1">
            <mxGeometry x="867" y="1319" width="36" height="80" as="geometry" />
          </mxCell>
        </UserObject>
        <UserObject label="&lt;div style=&quot;font-size: 1px&quot;&gt;&lt;p style=&quot;text-align:center;margin-left:0;margin-right:0;margin-top:0px;margin-bottom:0px;text-indent:0;vertical-align:middle;direction:ltr;&quot;&gt;&lt;font style=&quot;font-size: 12px; color: rgb(0, 0, 0); direction: ltr; letter-spacing: 0px; line-height: 120%; opacity: 1;&quot;&gt;M&lt;/font&gt;&lt;span style=&quot;color: light-dark(rgb(0, 0, 0), rgb(237, 237, 237)); font-size: 12px; letter-spacing: 0px; background-color: transparent;&quot;&gt;inIO服务&lt;/span&gt;&lt;/p&gt;&lt;/div&gt;" tags="Background" id="jLg2OHhgH8_k0mDhG_3J-37">
          <mxCell style="verticalAlign=middle;align=center;overflow=width;vsdxID=37;fillColor=none;gradientColor=none;image;aspect=fixed;image=data:image/svg+xml,PHN2ZyB4bWxucz0iaHR0cDovL3d3dy53My5vcmcvMjAwMC9zdmciIGhlaWdodD0iODAuMDAwMTk4MzY0MjU3ODEiIHdpZHRoPSIzNi4wMDAyMDk4MDgzNDk2MSIgeG1sOnNwYWNlPSJwcmVzZXJ2ZSIgdmlld0JveD0iLTAuMDAwMTQ3MDQ5Nzk1NDg2OTY0MjkgLTAuMDAwMTI3MzU0MjAwMjMwOTExMzcgMzYuMDAwMjA5ODA4MzQ5NjEgODAuMDAwMTk4MzY0MjU3ODEiPjxwYXRoIGQ9Ik0zMy4yNzkgODBIMi43MTZBMi42OTcgMi42OTcgMCAwIDEgMCA3Ny4yODNWMi43MThBMi42OSAyLjY5IDAgMCAxIDIuNzE2IDBoMzAuNTYzQTIuNyAyLjcgMCAwIDEgMzYgMi43MTh2NzQuNTY1QzM2IDc4LjcwNSAzNC43OTMgODAgMzMuMjc5IDgwIiBmaWxsPSIjMUUzOTQ3Ii8+PHBhdGggZD0iTS4wODEgNi4zOThIMzZ2Ljg4NEguMDgxek0uMDgxIDY5LjUxOGgzNS45MTh2Ljg4NEguMDgxeiIgZmlsbD0iI0RDRTlGNyIvPjxwYXRoIGQ9Ik0wIDUxLjEyNmgzNnYuNDgxSDB6IiBmaWxsPSIjMUE2Njg0Ii8+PHBhdGggZD0iTTUuMiAxMS42OGgyNS43NTF2My4xMTlINS4yek01LjIgMTUuNjA4aDI1Ljc1MXYzLjExNEg1LjJ6IiBmaWxsPSIjMjM2QThFIi8+PHBhdGggZD0iTTUuODMzIDEyLjg3N2g0LjY0OHYuOTY2SDUuODMzek01LjgzMyAxNi43Mmg0LjY0OHYuOTUzSDUuODMzeiIgZmlsbD0iI0RDRTlGNyIvPjxwYXRoIGQ9Ik01LjIgMjAuNjQyaDI1Ljc1MXYzLjEyMUg1LjJ6TTUuMiAyNC41NTdoMjUuNzUxdjMuMTE2SDUuMnoiIGZpbGw9IiMyMzZBOEUiLz48cGF0aCBkPSJNNS44MzMgMjEuODQxaDQuNjQ4di45NTZINS44MzN6TTUuODMzIDI1LjY4N2g0LjY0OHYuOTUzSDUuODMzeiIgZmlsbD0iI0RDRTlGNyIvPjxwYXRoIGQ9Ik01LjIgMzEuMjc3aDI1Ljc1MXYzLjExNEg1LjJ6TTUuMiAzNS4yMDFoMjUuNzUxdjMuMTE5SDUuMnoiIGZpbGw9IiMyMzZBOEUiLz48cGF0aCBkPSJNNS44MzMgMzIuNDgzaDQuNjQ4di45NTdINS44MzN6TTUuODMzIDM2LjMxOGg0LjY0OHYuOTY0SDUuODMzeiIgZmlsbD0iI0RDRTlGNyIvPjxwYXRoIG9wYWNpdHk9Ii42MiIgZD0iTTMxLjY3NSA3Mi45NThjLjczNCAwIDEuMzU4LjYwNCAxLjM1OCAxLjM2NyAwIC43NDQtLjYyNCAxLjM0OS0xLjM1OCAxLjM0OS0uNzM4IDAtMS4zNjMtLjYwNC0xLjM2My0xLjM0OWExLjM3IDEuMzcgMCAwIDEgMS4zNjMtMS4zNjciIGZpbGw9IiNGRjQ2NkEiLz48cGF0aCBvcGFjaXR5PSIuNjIiIGQ9Ik0yNi42MjkgNzIuOTU4Yy43NTkgMCAxLjM2NC42MDQgMS4zNjQgMS4zNjcgMCAuNzQ0LS42MDUgMS4zNDktMS4zNjQgMS4zNDlhMS4zNSAxLjM1IDAgMCAxLTEuMzUyLTEuMzQ5YzAtLjc2Mi42MDYtMS4zNjcgMS4zNTItMS4zNjciIGZpbGw9IiM0M0QxOTAiLz48ZyBmaWxsPSIjMDQxMzIzIj48cGF0aCBkPSJNMi43MTYgNTIuMjMzaDEuMzZ2MTYuNDA1aC0xLjM2ek00Ljk1OSA1Mi4yMzNoMS4zNTh2MTYuNDA1SDQuOTU5ek03LjEyMiA1Mi4yMzNIOC40OHYxNi40MDVINy4xMjJ6TTkuMzUzIDUyLjIzM2gxLjM2M3YxNi40MDVIOS4zNTN6TTExLjUxNyA1Mi4yMzNoMS4zNTh2MTYuNDA1aC0xLjM1OHpNMTMuNzYgNTIuMjMzaDEuMzU4djE2LjQwNUgxMy43NnpNMTUuOTExIDUyLjIzM2gxLjM2NnYxNi40MDVoLTEuMzY2ek0xOC4xNTYgNTIuMjMzaDEuMzc2djE2LjQwNWgtMS4zNzZ6TTIwLjM4IDUyLjIzM2gxLjM3N3YxNi40MDVIMjAuMzh6TTIyLjU2MiA1Mi4yMzNoMS4zNDl2MTYuNDA1aC0xLjM0OXpNMjQuNzk1IDUyLjIzM2gxLjM2NXYxNi40MDVoLTEuMzY1ek0yNi45NDEgNTIuMjMzaDEuMzc0djE2LjQwNWgtMS4zNzR6TTI5LjIgNTIuMjMzaDEuMzQ5djE2LjQwNUgyOS4yek0zMS40MzQgNTIuMjMzaDEuMzc4djE2LjQwNWgtMS4zNzh6Ii8+PC9nPjwvc3ZnPg==;strokeColor=none;strokeWidth=0;points=[];labelBackgroundColor=none;rounded=0;html=1;whiteSpace=wrap;" vertex="1" parent="1">
            <mxGeometry x="1214" y="1319" width="36" height="80" as="geometry" />
          </mxCell>
        </UserObject>
        <UserObject label="&lt;div style=&quot;font-size: 1px&quot;&gt;&lt;p style=&quot;text-align:center;margin-left:0;margin-right:0;margin-top:0px;margin-bottom:0px;text-indent:0;vertical-align:middle;direction:ltr;&quot;&gt;&lt;font style=&quot;font-size:12px;font-family:0;color:#000000;direction:ltr;letter-spacing:0px;line-height:120%;opacity:1&quot;&gt;基础设施服务&lt;/font&gt;&lt;/p&gt;&lt;/div&gt;" tags="Background" id="jLg2OHhgH8_k0mDhG_3J-38">
          <mxCell style="verticalAlign=middle;align=center;overflow=width;vsdxID=38;fillColor=none;gradientColor=none;image;aspect=fixed;image=data:image/svg+xml,PHN2ZyB4bWxucz0iaHR0cDovL3d3dy53My5vcmcvMjAwMC9zdmciIGhlaWdodD0iODAuMDAwMTk4MzY0MjU3ODEiIHdpZHRoPSIzNi4wMDAyMDk4MDgzNDk2MSIgeG1sOnNwYWNlPSJwcmVzZXJ2ZSIgdmlld0JveD0iLTAuMDAwMTQ3MDQ5Nzk1NDg2OTY0MjkgLTAuMDAwMTI3MzU0MjAwMjMwOTExMzcgMzYuMDAwMjA5ODA4MzQ5NjEgODAuMDAwMTk4MzY0MjU3ODEiPjxwYXRoIGQ9Ik0zMy4yNzkgODBIMi43MTZBMi42OTcgMi42OTcgMCAwIDEgMCA3Ny4yODNWMi43MThBMi42OSAyLjY5IDAgMCAxIDIuNzE2IDBoMzAuNTYzQTIuNyAyLjcgMCAwIDEgMzYgMi43MTh2NzQuNTY1QzM2IDc4LjcwNSAzNC43OTMgODAgMzMuMjc5IDgwIiBmaWxsPSIjMUUzOTQ3Ii8+PHBhdGggZD0iTS4wODEgNi4zOThIMzZ2Ljg4NEguMDgxek0uMDgxIDY5LjUxOGgzNS45MTh2Ljg4NEguMDgxeiIgZmlsbD0iI0RDRTlGNyIvPjxwYXRoIGQ9Ik0wIDUxLjEyNmgzNnYuNDgxSDB6IiBmaWxsPSIjMUE2Njg0Ii8+PHBhdGggZD0iTTUuMiAxMS42OGgyNS43NTF2My4xMTlINS4yek01LjIgMTUuNjA4aDI1Ljc1MXYzLjExNEg1LjJ6IiBmaWxsPSIjMjM2QThFIi8+PHBhdGggZD0iTTUuODMzIDEyLjg3N2g0LjY0OHYuOTY2SDUuODMzek01LjgzMyAxNi43Mmg0LjY0OHYuOTUzSDUuODMzeiIgZmlsbD0iI0RDRTlGNyIvPjxwYXRoIGQ9Ik01LjIgMjAuNjQyaDI1Ljc1MXYzLjEyMUg1LjJ6TTUuMiAyNC41NTdoMjUuNzUxdjMuMTE2SDUuMnoiIGZpbGw9IiMyMzZBOEUiLz48cGF0aCBkPSJNNS44MzMgMjEuODQxaDQuNjQ4di45NTZINS44MzN6TTUuODMzIDI1LjY4N2g0LjY0OHYuOTUzSDUuODMzeiIgZmlsbD0iI0RDRTlGNyIvPjxwYXRoIGQ9Ik01LjIgMzEuMjc3aDI1Ljc1MXYzLjExNEg1LjJ6TTUuMiAzNS4yMDFoMjUuNzUxdjMuMTE5SDUuMnoiIGZpbGw9IiMyMzZBOEUiLz48cGF0aCBkPSJNNS44MzMgMzIuNDgzaDQuNjQ4di45NTdINS44MzN6TTUuODMzIDM2LjMxOGg0LjY0OHYuOTY0SDUuODMzeiIgZmlsbD0iI0RDRTlGNyIvPjxwYXRoIG9wYWNpdHk9Ii42MiIgZD0iTTMxLjY3NSA3Mi45NThjLjczNCAwIDEuMzU4LjYwNCAxLjM1OCAxLjM2NyAwIC43NDQtLjYyNCAxLjM0OS0xLjM1OCAxLjM0OS0uNzM4IDAtMS4zNjMtLjYwNC0xLjM2My0xLjM0OWExLjM3IDEuMzcgMCAwIDEgMS4zNjMtMS4zNjciIGZpbGw9IiNGRjQ2NkEiLz48cGF0aCBvcGFjaXR5PSIuNjIiIGQ9Ik0yNi42MjkgNzIuOTU4Yy43NTkgMCAxLjM2NC42MDQgMS4zNjQgMS4zNjcgMCAuNzQ0LS42MDUgMS4zNDktMS4zNjQgMS4zNDlhMS4zNSAxLjM1IDAgMCAxLTEuMzUyLTEuMzQ5YzAtLjc2Mi42MDYtMS4zNjcgMS4zNTItMS4zNjciIGZpbGw9IiM0M0QxOTAiLz48ZyBmaWxsPSIjMDQxMzIzIj48cGF0aCBkPSJNMi43MTYgNTIuMjMzaDEuMzZ2MTYuNDA1aC0xLjM2ek00Ljk1OSA1Mi4yMzNoMS4zNTh2MTYuNDA1SDQuOTU5ek03LjEyMiA1Mi4yMzNIOC40OHYxNi40MDVINy4xMjJ6TTkuMzUzIDUyLjIzM2gxLjM2M3YxNi40MDVIOS4zNTN6TTExLjUxNyA1Mi4yMzNoMS4zNTh2MTYuNDA1aC0xLjM1OHpNMTMuNzYgNTIuMjMzaDEuMzU4djE2LjQwNUgxMy43NnpNMTUuOTExIDUyLjIzM2gxLjM2NnYxNi40MDVoLTEuMzY2ek0xOC4xNTYgNTIuMjMzaDEuMzc2djE2LjQwNWgtMS4zNzZ6TTIwLjM4IDUyLjIzM2gxLjM3N3YxNi40MDVIMjAuMzh6TTIyLjU2MiA1Mi4yMzNoMS4zNDl2MTYuNDA1aC0xLjM0OXpNMjQuNzk1IDUyLjIzM2gxLjM2NXYxNi40MDVoLTEuMzY1ek0yNi45NDEgNTIuMjMzaDEuMzc0djE2LjQwNWgtMS4zNzR6TTI5LjIgNTIuMjMzaDEuMzQ5djE2LjQwNUgyOS4yek0zMS40MzQgNTIuMjMzaDEuMzc4djE2LjQwNWgtMS4zNzh6Ii8+PC9nPjwvc3ZnPg==;strokeColor=none;strokeWidth=0;points=[];labelBackgroundColor=none;rounded=0;html=1;whiteSpace=wrap;" vertex="1" parent="1">
            <mxGeometry x="1214" y="841" width="36" height="80" as="geometry" />
          </mxCell>
        </UserObject>
        <UserObject label="&lt;div style=&quot;font-size: 1px&quot;&gt;&lt;p style=&quot;text-align:center;margin-left:0;margin-right:0;margin-top:0px;margin-bottom:0px;text-indent:0;vertical-align:middle;direction:ltr;&quot;&gt;&lt;font style=&quot;font-size:12px;font-family:0;color:#000000;direction:ltr;letter-spacing:0px;line-height:120%;opacity:1&quot;&gt;job服务&lt;/font&gt;&lt;/p&gt;&lt;/div&gt;" tags="Background" id="jLg2OHhgH8_k0mDhG_3J-39">
          <mxCell style="verticalAlign=middle;align=center;overflow=width;vsdxID=39;fillColor=none;gradientColor=none;image;aspect=fixed;image=data:image/svg+xml,PHN2ZyB4bWxucz0iaHR0cDovL3d3dy53My5vcmcvMjAwMC9zdmciIGhlaWdodD0iODAuMDAwMTk4MzY0MjU3ODEiIHdpZHRoPSIzNi4wMDAyMDk4MDgzNDk2MSIgeG1sOnNwYWNlPSJwcmVzZXJ2ZSIgdmlld0JveD0iLTAuMDAwMTQ3MDQ5Nzk1NDg2OTY0MjkgLTAuMDAwMTI3MzU0MjAwMjMwOTExMzcgMzYuMDAwMjA5ODA4MzQ5NjEgODAuMDAwMTk4MzY0MjU3ODEiPjxwYXRoIGQ9Ik0zMy4yNzkgODBIMi43MTZBMi42OTcgMi42OTcgMCAwIDEgMCA3Ny4yODNWMi43MThBMi42OSAyLjY5IDAgMCAxIDIuNzE2IDBoMzAuNTYzQTIuNyAyLjcgMCAwIDEgMzYgMi43MTh2NzQuNTY1QzM2IDc4LjcwNSAzNC43OTMgODAgMzMuMjc5IDgwIiBmaWxsPSIjMUUzOTQ3Ii8+PHBhdGggZD0iTS4wODEgNi4zOThIMzZ2Ljg4NEguMDgxek0uMDgxIDY5LjUxOGgzNS45MTh2Ljg4NEguMDgxeiIgZmlsbD0iI0RDRTlGNyIvPjxwYXRoIGQ9Ik0wIDUxLjEyNmgzNnYuNDgxSDB6IiBmaWxsPSIjMUE2Njg0Ii8+PHBhdGggZD0iTTUuMiAxMS42OGgyNS43NTF2My4xMTlINS4yek01LjIgMTUuNjA4aDI1Ljc1MXYzLjExNEg1LjJ6IiBmaWxsPSIjMjM2QThFIi8+PHBhdGggZD0iTTUuODMzIDEyLjg3N2g0LjY0OHYuOTY2SDUuODMzek01LjgzMyAxNi43Mmg0LjY0OHYuOTUzSDUuODMzeiIgZmlsbD0iI0RDRTlGNyIvPjxwYXRoIGQ9Ik01LjIgMjAuNjQyaDI1Ljc1MXYzLjEyMUg1LjJ6TTUuMiAyNC41NTdoMjUuNzUxdjMuMTE2SDUuMnoiIGZpbGw9IiMyMzZBOEUiLz48cGF0aCBkPSJNNS44MzMgMjEuODQxaDQuNjQ4di45NTZINS44MzN6TTUuODMzIDI1LjY4N2g0LjY0OHYuOTUzSDUuODMzeiIgZmlsbD0iI0RDRTlGNyIvPjxwYXRoIGQ9Ik01LjIgMzEuMjc3aDI1Ljc1MXYzLjExNEg1LjJ6TTUuMiAzNS4yMDFoMjUuNzUxdjMuMTE5SDUuMnoiIGZpbGw9IiMyMzZBOEUiLz48cGF0aCBkPSJNNS44MzMgMzIuNDgzaDQuNjQ4di45NTdINS44MzN6TTUuODMzIDM2LjMxOGg0LjY0OHYuOTY0SDUuODMzeiIgZmlsbD0iI0RDRTlGNyIvPjxwYXRoIG9wYWNpdHk9Ii42MiIgZD0iTTMxLjY3NSA3Mi45NThjLjczNCAwIDEuMzU4LjYwNCAxLjM1OCAxLjM2NyAwIC43NDQtLjYyNCAxLjM0OS0xLjM1OCAxLjM0OS0uNzM4IDAtMS4zNjMtLjYwNC0xLjM2My0xLjM0OWExLjM3IDEuMzcgMCAwIDEgMS4zNjMtMS4zNjciIGZpbGw9IiNGRjQ2NkEiLz48cGF0aCBvcGFjaXR5PSIuNjIiIGQ9Ik0yNi42MjkgNzIuOTU4Yy43NTkgMCAxLjM2NC42MDQgMS4zNjQgMS4zNjcgMCAuNzQ0LS42MDUgMS4zNDktMS4zNjQgMS4zNDlhMS4zNSAxLjM1IDAgMCAxLTEuMzUyLTEuMzQ5YzAtLjc2Mi42MDYtMS4zNjcgMS4zNTItMS4zNjciIGZpbGw9IiM0M0QxOTAiLz48ZyBmaWxsPSIjMDQxMzIzIj48cGF0aCBkPSJNMi43MTYgNTIuMjMzaDEuMzZ2MTYuNDA1aC0xLjM2ek00Ljk1OSA1Mi4yMzNoMS4zNTh2MTYuNDA1SDQuOTU5ek03LjEyMiA1Mi4yMzNIOC40OHYxNi40MDVINy4xMjJ6TTkuMzUzIDUyLjIzM2gxLjM2M3YxNi40MDVIOS4zNTN6TTExLjUxNyA1Mi4yMzNoMS4zNTh2MTYuNDA1aC0xLjM1OHpNMTMuNzYgNTIuMjMzaDEuMzU4djE2LjQwNUgxMy43NnpNMTUuOTExIDUyLjIzM2gxLjM2NnYxNi40MDVoLTEuMzY2ek0xOC4xNTYgNTIuMjMzaDEuMzc2djE2LjQwNWgtMS4zNzZ6TTIwLjM4IDUyLjIzM2gxLjM3N3YxNi40MDVIMjAuMzh6TTIyLjU2MiA1Mi4yMzNoMS4zNDl2MTYuNDA1aC0xLjM0OXpNMjQuNzk1IDUyLjIzM2gxLjM2NXYxNi40MDVoLTEuMzY1ek0yNi45NDEgNTIuMjMzaDEuMzc0djE2LjQwNWgtMS4zNzR6TTI5LjIgNTIuMjMzaDEuMzQ5djE2LjQwNUgyOS4yek0zMS40MzQgNTIuMjMzaDEuMzc4djE2LjQwNWgtMS4zNzh6Ii8+PC9nPjwvc3ZnPg==;strokeColor=none;strokeWidth=0;points=[];labelBackgroundColor=none;rounded=0;html=1;whiteSpace=wrap;" vertex="1" parent="1">
            <mxGeometry x="1400" y="1146" width="36" height="80" as="geometry" />
          </mxCell>
        </UserObject>
        <UserObject label="&lt;div style=&quot;font-size: 1px&quot;&gt;&lt;p style=&quot;text-align:center;margin-left:0;margin-right:0;margin-top:0px;margin-bottom:0px;text-indent:0;vertical-align:middle;direction:ltr;&quot;&gt;&lt;font style=&quot;font-size:12px;font-family:0;color:#000000;direction:ltr;letter-spacing:0px;line-height:120%;opacity:1&quot;&gt;用户&amp;amp;权限服务&lt;/font&gt;&lt;/p&gt;&lt;/div&gt;" tags="Background" id="jLg2OHhgH8_k0mDhG_3J-40">
          <mxCell style="verticalAlign=middle;align=center;overflow=width;vsdxID=40;fillColor=none;gradientColor=none;image;aspect=fixed;image=data:image/svg+xml,PHN2ZyB4bWxucz0iaHR0cDovL3d3dy53My5vcmcvMjAwMC9zdmciIGhlaWdodD0iODAuMDAwMTk4MzY0MjU3ODEiIHdpZHRoPSIzNi4wMDAyMDk4MDgzNDk2MSIgeG1sOnNwYWNlPSJwcmVzZXJ2ZSIgdmlld0JveD0iLTAuMDAwMTQ3MDQ5Nzk1NDg2OTY0MjkgLTAuMDAwMTI3MzU0MjAwMjMwOTExMzcgMzYuMDAwMjA5ODA4MzQ5NjEgODAuMDAwMTk4MzY0MjU3ODEiPjxwYXRoIGQ9Ik0zMy4yNzkgODBIMi43MTZBMi42OTcgMi42OTcgMCAwIDEgMCA3Ny4yODNWMi43MThBMi42OSAyLjY5IDAgMCAxIDIuNzE2IDBoMzAuNTYzQTIuNyAyLjcgMCAwIDEgMzYgMi43MTh2NzQuNTY1QzM2IDc4LjcwNSAzNC43OTMgODAgMzMuMjc5IDgwIiBmaWxsPSIjMUUzOTQ3Ii8+PHBhdGggZD0iTS4wODEgNi4zOThIMzZ2Ljg4NEguMDgxek0uMDgxIDY5LjUxOGgzNS45MTh2Ljg4NEguMDgxeiIgZmlsbD0iI0RDRTlGNyIvPjxwYXRoIGQ9Ik0wIDUxLjEyNmgzNnYuNDgxSDB6IiBmaWxsPSIjMUE2Njg0Ii8+PHBhdGggZD0iTTUuMiAxMS42OGgyNS43NTF2My4xMTlINS4yek01LjIgMTUuNjA4aDI1Ljc1MXYzLjExNEg1LjJ6IiBmaWxsPSIjMjM2QThFIi8+PHBhdGggZD0iTTUuODMzIDEyLjg3N2g0LjY0OHYuOTY2SDUuODMzek01LjgzMyAxNi43Mmg0LjY0OHYuOTUzSDUuODMzeiIgZmlsbD0iI0RDRTlGNyIvPjxwYXRoIGQ9Ik01LjIgMjAuNjQyaDI1Ljc1MXYzLjEyMUg1LjJ6TTUuMiAyNC41NTdoMjUuNzUxdjMuMTE2SDUuMnoiIGZpbGw9IiMyMzZBOEUiLz48cGF0aCBkPSJNNS44MzMgMjEuODQxaDQuNjQ4di45NTZINS44MzN6TTUuODMzIDI1LjY4N2g0LjY0OHYuOTUzSDUuODMzeiIgZmlsbD0iI0RDRTlGNyIvPjxwYXRoIGQ9Ik01LjIgMzEuMjc3aDI1Ljc1MXYzLjExNEg1LjJ6TTUuMiAzNS4yMDFoMjUuNzUxdjMuMTE5SDUuMnoiIGZpbGw9IiMyMzZBOEUiLz48cGF0aCBkPSJNNS44MzMgMzIuNDgzaDQuNjQ4di45NTdINS44MzN6TTUuODMzIDM2LjMxOGg0LjY0OHYuOTY0SDUuODMzeiIgZmlsbD0iI0RDRTlGNyIvPjxwYXRoIG9wYWNpdHk9Ii42MiIgZD0iTTMxLjY3NSA3Mi45NThjLjczNCAwIDEuMzU4LjYwNCAxLjM1OCAxLjM2NyAwIC43NDQtLjYyNCAxLjM0OS0xLjM1OCAxLjM0OS0uNzM4IDAtMS4zNjMtLjYwNC0xLjM2My0xLjM0OWExLjM3IDEuMzcgMCAwIDEgMS4zNjMtMS4zNjciIGZpbGw9IiNGRjQ2NkEiLz48cGF0aCBvcGFjaXR5PSIuNjIiIGQ9Ik0yNi42MjkgNzIuOTU4Yy43NTkgMCAxLjM2NC42MDQgMS4zNjQgMS4zNjcgMCAuNzQ0LS42MDUgMS4zNDktMS4zNjQgMS4zNDlhMS4zNSAxLjM1IDAgMCAxLTEuMzUyLTEuMzQ5YzAtLjc2Mi42MDYtMS4zNjcgMS4zNTItMS4zNjciIGZpbGw9IiM0M0QxOTAiLz48ZyBmaWxsPSIjMDQxMzIzIj48cGF0aCBkPSJNMi43MTYgNTIuMjMzaDEuMzZ2MTYuNDA1aC0xLjM2ek00Ljk1OSA1Mi4yMzNoMS4zNTh2MTYuNDA1SDQuOTU5ek03LjEyMiA1Mi4yMzNIOC40OHYxNi40MDVINy4xMjJ6TTkuMzUzIDUyLjIzM2gxLjM2M3YxNi40MDVIOS4zNTN6TTExLjUxNyA1Mi4yMzNoMS4zNTh2MTYuNDA1aC0xLjM1OHpNMTMuNzYgNTIuMjMzaDEuMzU4djE2LjQwNUgxMy43NnpNMTUuOTExIDUyLjIzM2gxLjM2NnYxNi40MDVoLTEuMzY2ek0xOC4xNTYgNTIuMjMzaDEuMzc2djE2LjQwNWgtMS4zNzZ6TTIwLjM4IDUyLjIzM2gxLjM3N3YxNi40MDVIMjAuMzh6TTIyLjU2MiA1Mi4yMzNoMS4zNDl2MTYuNDA1aC0xLjM0OXpNMjQuNzk1IDUyLjIzM2gxLjM2NXYxNi40MDVoLTEuMzY1ek0yNi45NDEgNTIuMjMzaDEuMzc0djE2LjQwNWgtMS4zNzR6TTI5LjIgNTIuMjMzaDEuMzQ5djE2LjQwNUgyOS4yek0zMS40MzQgNTIuMjMzaDEuMzc4djE2LjQwNWgtMS4zNzh6Ii8+PC9nPjwvc3ZnPg==;strokeColor=none;strokeWidth=0;points=[];labelBackgroundColor=none;rounded=0;html=1;whiteSpace=wrap;" vertex="1" parent="1">
            <mxGeometry x="1400" y="852" width="36" height="80" as="geometry" />
          </mxCell>
        </UserObject>
        <UserObject label="&lt;div style=&quot;font-size: 1px&quot;&gt;&lt;p style=&quot;text-align:center;margin-left:0;margin-right:0;margin-top:0px;margin-bottom:0px;text-indent:0;vertical-align:middle;direction:ltr;&quot;&gt;&lt;font style=&quot;font-size:12px;font-family:0;color:#000000;direction:ltr;letter-spacing:0px;line-height:120%;opacity:1&quot;&gt;数据查询&lt;/font&gt;&lt;/p&gt;&lt;/div&gt;" tags="Background" id="jLg2OHhgH8_k0mDhG_3J-41">
          <mxCell style="verticalAlign=middle;align=center;overflow=width;vsdxID=41;fillColor=none;gradientColor=none;image;aspect=fixed;image=data:image/svg+xml,PHN2ZyB4bWxucz0iaHR0cDovL3d3dy53My5vcmcvMjAwMC9zdmciIGhlaWdodD0iODAuMDAwMTk4MzY0MjU3ODEiIHdpZHRoPSIzNi4wMDAyMDk4MDgzNDk2MSIgeG1sOnNwYWNlPSJwcmVzZXJ2ZSIgdmlld0JveD0iLTAuMDAwMTQ3MDQ5Nzk1NDg2OTY0MjkgLTAuMDAwMTI3MzU0MjAwMjMwOTExMzcgMzYuMDAwMjA5ODA4MzQ5NjEgODAuMDAwMTk4MzY0MjU3ODEiPjxwYXRoIGQ9Ik0zMy4yNzkgODBIMi43MTZBMi42OTcgMi42OTcgMCAwIDEgMCA3Ny4yODNWMi43MThBMi42OSAyLjY5IDAgMCAxIDIuNzE2IDBoMzAuNTYzQTIuNyAyLjcgMCAwIDEgMzYgMi43MTh2NzQuNTY1QzM2IDc4LjcwNSAzNC43OTMgODAgMzMuMjc5IDgwIiBmaWxsPSIjMUUzOTQ3Ii8+PHBhdGggZD0iTS4wODEgNi4zOThIMzZ2Ljg4NEguMDgxek0uMDgxIDY5LjUxOGgzNS45MTh2Ljg4NEguMDgxeiIgZmlsbD0iI0RDRTlGNyIvPjxwYXRoIGQ9Ik0wIDUxLjEyNmgzNnYuNDgxSDB6IiBmaWxsPSIjMUE2Njg0Ii8+PHBhdGggZD0iTTUuMiAxMS42OGgyNS43NTF2My4xMTlINS4yek01LjIgMTUuNjA4aDI1Ljc1MXYzLjExNEg1LjJ6IiBmaWxsPSIjMjM2QThFIi8+PHBhdGggZD0iTTUuODMzIDEyLjg3N2g0LjY0OHYuOTY2SDUuODMzek01LjgzMyAxNi43Mmg0LjY0OHYuOTUzSDUuODMzeiIgZmlsbD0iI0RDRTlGNyIvPjxwYXRoIGQ9Ik01LjIgMjAuNjQyaDI1Ljc1MXYzLjEyMUg1LjJ6TTUuMiAyNC41NTdoMjUuNzUxdjMuMTE2SDUuMnoiIGZpbGw9IiMyMzZBOEUiLz48cGF0aCBkPSJNNS44MzMgMjEuODQxaDQuNjQ4di45NTZINS44MzN6TTUuODMzIDI1LjY4N2g0LjY0OHYuOTUzSDUuODMzeiIgZmlsbD0iI0RDRTlGNyIvPjxwYXRoIGQ9Ik01LjIgMzEuMjc3aDI1Ljc1MXYzLjExNEg1LjJ6TTUuMiAzNS4yMDFoMjUuNzUxdjMuMTE5SDUuMnoiIGZpbGw9IiMyMzZBOEUiLz48cGF0aCBkPSJNNS44MzMgMzIuNDgzaDQuNjQ4di45NTdINS44MzN6TTUuODMzIDM2LjMxOGg0LjY0OHYuOTY0SDUuODMzeiIgZmlsbD0iI0RDRTlGNyIvPjxwYXRoIG9wYWNpdHk9Ii42MiIgZD0iTTMxLjY3NSA3Mi45NThjLjczNCAwIDEuMzU4LjYwNCAxLjM1OCAxLjM2NyAwIC43NDQtLjYyNCAxLjM0OS0xLjM1OCAxLjM0OS0uNzM4IDAtMS4zNjMtLjYwNC0xLjM2My0xLjM0OWExLjM3IDEuMzcgMCAwIDEgMS4zNjMtMS4zNjciIGZpbGw9IiNGRjQ2NkEiLz48cGF0aCBvcGFjaXR5PSIuNjIiIGQ9Ik0yNi42MjkgNzIuOTU4Yy43NTkgMCAxLjM2NC42MDQgMS4zNjQgMS4zNjcgMCAuNzQ0LS42MDUgMS4zNDktMS4zNjQgMS4zNDlhMS4zNSAxLjM1IDAgMCAxLTEuMzUyLTEuMzQ5YzAtLjc2Mi42MDYtMS4zNjcgMS4zNTItMS4zNjciIGZpbGw9IiM0M0QxOTAiLz48ZyBmaWxsPSIjMDQxMzIzIj48cGF0aCBkPSJNMi43MTYgNTIuMjMzaDEuMzZ2MTYuNDA1aC0xLjM2ek00Ljk1OSA1Mi4yMzNoMS4zNTh2MTYuNDA1SDQuOTU5ek03LjEyMiA1Mi4yMzNIOC40OHYxNi40MDVINy4xMjJ6TTkuMzUzIDUyLjIzM2gxLjM2M3YxNi40MDVIOS4zNTN6TTExLjUxNyA1Mi4yMzNoMS4zNTh2MTYuNDA1aC0xLjM1OHpNMTMuNzYgNTIuMjMzaDEuMzU4djE2LjQwNUgxMy43NnpNMTUuOTExIDUyLjIzM2gxLjM2NnYxNi40MDVoLTEuMzY2ek0xOC4xNTYgNTIuMjMzaDEuMzc2djE2LjQwNWgtMS4zNzZ6TTIwLjM4IDUyLjIzM2gxLjM3N3YxNi40MDVIMjAuMzh6TTIyLjU2MiA1Mi4yMzNoMS4zNDl2MTYuNDA1aC0xLjM0OXpNMjQuNzk1IDUyLjIzM2gxLjM2NXYxNi40MDVoLTEuMzY1ek0yNi45NDEgNTIuMjMzaDEuMzc0djE2LjQwNWgtMS4zNzR6TTI5LjIgNTIuMjMzaDEuMzQ5djE2LjQwNUgyOS4yek0zMS40MzQgNTIuMjMzaDEuMzc4djE2LjQwNWgtMS4zNzh6Ii8+PC9nPjwvc3ZnPg==;strokeColor=none;strokeWidth=0;points=[];labelBackgroundColor=none;rounded=0;html=1;whiteSpace=wrap;" vertex="1" parent="1">
            <mxGeometry x="1094" y="841" width="36" height="80" as="geometry" />
          </mxCell>
        </UserObject>
        <UserObject label="&lt;div style=&quot;font-size: 1px&quot;&gt;&lt;p style=&quot;text-align:center;margin-left:0;margin-right:0;margin-top:0px;margin-bottom:0px;text-indent:0;vertical-align:middle;direction:ltr;&quot;&gt;&lt;font style=&quot;font-size:12px;font-family:0;color:#000000;direction:ltr;letter-spacing:0px;line-height:120%;opacity:1&quot;&gt;PC前端应用&lt;/font&gt;&lt;/p&gt;&lt;/div&gt;" tags="Background" id="jLg2OHhgH8_k0mDhG_3J-42">
          <mxCell style="verticalAlign=middle;align=center;overflow=width;vsdxID=42;fillColor=none;gradientColor=none;image;aspect=fixed;image=data:image/svg+xml,PHN2ZyB4bWxucz0iaHR0cDovL3d3dy53My5vcmcvMjAwMC9zdmciIGhlaWdodD0iODAuMDAwMTk4MzY0MjU3ODEiIHdpZHRoPSIzNi4wMDAyMDk4MDgzNDk2MSIgeG1sOnNwYWNlPSJwcmVzZXJ2ZSIgdmlld0JveD0iLTAuMDAwMTQ3MDQ5Nzk1NDg2OTY0MjkgLTAuMDAwMTI3MzU0MjAwMjMwOTExMzcgMzYuMDAwMjA5ODA4MzQ5NjEgODAuMDAwMTk4MzY0MjU3ODEiPjxwYXRoIGQ9Ik0zMy4yNzkgODBIMi43MTZBMi42OTcgMi42OTcgMCAwIDEgMCA3Ny4yODNWMi43MThBMi42OSAyLjY5IDAgMCAxIDIuNzE2IDBoMzAuNTYzQTIuNyAyLjcgMCAwIDEgMzYgMi43MTh2NzQuNTY1QzM2IDc4LjcwNSAzNC43OTMgODAgMzMuMjc5IDgwIiBmaWxsPSIjMUUzOTQ3Ii8+PHBhdGggZD0iTS4wODEgNi4zOThIMzZ2Ljg4NEguMDgxek0uMDgxIDY5LjUxOGgzNS45MTh2Ljg4NEguMDgxeiIgZmlsbD0iI0RDRTlGNyIvPjxwYXRoIGQ9Ik0wIDUxLjEyNmgzNnYuNDgxSDB6IiBmaWxsPSIjMUE2Njg0Ii8+PHBhdGggZD0iTTUuMiAxMS42OGgyNS43NTF2My4xMTlINS4yek01LjIgMTUuNjA4aDI1Ljc1MXYzLjExNEg1LjJ6IiBmaWxsPSIjMjM2QThFIi8+PHBhdGggZD0iTTUuODMzIDEyLjg3N2g0LjY0OHYuOTY2SDUuODMzek01LjgzMyAxNi43Mmg0LjY0OHYuOTUzSDUuODMzeiIgZmlsbD0iI0RDRTlGNyIvPjxwYXRoIGQ9Ik01LjIgMjAuNjQyaDI1Ljc1MXYzLjEyMUg1LjJ6TTUuMiAyNC41NTdoMjUuNzUxdjMuMTE2SDUuMnoiIGZpbGw9IiMyMzZBOEUiLz48cGF0aCBkPSJNNS44MzMgMjEuODQxaDQuNjQ4di45NTZINS44MzN6TTUuODMzIDI1LjY4N2g0LjY0OHYuOTUzSDUuODMzeiIgZmlsbD0iI0RDRTlGNyIvPjxwYXRoIGQ9Ik01LjIgMzEuMjc3aDI1Ljc1MXYzLjExNEg1LjJ6TTUuMiAzNS4yMDFoMjUuNzUxdjMuMTE5SDUuMnoiIGZpbGw9IiMyMzZBOEUiLz48cGF0aCBkPSJNNS44MzMgMzIuNDgzaDQuNjQ4di45NTdINS44MzN6TTUuODMzIDM2LjMxOGg0LjY0OHYuOTY0SDUuODMzeiIgZmlsbD0iI0RDRTlGNyIvPjxwYXRoIG9wYWNpdHk9Ii42MiIgZD0iTTMxLjY3NSA3Mi45NThjLjczNCAwIDEuMzU4LjYwNCAxLjM1OCAxLjM2NyAwIC43NDQtLjYyNCAxLjM0OS0xLjM1OCAxLjM0OS0uNzM4IDAtMS4zNjMtLjYwNC0xLjM2My0xLjM0OWExLjM3IDEuMzcgMCAwIDEgMS4zNjMtMS4zNjciIGZpbGw9IiNGRjQ2NkEiLz48cGF0aCBvcGFjaXR5PSIuNjIiIGQ9Ik0yNi42MjkgNzIuOTU4Yy43NTkgMCAxLjM2NC42MDQgMS4zNjQgMS4zNjcgMCAuNzQ0LS42MDUgMS4zNDktMS4zNjQgMS4zNDlhMS4zNSAxLjM1IDAgMCAxLTEuMzUyLTEuMzQ5YzAtLjc2Mi42MDYtMS4zNjcgMS4zNTItMS4zNjciIGZpbGw9IiM0M0QxOTAiLz48ZyBmaWxsPSIjMDQxMzIzIj48cGF0aCBkPSJNMi43MTYgNTIuMjMzaDEuMzZ2MTYuNDA1aC0xLjM2ek00Ljk1OSA1Mi4yMzNoMS4zNTh2MTYuNDA1SDQuOTU5ek03LjEyMiA1Mi4yMzNIOC40OHYxNi40MDVINy4xMjJ6TTkuMzUzIDUyLjIzM2gxLjM2M3YxNi40MDVIOS4zNTN6TTExLjUxNyA1Mi4yMzNoMS4zNTh2MTYuNDA1aC0xLjM1OHpNMTMuNzYgNTIuMjMzaDEuMzU4djE2LjQwNUgxMy43NnpNMTUuOTExIDUyLjIzM2gxLjM2NnYxNi40MDVoLTEuMzY2ek0xOC4xNTYgNTIuMjMzaDEuMzc2djE2LjQwNWgtMS4zNzZ6TTIwLjM4IDUyLjIzM2gxLjM3N3YxNi40MDVIMjAuMzh6TTIyLjU2MiA1Mi4yMzNoMS4zNDl2MTYuNDA1aC0xLjM0OXpNMjQuNzk1IDUyLjIzM2gxLjM2NXYxNi40MDVoLTEuMzY1ek0yNi45NDEgNTIuMjMzaDEuMzc0djE2LjQwNWgtMS4zNzR6TTI5LjIgNTIuMjMzaDEuMzQ5djE2LjQwNUgyOS4yek0zMS40MzQgNTIuMjMzaDEuMzc4djE2LjQwNWgtMS4zNzh6Ii8+PC9nPjwvc3ZnPg==;strokeColor=none;strokeWidth=0;points=[];labelBackgroundColor=none;rounded=0;html=1;whiteSpace=wrap;" vertex="1" parent="1">
            <mxGeometry x="1400" y="700" width="36" height="80" as="geometry" />
          </mxCell>
        </UserObject>
        <UserObject label="&lt;div style=&quot;font-size: 1px&quot;&gt;&lt;p style=&quot;text-align:center;margin-left:0;margin-right:0;margin-top:0px;margin-bottom:0px;text-indent:0;vertical-align:middle;direction:ltr;&quot;&gt;&lt;font style=&quot;font-size:12px;font-family:0;color:#000000;direction:ltr;letter-spacing:0px;line-height:120%;opacity:1&quot;&gt;移动端前端应用&lt;/font&gt;&lt;/p&gt;&lt;/div&gt;" tags="Background" id="jLg2OHhgH8_k0mDhG_3J-43">
          <mxCell style="verticalAlign=middle;align=center;overflow=width;vsdxID=43;fillColor=none;gradientColor=none;image;aspect=fixed;image=data:image/svg+xml,PHN2ZyB4bWxucz0iaHR0cDovL3d3dy53My5vcmcvMjAwMC9zdmciIGhlaWdodD0iODAuMDAwMTk4MzY0MjU3ODEiIHdpZHRoPSIzNi4wMDAyMDk4MDgzNDk2MSIgeG1sOnNwYWNlPSJwcmVzZXJ2ZSIgdmlld0JveD0iLTAuMDAwMTQ3MDQ5Nzk1NDg2OTY0MjkgLTAuMDAwMTI3MzU0MjAwMjMwOTExMzcgMzYuMDAwMjA5ODA4MzQ5NjEgODAuMDAwMTk4MzY0MjU3ODEiPjxwYXRoIGQ9Ik0zMy4yNzkgODBIMi43MTZBMi42OTcgMi42OTcgMCAwIDEgMCA3Ny4yODNWMi43MThBMi42OSAyLjY5IDAgMCAxIDIuNzE2IDBoMzAuNTYzQTIuNyAyLjcgMCAwIDEgMzYgMi43MTh2NzQuNTY1QzM2IDc4LjcwNSAzNC43OTMgODAgMzMuMjc5IDgwIiBmaWxsPSIjMUUzOTQ3Ii8+PHBhdGggZD0iTS4wODEgNi4zOThIMzZ2Ljg4NEguMDgxek0uMDgxIDY5LjUxOGgzNS45MTh2Ljg4NEguMDgxeiIgZmlsbD0iI0RDRTlGNyIvPjxwYXRoIGQ9Ik0wIDUxLjEyNmgzNnYuNDgxSDB6IiBmaWxsPSIjMUE2Njg0Ii8+PHBhdGggZD0iTTUuMiAxMS42OGgyNS43NTF2My4xMTlINS4yek01LjIgMTUuNjA4aDI1Ljc1MXYzLjExNEg1LjJ6IiBmaWxsPSIjMjM2QThFIi8+PHBhdGggZD0iTTUuODMzIDEyLjg3N2g0LjY0OHYuOTY2SDUuODMzek01LjgzMyAxNi43Mmg0LjY0OHYuOTUzSDUuODMzeiIgZmlsbD0iI0RDRTlGNyIvPjxwYXRoIGQ9Ik01LjIgMjAuNjQyaDI1Ljc1MXYzLjEyMUg1LjJ6TTUuMiAyNC41NTdoMjUuNzUxdjMuMTE2SDUuMnoiIGZpbGw9IiMyMzZBOEUiLz48cGF0aCBkPSJNNS44MzMgMjEuODQxaDQuNjQ4di45NTZINS44MzN6TTUuODMzIDI1LjY4N2g0LjY0OHYuOTUzSDUuODMzeiIgZmlsbD0iI0RDRTlGNyIvPjxwYXRoIGQ9Ik01LjIgMzEuMjc3aDI1Ljc1MXYzLjExNEg1LjJ6TTUuMiAzNS4yMDFoMjUuNzUxdjMuMTE5SDUuMnoiIGZpbGw9IiMyMzZBOEUiLz48cGF0aCBkPSJNNS44MzMgMzIuNDgzaDQuNjQ4di45NTdINS44MzN6TTUuODMzIDM2LjMxOGg0LjY0OHYuOTY0SDUuODMzeiIgZmlsbD0iI0RDRTlGNyIvPjxwYXRoIG9wYWNpdHk9Ii42MiIgZD0iTTMxLjY3NSA3Mi45NThjLjczNCAwIDEuMzU4LjYwNCAxLjM1OCAxLjM2NyAwIC43NDQtLjYyNCAxLjM0OS0xLjM1OCAxLjM0OS0uNzM4IDAtMS4zNjMtLjYwNC0xLjM2My0xLjM0OWExLjM3IDEuMzcgMCAwIDEgMS4zNjMtMS4zNjciIGZpbGw9IiNGRjQ2NkEiLz48cGF0aCBvcGFjaXR5PSIuNjIiIGQ9Ik0yNi42MjkgNzIuOTU4Yy43NTkgMCAxLjM2NC42MDQgMS4zNjQgMS4zNjcgMCAuNzQ0LS42MDUgMS4zNDktMS4zNjQgMS4zNDlhMS4zNSAxLjM1IDAgMCAxLTEuMzUyLTEuMzQ5YzAtLjc2Mi42MDYtMS4zNjcgMS4zNTItMS4zNjciIGZpbGw9IiM0M0QxOTAiLz48ZyBmaWxsPSIjMDQxMzIzIj48cGF0aCBkPSJNMi43MTYgNTIuMjMzaDEuMzZ2MTYuNDA1aC0xLjM2ek00Ljk1OSA1Mi4yMzNoMS4zNTh2MTYuNDA1SDQuOTU5ek03LjEyMiA1Mi4yMzNIOC40OHYxNi40MDVINy4xMjJ6TTkuMzUzIDUyLjIzM2gxLjM2M3YxNi40MDVIOS4zNTN6TTExLjUxNyA1Mi4yMzNoMS4zNTh2MTYuNDA1aC0xLjM1OHpNMTMuNzYgNTIuMjMzaDEuMzU4djE2LjQwNUgxMy43NnpNMTUuOTExIDUyLjIzM2gxLjM2NnYxNi40MDVoLTEuMzY2ek0xOC4xNTYgNTIuMjMzaDEuMzc2djE2LjQwNWgtMS4zNzZ6TTIwLjM4IDUyLjIzM2gxLjM3N3YxNi40MDVIMjAuMzh6TTIyLjU2MiA1Mi4yMzNoMS4zNDl2MTYuNDA1aC0xLjM0OXpNMjQuNzk1IDUyLjIzM2gxLjM2NXYxNi40MDVoLTEuMzY1ek0yNi45NDEgNTIuMjMzaDEuMzc0djE2LjQwNWgtMS4zNzR6TTI5LjIgNTIuMjMzaDEuMzQ5djE2LjQwNUgyOS4yek0zMS40MzQgNTIuMjMzaDEuMzc4djE2LjQwNWgtMS4zNzh6Ii8+PC9nPjwvc3ZnPg==;strokeColor=none;strokeWidth=0;points=[];labelBackgroundColor=none;rounded=0;html=1;whiteSpace=wrap;" vertex="1" parent="1">
            <mxGeometry x="1495" y="700" width="36" height="80" as="geometry" />
          </mxCell>
        </UserObject>
        <UserObject label="&lt;div style=&quot;font-size: 1px&quot;&gt;&lt;p style=&quot;text-align:center;margin-left:0;margin-right:0;margin-top:0px;margin-bottom:0px;text-indent:0;vertical-align:middle;direction:ltr;&quot;&gt;&lt;font style=&quot;font-size:12px;font-family:0;color:#000000;direction:ltr;letter-spacing:0px;line-height:120%;opacity:1&quot;&gt;数据同步&lt;/font&gt;&lt;/p&gt;&lt;/div&gt;" tags="Background" id="jLg2OHhgH8_k0mDhG_3J-44">
          <mxCell style="vsdxID=44;edgeStyle=none;startArrow=none;endArrow=block;startSize=5;endSize=5;strokeWidth=2;spacingTop=0;spacingBottom=0;spacingLeft=0;spacingRight=0;verticalAlign=middle;html=1;labelBackgroundColor=#ffffff;rounded=0;align=center;exitX=1;exitY=0.5;exitDx=0;exitDy=0;exitPerimeter=0;entryX=0;entryY=0.5;entryDx=0;entryDy=0;entryPerimeter=0;" edge="1" parent="1" source="jLg2OHhgH8_k0mDhG_3J-31" target="jLg2OHhgH8_k0mDhG_3J-32">
            <mxGeometry relative="1" as="geometry">
              <mxPoint x="-1" y="-1" as="offset" />
              <Array as="points">
                <mxPoint x="1097.75" y="1533" />
                <mxPoint x="1097.75" y="1533" />
              </Array>
            </mxGeometry>
          </mxCell>
        </UserObject>
        <UserObject label="" tags="Background" id="jLg2OHhgH8_k0mDhG_3J-45">
          <mxCell style="vsdxID=45;edgeStyle=none;startArrow=none;endArrow=block;startSize=5;endSize=5;strokeWidth=2;spacingTop=0;spacingBottom=0;spacingLeft=0;spacingRight=0;verticalAlign=middle;html=1;labelBackgroundColor=#ffffff;rounded=0;exitX=1;exitY=0.5;exitDx=0;exitDy=0;exitPerimeter=0;entryX=0.5;entryY=0;entryDx=0;entryDy=0;entryPerimeter=0;" edge="1" parent="1" source="jLg2OHhgH8_k0mDhG_3J-10" target="jLg2OHhgH8_k0mDhG_3J-43">
            <mxGeometry relative="1" as="geometry">
              <mxPoint x="-421" y="299" as="offset" />
              <Array as="points">
                <mxPoint x="1513" y="502" />
              </Array>
            </mxGeometry>
          </mxCell>
        </UserObject>
        <UserObject label="" tags="Background" id="jLg2OHhgH8_k0mDhG_3J-46">
          <mxCell style="vsdxID=46;edgeStyle=none;startArrow=none;endArrow=block;startSize=5;endSize=5;strokeWidth=2;spacingTop=0;spacingBottom=0;spacingLeft=0;spacingRight=0;verticalAlign=middle;html=1;labelBackgroundColor=#ffffff;rounded=0;exitX=0;exitY=0.5;exitDx=0;exitDy=0;exitPerimeter=0;entryX=0.5277777777777778;entryY=-0.0125;entryDx=0;entryDy=0;entryPerimeter=0;" edge="1" parent="1" source="jLg2OHhgH8_k0mDhG_3J-20" target="jLg2OHhgH8_k0mDhG_3J-23">
            <mxGeometry relative="1" as="geometry">
              <mxPoint x="112" y="198" as="offset" />
              <Array as="points">
                <mxPoint x="525.44" y="743" />
              </Array>
            </mxGeometry>
          </mxCell>
        </UserObject>
        <UserObject label="" tags="Background" id="jLg2OHhgH8_k0mDhG_3J-47">
          <mxCell style="vsdxID=47;edgeStyle=none;startArrow=none;endArrow=block;startSize=5;endSize=5;strokeWidth=2;spacingTop=0;spacingBottom=0;spacingLeft=0;spacingRight=0;verticalAlign=middle;html=1;labelBackgroundColor=#ffffff;rounded=0;exitX=0.5;exitY=0.9875;exitDx=0;exitDy=0;exitPerimeter=0;entryX=0.5;entryY=0;entryDx=0;entryDy=0;entryPerimeter=0;" edge="1" parent="1" source="jLg2OHhgH8_k0mDhG_3J-42" target="jLg2OHhgH8_k0mDhG_3J-13">
            <mxGeometry relative="1" as="geometry">
              <mxPoint x="150" y="132" as="offset" />
              <Array as="points">
                <mxPoint x="1418" y="821.21" />
                <mxPoint x="1377.68" y="821.21" />
                <mxPoint x="1377.68" y="556.43" />
                <mxPoint x="842" y="556.43" />
              </Array>
            </mxGeometry>
          </mxCell>
        </UserObject>
        <UserObject label="" tags="Background" id="jLg2OHhgH8_k0mDhG_3J-48">
          <mxCell style="vsdxID=48;edgeStyle=none;startArrow=none;endArrow=block;startSize=5;endSize=5;strokeWidth=2;spacingTop=0;spacingBottom=0;spacingLeft=0;spacingRight=0;verticalAlign=middle;html=1;labelBackgroundColor=#ffffff;rounded=0;exitX=0.5;exitY=1;exitDx=0;exitDy=0;exitPerimeter=0;entryX=0.5;entryY=-0.0125;entryDx=0;entryDy=0;entryPerimeter=0;" edge="1" parent="1" source="jLg2OHhgH8_k0mDhG_3J-20" target="jLg2OHhgH8_k0mDhG_3J-22">
            <mxGeometry relative="1" as="geometry">
              <mxPoint y="130" as="offset" />
              <Array as="points">
                <mxPoint x="671" y="811.32" />
                <mxPoint x="671" y="811.32" />
              </Array>
            </mxGeometry>
          </mxCell>
        </UserObject>
        <UserObject label="" tags="Background" id="jLg2OHhgH8_k0mDhG_3J-49">
          <mxCell style="vsdxID=49;edgeStyle=none;startArrow=none;endArrow=block;startSize=5;endSize=5;strokeWidth=2;spacingTop=0;spacingBottom=0;spacingLeft=0;spacingRight=0;verticalAlign=middle;html=1;labelBackgroundColor=#ffffff;rounded=0;exitX=0.5;exitY=1;exitDx=0;exitDy=0;exitPerimeter=0;entryX=1;entryY=0.5;entryDx=0;entryDy=0;entryPerimeter=0;" edge="1" parent="1" source="jLg2OHhgH8_k0mDhG_3J-30" target="jLg2OHhgH8_k0mDhG_3J-29">
            <mxGeometry relative="1" as="geometry">
              <mxPoint x="249" y="32" as="offset" />
              <Array as="points">
                <mxPoint x="1001" y="1255.2" />
                <mxPoint x="569.54" y="1255.2" />
                <mxPoint x="569.54" y="1186" />
              </Array>
            </mxGeometry>
          </mxCell>
        </UserObject>
        <UserObject label="" tags="Background" id="jLg2OHhgH8_k0mDhG_3J-50">
          <mxCell style="vsdxID=50;edgeStyle=none;startArrow=none;endArrow=block;startSize=5;endSize=5;strokeWidth=2;strokeColor=#4ccbcd;spacingTop=0;spacingBottom=0;spacingLeft=0;spacingRight=0;verticalAlign=middle;html=1;labelBackgroundColor=#ffffff;rounded=0;exitX=0;exitY=0.5;exitDx=0;exitDy=0;exitPerimeter=0;entryX=1;entryY=0.4875;entryDx=0;entryDy=0;entryPerimeter=0;" edge="1" parent="1" source="jLg2OHhgH8_k0mDhG_3J-25" target="jLg2OHhgH8_k0mDhG_3J-23">
            <mxGeometry relative="1" as="geometry">
              <mxPoint x="129" y="162" as="offset" />
              <Array as="points">
                <mxPoint x="774.2" y="881" />
                <mxPoint x="774.2" y="820.06" />
                <mxPoint x="562.64" y="820.06" />
                <mxPoint x="562.64" y="880.89" />
              </Array>
            </mxGeometry>
          </mxCell>
        </UserObject>
        <UserObject label="" tags="Background" id="jLg2OHhgH8_k0mDhG_3J-51">
          <mxCell style="vsdxID=51;edgeStyle=none;startArrow=none;endArrow=block;startSize=5;endSize=5;strokeWidth=2;spacingTop=0;spacingBottom=0;spacingLeft=0;spacingRight=0;verticalAlign=middle;html=1;labelBackgroundColor=#ffffff;rounded=0;exitX=0.5;exitY=1;exitDx=0;exitDy=0;exitPerimeter=0;entryX=0.5;entryY=0;entryDx=0;entryDy=0;entryPerimeter=0;" edge="1" parent="1" source="jLg2OHhgH8_k0mDhG_3J-13" target="jLg2OHhgH8_k0mDhG_3J-20">
            <mxGeometry relative="1" as="geometry">
              <mxPoint x="85" y="125" as="offset" />
              <Array as="points">
                <mxPoint x="842" y="679.77" />
                <mxPoint x="671" y="679.77" />
              </Array>
            </mxGeometry>
          </mxCell>
        </UserObject>
        <UserObject label="" tags="Background" id="jLg2OHhgH8_k0mDhG_3J-52">
          <mxCell style="vsdxID=52;edgeStyle=none;startArrow=none;endArrow=block;startSize=5;endSize=5;strokeWidth=2;spacingTop=0;spacingBottom=0;spacingLeft=0;spacingRight=0;verticalAlign=middle;html=1;labelBackgroundColor=#ffffff;rounded=0;exitX=0.5087719298245614;exitY=1;exitDx=0;exitDy=0;exitPerimeter=0;entryX=0.5;entryY=0;entryDx=0;entryDy=0;entryPerimeter=0;" edge="1" parent="1" source="jLg2OHhgH8_k0mDhG_3J-10" target="jLg2OHhgH8_k0mDhG_3J-13">
            <mxGeometry relative="1" as="geometry">
              <mxPoint y="125" as="offset" />
              <Array as="points">
                <mxPoint x="842" y="564.48" />
                <mxPoint x="842" y="564.48" />
              </Array>
            </mxGeometry>
          </mxCell>
        </UserObject>
        <UserObject label="" tags="Background" id="jLg2OHhgH8_k0mDhG_3J-53">
          <mxCell style="vsdxID=53;edgeStyle=none;dashed=1;startArrow=none;endArrow=block;startSize=5;endSize=5;strokeWidth=2;spacingTop=0;spacingBottom=0;spacingLeft=0;spacingRight=0;verticalAlign=middle;html=1;labelBackgroundColor=#ffffff;rounded=0;exitX=0;exitY=0.5;exitDx=0;exitDy=0;exitPerimeter=0;entryX=0;entryY=0.5;entryDx=0;entryDy=0;entryPerimeter=0;" edge="1" parent="1" source="jLg2OHhgH8_k0mDhG_3J-23" target="jLg2OHhgH8_k0mDhG_3J-3">
            <mxGeometry relative="1" as="geometry">
              <mxPoint x="56" y="414" as="offset" />
              <Array as="points">
                <mxPoint x="449.46" y="881" />
                <mxPoint x="449.46" y="1543" />
              </Array>
            </mxGeometry>
          </mxCell>
        </UserObject>
        <UserObject label="" tags="Background" id="jLg2OHhgH8_k0mDhG_3J-54">
          <mxCell style="vsdxID=54;edgeStyle=none;startArrow=none;endArrow=block;startSize=5;endSize=5;strokeWidth=2;strokeColor=#4ccbcd;spacingTop=0;spacingBottom=0;spacingLeft=0;spacingRight=0;verticalAlign=middle;html=1;labelBackgroundColor=#ffffff;rounded=0;exitX=0.5;exitY=1;exitDx=0;exitDy=0;exitPerimeter=0;entryX=0;entryY=0.5;entryDx=0;entryDy=0;entryPerimeter=0;" edge="1" parent="1" source="jLg2OHhgH8_k0mDhG_3J-25" target="jLg2OHhgH8_k0mDhG_3J-30">
            <mxGeometry relative="1" as="geometry">
              <mxPoint y="151" as="offset" />
              <Array as="points">
                <mxPoint x="818" y="1186" />
              </Array>
            </mxGeometry>
          </mxCell>
        </UserObject>
        <UserObject label="" tags="Background" id="jLg2OHhgH8_k0mDhG_3J-55">
          <mxCell style="vsdxID=55;edgeStyle=none;startArrow=none;endArrow=block;startSize=5;endSize=5;strokeWidth=2;spacingTop=0;spacingBottom=0;spacingLeft=0;spacingRight=0;verticalAlign=middle;html=1;labelBackgroundColor=#ffffff;rounded=0;exitX=1;exitY=0.5;exitDx=0;exitDy=0;exitPerimeter=0;entryX=1;entryY=0.4875;entryDx=0;entryDy=0;entryPerimeter=0;" edge="1" parent="1" source="jLg2OHhgH8_k0mDhG_3J-20" target="jLg2OHhgH8_k0mDhG_3J-30">
            <mxGeometry relative="1" as="geometry">
              <mxPoint x="-360" y="486" as="offset" />
              <Array as="points">
                <mxPoint x="1048.7" y="743" />
                <mxPoint x="1048.7" y="1184.67" />
              </Array>
            </mxGeometry>
          </mxCell>
        </UserObject>
        <UserObject label="" tags="Background" id="jLg2OHhgH8_k0mDhG_3J-56">
          <mxCell style="vsdxID=56;edgeStyle=none;startArrow=none;endArrow=block;startSize=5;endSize=5;strokeWidth=2;spacingTop=0;spacingBottom=0;spacingLeft=0;spacingRight=0;verticalAlign=middle;html=1;labelBackgroundColor=#ffffff;rounded=0;exitX=0;exitY=0.5;exitDx=0;exitDy=0;exitPerimeter=0;entryX=1;entryY=0.5;entryDx=0;entryDy=0;entryPerimeter=0;" edge="1" parent="1" source="jLg2OHhgH8_k0mDhG_3J-28" target="jLg2OHhgH8_k0mDhG_3J-29">
            <mxGeometry relative="1" as="geometry">
              <mxPoint x="98" y="102" as="offset" />
              <Array as="points">
                <mxPoint x="637.79" y="1186" />
                <mxPoint x="637.79" y="1186" />
              </Array>
            </mxGeometry>
          </mxCell>
        </UserObject>
        <UserObject label="" tags="Background" id="jLg2OHhgH8_k0mDhG_3J-57">
          <mxCell style="vsdxID=57;edgeStyle=none;startArrow=none;endArrow=block;startSize=5;endSize=5;strokeWidth=2;spacingTop=0;spacingBottom=0;spacingLeft=0;spacingRight=0;verticalAlign=middle;html=1;labelBackgroundColor=#ffffff;rounded=0;exitX=1;exitY=0.5;exitDx=0;exitDy=0;exitPerimeter=0;entryX=0.4722222222222222;entryY=-0.0125;entryDx=0;entryDy=0;entryPerimeter=0;" edge="1" parent="1" source="jLg2OHhgH8_k0mDhG_3J-20" target="jLg2OHhgH8_k0mDhG_3J-25">
            <mxGeometry relative="1" as="geometry">
              <mxPoint x="-112" y="198" as="offset" />
              <Array as="points">
                <mxPoint x="817" y="743" />
              </Array>
            </mxGeometry>
          </mxCell>
        </UserObject>
        <UserObject label="" tags="Background" id="jLg2OHhgH8_k0mDhG_3J-58">
          <mxCell style="vsdxID=58;edgeStyle=none;startArrow=none;endArrow=block;startSize=5;endSize=5;strokeWidth=2;strokeColor=#e0c431;spacingTop=0;spacingBottom=0;spacingLeft=0;spacingRight=0;verticalAlign=middle;html=1;labelBackgroundColor=#ffffff;rounded=0;exitX=0.5;exitY=1;exitDx=0;exitDy=0;exitPerimeter=0;entryX=0.5;entryY=0;entryDx=0;entryDy=0;entryPerimeter=0;" edge="1" parent="1" source="jLg2OHhgH8_k0mDhG_3J-23" target="jLg2OHhgH8_k0mDhG_3J-28">
            <mxGeometry relative="1" as="geometry">
              <mxPoint x="-198" y="295" as="offset" />
              <Array as="points">
                <mxPoint x="524" y="952.5" />
                <mxPoint x="756.5" y="952.5" />
              </Array>
            </mxGeometry>
          </mxCell>
        </UserObject>
        <UserObject label="" tags="Background" id="jLg2OHhgH8_k0mDhG_3J-59">
          <mxCell style="vsdxID=59;edgeStyle=none;startArrow=none;endArrow=block;startSize=5;endSize=5;strokeWidth=2;spacingTop=0;spacingBottom=0;spacingLeft=0;spacingRight=0;verticalAlign=middle;html=1;labelBackgroundColor=#ffffff;rounded=0;exitX=1;exitY=0.5;exitDx=0;exitDy=0;exitPerimeter=0;entryX=0.5;entryY=-0.0125;entryDx=0;entryDy=0;entryPerimeter=0;" edge="1" parent="1" source="jLg2OHhgH8_k0mDhG_3J-20" target="jLg2OHhgH8_k0mDhG_3J-26">
            <mxGeometry relative="1" as="geometry">
              <mxPoint x="-186" y="198" as="offset" />
              <Array as="points">
                <mxPoint x="965" y="743" />
              </Array>
            </mxGeometry>
          </mxCell>
        </UserObject>
        <UserObject label="" tags="Background" id="jLg2OHhgH8_k0mDhG_3J-60">
          <mxCell style="vsdxID=60;edgeStyle=none;startArrow=none;endArrow=block;startSize=5;endSize=5;strokeWidth=2;spacingTop=0;spacingBottom=0;spacingLeft=0;spacingRight=0;verticalAlign=middle;html=1;labelBackgroundColor=#ffffff;rounded=0;exitX=0.5;exitY=1;exitDx=0;exitDy=0;exitPerimeter=0;entryX=0.5;entryY=0;entryDx=0;entryDy=0;entryPerimeter=0;" edge="1" parent="1" source="jLg2OHhgH8_k0mDhG_3J-13" target="jLg2OHhgH8_k0mDhG_3J-21">
            <mxGeometry relative="1" as="geometry">
              <mxPoint x="-195" y="125" as="offset" />
              <Array as="points">
                <mxPoint x="842" y="680" />
                <mxPoint x="1232" y="680" />
              </Array>
            </mxGeometry>
          </mxCell>
        </UserObject>
        <UserObject label="" tags="Background" id="jLg2OHhgH8_k0mDhG_3J-61">
          <mxCell style="vsdxID=61;edgeStyle=none;startArrow=none;endArrow=block;startSize=5;endSize=5;strokeWidth=2;spacingTop=0;spacingBottom=0;spacingLeft=0;spacingRight=0;verticalAlign=middle;html=1;labelBackgroundColor=#ffffff;rounded=0;exitX=1;exitY=0.5;exitDx=0;exitDy=0;exitPerimeter=0;entryX=0.5;entryY=0;entryDx=0;entryDy=0;entryPerimeter=0;" edge="1" parent="1" source="jLg2OHhgH8_k0mDhG_3J-20" target="jLg2OHhgH8_k0mDhG_3J-41">
            <mxGeometry relative="1" as="geometry">
              <mxPoint x="-260" y="199" as="offset" />
              <Array as="points">
                <mxPoint x="1112" y="743" />
              </Array>
            </mxGeometry>
          </mxCell>
        </UserObject>
        <UserObject label="" tags="Background" id="jLg2OHhgH8_k0mDhG_3J-62">
          <mxCell style="vsdxID=62;edgeStyle=none;startArrow=none;endArrow=block;startSize=5;endSize=5;strokeWidth=2;spacingTop=0;spacingBottom=0;spacingLeft=0;spacingRight=0;verticalAlign=middle;html=1;labelBackgroundColor=#ffffff;rounded=0;exitX=0.4444444444444444;exitY=1;exitDx=0;exitDy=0;exitPerimeter=0;entryX=0.4444444444444444;entryY=0;entryDx=0;entryDy=0;entryPerimeter=0;" edge="1" parent="1" source="jLg2OHhgH8_k0mDhG_3J-27" target="jLg2OHhgH8_k0mDhG_3J-37">
            <mxGeometry relative="1" as="geometry">
              <mxPoint y="147" as="offset" />
              <Array as="points">
                <mxPoint x="1230" y="1271.57" />
                <mxPoint x="1230" y="1271.57" />
              </Array>
            </mxGeometry>
          </mxCell>
        </UserObject>
        <UserObject label="" tags="Background" id="jLg2OHhgH8_k0mDhG_3J-63">
          <mxCell style="vsdxID=63;edgeStyle=none;startArrow=none;endArrow=block;startSize=5;endSize=5;strokeWidth=2;spacingTop=0;spacingBottom=0;spacingLeft=0;spacingRight=0;verticalAlign=middle;html=1;labelBackgroundColor=#ffffff;rounded=0;exitX=1;exitY=0.5;exitDx=0;exitDy=0;exitPerimeter=0;entryX=0.5;entryY=0;entryDx=0;entryDy=0;entryPerimeter=0;" edge="1" parent="1" source="jLg2OHhgH8_k0mDhG_3J-10" target="jLg2OHhgH8_k0mDhG_3J-42">
            <mxGeometry relative="1" as="geometry">
              <mxPoint x="-373" y="299" as="offset" />
              <Array as="points">
                <mxPoint x="1417.5" y="502" />
              </Array>
            </mxGeometry>
          </mxCell>
        </UserObject>
        <UserObject label="" tags="Background" id="jLg2OHhgH8_k0mDhG_3J-64">
          <mxCell style="vsdxID=64;edgeStyle=none;startArrow=none;endArrow=block;startSize=5;endSize=5;strokeWidth=2;spacingTop=0;spacingBottom=0;spacingLeft=0;spacingRight=0;verticalAlign=middle;html=1;labelBackgroundColor=#ffffff;rounded=0;exitX=0.5;exitY=1;exitDx=0;exitDy=0;exitPerimeter=0;entryX=0.5;entryY=0;entryDx=0;entryDy=0;entryPerimeter=0;" edge="1" parent="1" source="jLg2OHhgH8_k0mDhG_3J-38" target="jLg2OHhgH8_k0mDhG_3J-27">
            <mxGeometry relative="1" as="geometry">
              <mxPoint y="213" as="offset" />
              <Array as="points">
                <mxPoint x="1232" y="1033.5" />
                <mxPoint x="1232" y="1033.5" />
              </Array>
            </mxGeometry>
          </mxCell>
        </UserObject>
        <UserObject label="" tags="Background" id="jLg2OHhgH8_k0mDhG_3J-65">
          <mxCell style="vsdxID=65;edgeStyle=none;startArrow=none;endArrow=block;startSize=5;endSize=5;strokeWidth=2;spacingTop=0;spacingBottom=0;spacingLeft=0;spacingRight=0;verticalAlign=middle;html=1;labelBackgroundColor=#ffffff;rounded=0;exitX=1;exitY=0.5013054830287206;exitDx=0;exitDy=0;exitPerimeter=0;entryX=0;entryY=0.5;entryDx=0;entryDy=0;entryPerimeter=0;" edge="1" parent="1" source="jLg2OHhgH8_k0mDhG_3J-1" target="jLg2OHhgH8_k0mDhG_3J-40">
            <mxGeometry relative="1" as="geometry">
              <mxPoint x="-29" y="102" as="offset" />
              <Array as="points">
                <mxPoint x="1369.95" y="892" />
                <mxPoint x="1369.95" y="892" />
              </Array>
            </mxGeometry>
          </mxCell>
        </UserObject>
        <UserObject label="" tags="Background" id="jLg2OHhgH8_k0mDhG_3J-66">
          <mxCell style="vsdxID=66;edgeStyle=none;dashed=1;startArrow=none;endArrow=block;startSize=5;endSize=5;strokeWidth=2;spacingTop=0;spacingBottom=0;spacingLeft=0;spacingRight=0;verticalAlign=middle;html=1;labelBackgroundColor=#ffffff;rounded=0;exitX=0;exitY=0.5;exitDx=0;exitDy=0;exitPerimeter=0;entryX=0;entryY=0.5;entryDx=0;entryDy=0;entryPerimeter=0;" edge="1" parent="1" source="jLg2OHhgH8_k0mDhG_3J-24" target="jLg2OHhgH8_k0mDhG_3J-3">
            <mxGeometry relative="1" as="geometry">
              <mxPoint x="67" y="346" as="offset" />
              <Array as="points">
                <mxPoint x="438.6" y="1016" />
                <mxPoint x="438.6" y="1542.19" />
              </Array>
            </mxGeometry>
          </mxCell>
        </UserObject>
        <UserObject label="" tags="Background" id="jLg2OHhgH8_k0mDhG_3J-67">
          <mxCell style="vsdxID=67;edgeStyle=none;startArrow=none;endArrow=block;startSize=5;endSize=5;strokeWidth=2;strokeColor=#7bd144;spacingTop=0;spacingBottom=0;spacingLeft=0;spacingRight=0;verticalAlign=middle;html=1;labelBackgroundColor=#ffffff;rounded=0;exitX=0;exitY=0.5;exitDx=0;exitDy=0;exitPerimeter=0;entryX=1;entryY=0.5;entryDx=0;entryDy=0;entryPerimeter=0;" edge="1" parent="1" source="jLg2OHhgH8_k0mDhG_3J-22" target="jLg2OHhgH8_k0mDhG_3J-23">
            <mxGeometry relative="1" as="geometry">
              <mxPoint x="56" y="102" as="offset" />
              <Array as="points">
                <mxPoint x="597.5" y="881" />
                <mxPoint x="597.5" y="881" />
              </Array>
            </mxGeometry>
          </mxCell>
        </UserObject>
        <UserObject label="" tags="Background" id="jLg2OHhgH8_k0mDhG_3J-68">
          <mxCell style="vsdxID=68;edgeStyle=none;startArrow=none;endArrow=block;startSize=5;endSize=5;strokeWidth=2;strokeColor=#e0c431;spacingTop=0;spacingBottom=0;spacingLeft=0;spacingRight=0;verticalAlign=middle;html=1;labelBackgroundColor=#ffffff;rounded=0;exitX=0.5;exitY=1;exitDx=0;exitDy=0;exitPerimeter=0;entryX=0.5;entryY=0;entryDx=0;entryDy=0;entryPerimeter=0;" edge="1" parent="1" source="jLg2OHhgH8_k0mDhG_3J-23" target="jLg2OHhgH8_k0mDhG_3J-24">
            <mxGeometry relative="1" as="geometry">
              <mxPoint y="129" as="offset" />
              <Array as="points">
                <mxPoint x="524" y="948.35" />
                <mxPoint x="524" y="948.35" />
              </Array>
            </mxGeometry>
          </mxCell>
        </UserObject>
        <UserObject label="" tags="Background" id="jLg2OHhgH8_k0mDhG_3J-69">
          <mxCell style="vsdxID=69;edgeStyle=none;startArrow=none;endArrow=block;startSize=5;endSize=5;strokeWidth=2;strokeColor=#7bd144;spacingTop=0;spacingBottom=0;spacingLeft=0;spacingRight=0;verticalAlign=middle;html=1;labelBackgroundColor=#ffffff;rounded=0;exitX=0.5;exitY=1;exitDx=0;exitDy=0;exitPerimeter=0;entryX=0.5;entryY=0;entryDx=0;entryDy=0;entryPerimeter=0;" edge="1" parent="1" source="jLg2OHhgH8_k0mDhG_3J-22" target="jLg2OHhgH8_k0mDhG_3J-28">
            <mxGeometry relative="1" as="geometry">
              <mxPoint x="-43" y="214" as="offset" />
              <Array as="points">
                <mxPoint x="671" y="1033.5" />
                <mxPoint x="756.5" y="1033.5" />
              </Array>
            </mxGeometry>
          </mxCell>
        </UserObject>
        <UserObject label="" tags="Background" id="jLg2OHhgH8_k0mDhG_3J-70">
          <mxCell style="vsdxID=70;edgeStyle=none;startArrow=none;endArrow=block;startSize=5;endSize=5;strokeWidth=2;strokeColor=#4669ea;spacingTop=0;spacingBottom=0;spacingLeft=0;spacingRight=0;verticalAlign=middle;html=1;labelBackgroundColor=#ffffff;rounded=0;exitX=0.5;exitY=1;exitDx=0;exitDy=0;exitPerimeter=0;entryX=0.5;entryY=0;entryDx=0;entryDy=0;entryPerimeter=0;" edge="1" parent="1" source="jLg2OHhgH8_k0mDhG_3J-26" target="jLg2OHhgH8_k0mDhG_3J-30">
            <mxGeometry relative="1" as="geometry">
              <mxPoint x="-19" y="214" as="offset" />
              <Array as="points">
                <mxPoint x="965" y="1033.5" />
                <mxPoint x="1001" y="1033.5" />
              </Array>
            </mxGeometry>
          </mxCell>
        </UserObject>
        <UserObject label="" tags="Background" id="jLg2OHhgH8_k0mDhG_3J-71">
          <mxCell style="vsdxID=71;edgeStyle=none;startArrow=none;endArrow=block;startSize=5;endSize=5;strokeWidth=2;spacingTop=0;spacingBottom=0;spacingLeft=0;spacingRight=0;verticalAlign=middle;html=1;labelBackgroundColor=#ffffff;rounded=0;exitX=0.5;exitY=0.9875;exitDx=0;exitDy=0;exitPerimeter=0;entryX=0.5;entryY=0;entryDx=0;entryDy=0;entryPerimeter=0;" edge="1" parent="1" source="jLg2OHhgH8_k0mDhG_3J-43" target="jLg2OHhgH8_k0mDhG_3J-13">
            <mxGeometry relative="1" as="geometry">
              <mxPoint x="184" y="132" as="offset" />
              <Array as="points">
                <mxPoint x="1513" y="834.64" />
                <mxPoint x="1351.84" y="834.64" />
                <mxPoint x="1351.84" y="556.43" />
                <mxPoint x="841.5" y="556.43" />
              </Array>
            </mxGeometry>
          </mxCell>
        </UserObject>
        <UserObject label="" tags="Background" id="jLg2OHhgH8_k0mDhG_3J-72">
          <mxCell style="vsdxID=72;edgeStyle=none;startArrow=none;endArrow=block;startSize=5;endSize=5;strokeWidth=2;spacingTop=0;spacingBottom=0;spacingLeft=0;spacingRight=0;verticalAlign=middle;html=1;labelBackgroundColor=#ffffff;rounded=0;exitX=0.5;exitY=1;exitDx=0;exitDy=0;exitPerimeter=0;entryX=0.5;entryY=0;entryDx=0;entryDy=0;entryPerimeter=0;" edge="1" parent="1" source="jLg2OHhgH8_k0mDhG_3J-21" target="jLg2OHhgH8_k0mDhG_3J-38">
            <mxGeometry relative="1" as="geometry">
              <mxPoint y="129" as="offset" />
              <Array as="points">
                <mxPoint x="1232" y="811.93" />
                <mxPoint x="1232" y="811.93" />
              </Array>
            </mxGeometry>
          </mxCell>
        </UserObject>
        <UserObject label="" tags="Background" id="jLg2OHhgH8_k0mDhG_3J-73">
          <mxCell style="vsdxID=73;edgeStyle=none;startArrow=none;endArrow=block;startSize=5;endSize=5;strokeWidth=2;spacingTop=0;spacingBottom=0;spacingLeft=0;spacingRight=0;verticalAlign=middle;html=1;labelBackgroundColor=#ffffff;rounded=0;exitX=0.5;exitY=1;exitDx=0;exitDy=0;exitPerimeter=0;entryX=1;entryY=0.5;entryDx=0;entryDy=0;entryPerimeter=0;" edge="1" parent="1" source="jLg2OHhgH8_k0mDhG_3J-41" target="jLg2OHhgH8_k0mDhG_3J-30">
            <mxGeometry relative="1" as="geometry">
              <mxPoint y="187" as="offset" />
              <Array as="points">
                <mxPoint x="1112" y="1186" />
              </Array>
            </mxGeometry>
          </mxCell>
        </UserObject>
        <UserObject label="" tags="Background" id="jLg2OHhgH8_k0mDhG_3J-74">
          <mxCell style="vsdxID=74;edgeStyle=none;startArrow=none;endArrow=block;startSize=5;endSize=5;strokeWidth=2;strokeColor=#4669ea;spacingTop=0;spacingBottom=0;spacingLeft=0;spacingRight=0;verticalAlign=middle;html=1;labelBackgroundColor=#ffffff;rounded=0;exitX=0;exitY=0.5;exitDx=0;exitDy=0;exitPerimeter=0;entryX=1;entryY=0.4875;entryDx=0;entryDy=0;entryPerimeter=0;" edge="1" parent="1" source="jLg2OHhgH8_k0mDhG_3J-26" target="jLg2OHhgH8_k0mDhG_3J-22">
            <mxGeometry relative="1" as="geometry">
              <mxPoint x="129" y="170" as="offset" />
              <Array as="points">
                <mxPoint x="918.62" y="881" />
                <mxPoint x="918.62" y="812.06" />
                <mxPoint x="719.96" y="812.06" />
                <mxPoint x="719.96" y="880.89" />
              </Array>
            </mxGeometry>
          </mxCell>
        </UserObject>
        <UserObject label="" tags="Background" id="jLg2OHhgH8_k0mDhG_3J-75">
          <mxCell style="vsdxID=75;edgeStyle=none;startArrow=none;endArrow=block;startSize=5;endSize=5;strokeWidth=2;spacingTop=0;spacingBottom=0;spacingLeft=0;spacingRight=0;verticalAlign=middle;html=1;labelBackgroundColor=#ffffff;rounded=0;exitX=0.5;exitY=1;exitDx=0;exitDy=0;exitPerimeter=0;entryX=0.5087719298245614;entryY=0;entryDx=0;entryDy=0;entryPerimeter=0;" edge="1" parent="1" source="jLg2OHhgH8_k0mDhG_3J-7" target="jLg2OHhgH8_k0mDhG_3J-10">
            <mxGeometry relative="1" as="geometry">
              <mxPoint y="125" as="offset" />
              <Array as="points">
                <mxPoint x="842" y="439.52" />
                <mxPoint x="842" y="439.52" />
              </Array>
            </mxGeometry>
          </mxCell>
        </UserObject>
        <UserObject label="" tags="Background" id="jLg2OHhgH8_k0mDhG_3J-76">
          <mxCell style="vsdxID=76;edgeStyle=none;startArrow=none;endArrow=block;startSize=5;endSize=5;strokeWidth=2;strokeColor=#7bd144;spacingTop=0;spacingBottom=0;spacingLeft=0;spacingRight=0;verticalAlign=middle;html=1;labelBackgroundColor=#ffffff;rounded=0;exitX=0.5;exitY=1;exitDx=0;exitDy=0;exitPerimeter=0;entryX=0;entryY=0.5;entryDx=0;entryDy=0;entryPerimeter=0;" edge="1" parent="1" source="jLg2OHhgH8_k0mDhG_3J-22" target="jLg2OHhgH8_k0mDhG_3J-30">
            <mxGeometry relative="1" as="geometry">
              <mxPoint x="-138" y="214" as="offset" />
              <Array as="points">
                <mxPoint x="671" y="939.55" />
                <mxPoint x="808.28" y="939.55" />
                <mxPoint x="808.28" y="1186" />
              </Array>
            </mxGeometry>
          </mxCell>
        </UserObject>
        <UserObject label="&lt;div style=&quot;font-size: 1px&quot;&gt;&lt;p style=&quot;text-align:center;margin-left:0;margin-right:0;margin-top:0px;margin-bottom:0px;text-indent:0;vertical-align:middle;direction:ltr;&quot;&gt;&lt;font style=&quot;font-size: 12px; color: rgb(0, 0, 0); direction: ltr; letter-spacing: 0px; line-height: 120%; opacity: 1;&quot;&gt;Nacos服务&lt;/font&gt;&lt;/p&gt;&lt;/div&gt;" tags="Background" id="jLg2OHhgH8_k0mDhG_3J-104">
          <mxCell style="verticalAlign=middle;align=center;overflow=width;vsdxID=36;fillColor=none;gradientColor=none;image;aspect=fixed;image=data:image/svg+xml,PHN2ZyB4bWxucz0iaHR0cDovL3d3dy53My5vcmcvMjAwMC9zdmciIGhlaWdodD0iODAuMDAwMTk4MzY0MjU3ODEiIHdpZHRoPSIzNi4wMDAyMDk4MDgzNDk2MSIgeG1sOnNwYWNlPSJwcmVzZXJ2ZSIgdmlld0JveD0iLTAuMDAwMTQ3MDQ5Nzk1NDg2OTY0MjkgLTAuMDAwMTI3MzU0MjAwMjMwOTExMzcgMzYuMDAwMjA5ODA4MzQ5NjEgODAuMDAwMTk4MzY0MjU3ODEiPjxwYXRoIGQ9Ik0zMy4yNzkgODBIMi43MTZBMi42OTcgMi42OTcgMCAwIDEgMCA3Ny4yODNWMi43MThBMi42OSAyLjY5IDAgMCAxIDIuNzE2IDBoMzAuNTYzQTIuNyAyLjcgMCAwIDEgMzYgMi43MTh2NzQuNTY1QzM2IDc4LjcwNSAzNC43OTMgODAgMzMuMjc5IDgwIiBmaWxsPSIjMUUzOTQ3Ii8+PHBhdGggZD0iTS4wODEgNi4zOThIMzZ2Ljg4NEguMDgxek0uMDgxIDY5LjUxOGgzNS45MTh2Ljg4NEguMDgxeiIgZmlsbD0iI0RDRTlGNyIvPjxwYXRoIGQ9Ik0wIDUxLjEyNmgzNnYuNDgxSDB6IiBmaWxsPSIjMUE2Njg0Ii8+PHBhdGggZD0iTTUuMiAxMS42OGgyNS43NTF2My4xMTlINS4yek01LjIgMTUuNjA4aDI1Ljc1MXYzLjExNEg1LjJ6IiBmaWxsPSIjMjM2QThFIi8+PHBhdGggZD0iTTUuODMzIDEyLjg3N2g0LjY0OHYuOTY2SDUuODMzek01LjgzMyAxNi43Mmg0LjY0OHYuOTUzSDUuODMzeiIgZmlsbD0iI0RDRTlGNyIvPjxwYXRoIGQ9Ik01LjIgMjAuNjQyaDI1Ljc1MXYzLjEyMUg1LjJ6TTUuMiAyNC41NTdoMjUuNzUxdjMuMTE2SDUuMnoiIGZpbGw9IiMyMzZBOEUiLz48cGF0aCBkPSJNNS44MzMgMjEuODQxaDQuNjQ4di45NTZINS44MzN6TTUuODMzIDI1LjY4N2g0LjY0OHYuOTUzSDUuODMzeiIgZmlsbD0iI0RDRTlGNyIvPjxwYXRoIGQ9Ik01LjIgMzEuMjc3aDI1Ljc1MXYzLjExNEg1LjJ6TTUuMiAzNS4yMDFoMjUuNzUxdjMuMTE5SDUuMnoiIGZpbGw9IiMyMzZBOEUiLz48cGF0aCBkPSJNNS44MzMgMzIuNDgzaDQuNjQ4di45NTdINS44MzN6TTUuODMzIDM2LjMxOGg0LjY0OHYuOTY0SDUuODMzeiIgZmlsbD0iI0RDRTlGNyIvPjxwYXRoIG9wYWNpdHk9Ii42MiIgZD0iTTMxLjY3NSA3Mi45NThjLjczNCAwIDEuMzU4LjYwNCAxLjM1OCAxLjM2NyAwIC43NDQtLjYyNCAxLjM0OS0xLjM1OCAxLjM0OS0uNzM4IDAtMS4zNjMtLjYwNC0xLjM2My0xLjM0OWExLjM3IDEuMzcgMCAwIDEgMS4zNjMtMS4zNjciIGZpbGw9IiNGRjQ2NkEiLz48cGF0aCBvcGFjaXR5PSIuNjIiIGQ9Ik0yNi42MjkgNzIuOTU4Yy43NTkgMCAxLjM2NC42MDQgMS4zNjQgMS4zNjcgMCAuNzQ0LS42MDUgMS4zNDktMS4zNjQgMS4zNDlhMS4zNSAxLjM1IDAgMCAxLTEuMzUyLTEuMzQ5YzAtLjc2Mi42MDYtMS4zNjcgMS4zNTItMS4zNjciIGZpbGw9IiM0M0QxOTAiLz48ZyBmaWxsPSIjMDQxMzIzIj48cGF0aCBkPSJNMi43MTYgNTIuMjMzaDEuMzZ2MTYuNDA1aC0xLjM2ek00Ljk1OSA1Mi4yMzNoMS4zNTh2MTYuNDA1SDQuOTU5ek03LjEyMiA1Mi4yMzNIOC40OHYxNi40MDVINy4xMjJ6TTkuMzUzIDUyLjIzM2gxLjM2M3YxNi40MDVIOS4zNTN6TTExLjUxNyA1Mi4yMzNoMS4zNTh2MTYuNDA1aC0xLjM1OHpNMTMuNzYgNTIuMjMzaDEuMzU4djE2LjQwNUgxMy43NnpNMTUuOTExIDUyLjIzM2gxLjM2NnYxNi40MDVoLTEuMzY2ek0xOC4xNTYgNTIuMjMzaDEuMzc2djE2LjQwNWgtMS4zNzZ6TTIwLjM4IDUyLjIzM2gxLjM3N3YxNi40MDVIMjAuMzh6TTIyLjU2MiA1Mi4yMzNoMS4zNDl2MTYuNDA1aC0xLjM0OXpNMjQuNzk1IDUyLjIzM2gxLjM2NXYxNi40MDVoLTEuMzY1ek0yNi45NDEgNTIuMjMzaDEuMzc0djE2LjQwNWgtMS4zNzR6TTI5LjIgNTIuMjMzaDEuMzQ5djE2LjQwNUgyOS4yek0zMS40MzQgNTIuMjMzaDEuMzc4djE2LjQwNWgtMS4zNzh6Ii8+PC9nPjwvc3ZnPg==;strokeColor=none;strokeWidth=0;points=[];labelBackgroundColor=none;rounded=0;html=1;whiteSpace=wrap;" vertex="1" parent="1">
            <mxGeometry x="1037" y="1319" width="36" height="80" as="geometry" />
          </mxCell>
        </UserObject>
        <UserObject label="&lt;div style=&quot;font-size: 1px&quot;&gt;&lt;p style=&quot;text-align:center;margin-left:0;margin-right:0;margin-top:0px;margin-bottom:0px;text-indent:0;vertical-align:middle;direction:ltr;&quot;&gt;&lt;font style=&quot;font-size: 12px; color: rgb(0, 0, 0); direction: ltr; letter-spacing: 0px; line-height: 120%; opacity: 1;&quot;&gt;ES&lt;/font&gt;&lt;/p&gt;&lt;p style=&quot;text-align:center;margin-left:0;margin-right:0;margin-top:0px;margin-bottom:0px;text-indent:0;vertical-align:middle;direction:ltr;&quot;&gt;&lt;font style=&quot;font-size: 12px; color: rgb(0, 0, 0); direction: ltr; letter-spacing: 0px; line-height: 120%; opacity: 1;&quot;&gt;服务&lt;/font&gt;&lt;/p&gt;&lt;/div&gt;" tags="Background" id="jLg2OHhgH8_k0mDhG_3J-105">
          <mxCell style="verticalAlign=middle;align=center;overflow=width;vsdxID=36;fillColor=none;gradientColor=none;image;aspect=fixed;image=data:image/svg+xml,PHN2ZyB4bWxucz0iaHR0cDovL3d3dy53My5vcmcvMjAwMC9zdmciIGhlaWdodD0iODAuMDAwMTk4MzY0MjU3ODEiIHdpZHRoPSIzNi4wMDAyMDk4MDgzNDk2MSIgeG1sOnNwYWNlPSJwcmVzZXJ2ZSIgdmlld0JveD0iLTAuMDAwMTQ3MDQ5Nzk1NDg2OTY0MjkgLTAuMDAwMTI3MzU0MjAwMjMwOTExMzcgMzYuMDAwMjA5ODA4MzQ5NjEgODAuMDAwMTk4MzY0MjU3ODEiPjxwYXRoIGQ9Ik0zMy4yNzkgODBIMi43MTZBMi42OTcgMi42OTcgMCAwIDEgMCA3Ny4yODNWMi43MThBMi42OSAyLjY5IDAgMCAxIDIuNzE2IDBoMzAuNTYzQTIuNyAyLjcgMCAwIDEgMzYgMi43MTh2NzQuNTY1QzM2IDc4LjcwNSAzNC43OTMgODAgMzMuMjc5IDgwIiBmaWxsPSIjMUUzOTQ3Ii8+PHBhdGggZD0iTS4wODEgNi4zOThIMzZ2Ljg4NEguMDgxek0uMDgxIDY5LjUxOGgzNS45MTh2Ljg4NEguMDgxeiIgZmlsbD0iI0RDRTlGNyIvPjxwYXRoIGQ9Ik0wIDUxLjEyNmgzNnYuNDgxSDB6IiBmaWxsPSIjMUE2Njg0Ii8+PHBhdGggZD0iTTUuMiAxMS42OGgyNS43NTF2My4xMTlINS4yek01LjIgMTUuNjA4aDI1Ljc1MXYzLjExNEg1LjJ6IiBmaWxsPSIjMjM2QThFIi8+PHBhdGggZD0iTTUuODMzIDEyLjg3N2g0LjY0OHYuOTY2SDUuODMzek01LjgzMyAxNi43Mmg0LjY0OHYuOTUzSDUuODMzeiIgZmlsbD0iI0RDRTlGNyIvPjxwYXRoIGQ9Ik01LjIgMjAuNjQyaDI1Ljc1MXYzLjEyMUg1LjJ6TTUuMiAyNC41NTdoMjUuNzUxdjMuMTE2SDUuMnoiIGZpbGw9IiMyMzZBOEUiLz48cGF0aCBkPSJNNS44MzMgMjEuODQxaDQuNjQ4di45NTZINS44MzN6TTUuODMzIDI1LjY4N2g0LjY0OHYuOTUzSDUuODMzeiIgZmlsbD0iI0RDRTlGNyIvPjxwYXRoIGQ9Ik01LjIgMzEuMjc3aDI1Ljc1MXYzLjExNEg1LjJ6TTUuMiAzNS4yMDFoMjUuNzUxdjMuMTE5SDUuMnoiIGZpbGw9IiMyMzZBOEUiLz48cGF0aCBkPSJNNS44MzMgMzIuNDgzaDQuNjQ4di45NTdINS44MzN6TTUuODMzIDM2LjMxOGg0LjY0OHYuOTY0SDUuODMzeiIgZmlsbD0iI0RDRTlGNyIvPjxwYXRoIG9wYWNpdHk9Ii42MiIgZD0iTTMxLjY3NSA3Mi45NThjLjczNCAwIDEuMzU4LjYwNCAxLjM1OCAxLjM2NyAwIC43NDQtLjYyNCAxLjM0OS0xLjM1OCAxLjM0OS0uNzM4IDAtMS4zNjMtLjYwNC0xLjM2My0xLjM0OWExLjM3IDEuMzcgMCAwIDEgMS4zNjMtMS4zNjciIGZpbGw9IiNGRjQ2NkEiLz48cGF0aCBvcGFjaXR5PSIuNjIiIGQ9Ik0yNi42MjkgNzIuOTU4Yy43NTkgMCAxLjM2NC42MDQgMS4zNjQgMS4zNjcgMCAuNzQ0LS42MDUgMS4zNDktMS4zNjQgMS4zNDlhMS4zNSAxLjM1IDAgMCAxLTEuMzUyLTEuMzQ5YzAtLjc2Mi42MDYtMS4zNjcgMS4zNTItMS4zNjciIGZpbGw9IiM0M0QxOTAiLz48ZyBmaWxsPSIjMDQxMzIzIj48cGF0aCBkPSJNMi43MTYgNTIuMjMzaDEuMzZ2MTYuNDA1aC0xLjM2ek00Ljk1OSA1Mi4yMzNoMS4zNTh2MTYuNDA1SDQuOTU5ek03LjEyMiA1Mi4yMzNIOC40OHYxNi40MDVINy4xMjJ6TTkuMzUzIDUyLjIzM2gxLjM2M3YxNi40MDVIOS4zNTN6TTExLjUxNyA1Mi4yMzNoMS4zNTh2MTYuNDA1aC0xLjM1OHpNMTMuNzYgNTIuMjMzaDEuMzU4djE2LjQwNUgxMy43NnpNMTUuOTExIDUyLjIzM2gxLjM2NnYxNi40MDVoLTEuMzY2ek0xOC4xNTYgNTIuMjMzaDEuMzc2djE2LjQwNWgtMS4zNzZ6TTIwLjM4IDUyLjIzM2gxLjM3N3YxNi40MDVIMjAuMzh6TTIyLjU2MiA1Mi4yMzNoMS4zNDl2MTYuNDA1aC0xLjM0OXpNMjQuNzk1IDUyLjIzM2gxLjM2NXYxNi40MDVoLTEuMzY1ek0yNi45NDEgNTIuMjMzaDEuMzc0djE2LjQwNWgtMS4zNzR6TTI5LjIgNTIuMjMzaDEuMzQ5djE2LjQwNUgyOS4yek0zMS40MzQgNTIuMjMzaDEuMzc4djE2LjQwNWgtMS4zNzh6Ii8+PC9nPjwvc3ZnPg==;strokeColor=none;strokeWidth=0;points=[];labelBackgroundColor=none;rounded=0;html=1;whiteSpace=wrap;" vertex="1" parent="1">
            <mxGeometry x="689" y="1319" width="36" height="80" as="geometry" />
          </mxCell>
        </UserObject>
      </root>
    </mxGraphModel>
  </diagram>
</mxfile>
